<svg width="34" height="24" viewBox="0 0 34 24" fill="none" xmlns="http://www.w3.org/2000/svg">
<path d="M27.3678 13.7603C27.0752 13.7603 26.9177 13.7603 26.7601 13.7603C22.3264 13.7603 17.8926 13.7603 13.4364 13.7603C13.1438 13.7603 12.8512 13.7603 12.5586 13.6927C11.6583 13.4677 11.1632 12.6799 11.2532 11.6897C11.3433 10.7669 11.9734 10.1142 12.8962 10.0467C13.0988 10.0242 13.3013 10.0242 13.5039 10.0242C17.9376 10.0242 22.3489 10.0242 26.7827 10.0242C26.9402 10.0242 27.0977 10.0242 27.2553 10.0242C27.3003 9.95667 27.3453 9.88915 27.3903 9.82163C27.2553 9.75411 27.0752 9.7091 26.9627 9.59657C25.6798 8.3137 24.3745 7.03083 23.1141 5.74797C22.3039 4.91523 22.3039 3.83492 23.0916 3.0472C23.8568 2.30449 24.9371 2.32699 25.7249 3.09221C27.0752 4.42009 28.4031 5.77047 29.731 7.09835C30.8788 8.22367 32.0266 9.34899 33.197 10.4743C33.9622 11.217 33.9622 12.5449 33.197 13.2651C32.3868 14.0303 31.5765 14.7955 30.7888 15.5833C29.0783 17.2713 27.3903 18.9817 25.7023 20.6697C25.1847 21.1874 24.5545 21.3674 23.8568 21.1649C23.1591 20.9398 22.7315 20.4447 22.5514 19.747C22.3939 19.0493 22.6415 18.4866 23.1366 17.9915C24.4195 16.7086 25.6798 15.4482 26.9627 14.1654C27.0527 14.0753 27.1653 13.9628 27.3678 13.7603Z" fill="#0055D4"/>
<path d="M0 11.9854C0 8.45158 0 4.93374 0 1.39992C0 0.376556 1.1976 -0.215079 2.65868 0.072743C3.35329 0.216654 3.78443 0.536458 3.92814 1.01616C3.97605 1.17606 4 1.35195 4 1.51186C4 8.49955 4 15.5032 4 22.4909C4 23.5942 2.87425 24.2179 1.36527 23.93C0.526946 23.7701 0.0239521 23.3064 0 22.6668C0 21.7074 0 20.748 0 19.7886C0 17.1822 0 14.5918 0 11.9854Z" fill="#0055D4"/>
</svg>
