<svg width="451" height="376" viewBox="0 0 451 376" fill="none" xmlns="http://www.w3.org/2000/svg">
<ellipse cx="223.5" cy="362.5" rx="104.5" ry="13.5" fill="#C89B0E"/>
<path d="M189.507 306.423L188.146 247.155C188.146 247.155 187.976 241.358 194.281 241.481C200.587 241.605 200.51 247.126 200.51 247.126L203.279 304.904C203.279 304.904 215.335 305.642 211.419 318.031C211.419 318.031 217.298 333.65 216.27 350.421C216.27 350.421 205.903 365.041 175.915 365.041C175.915 365.041 158.244 365.797 156.674 352.814C156.674 352.814 155.91 330.932 180.655 326.402C180.655 326.402 183.061 325.762 184.413 320.847C184.413 320.847 181.316 319.866 181.589 315.412C181.866 310.949 185.757 307.506 189.507 306.423Z" fill="#252828"/>
<path d="M205.263 319.75C205.263 319.75 208.39 320.207 210.062 318.731C210.062 318.731 213.275 322.084 214.977 350.071C214.977 350.071 200.941 364.465 174.703 363.382C174.703 363.382 156.836 363.075 158.312 351.854C159.788 340.634 167.877 324.559 193.398 328.757C193.398 328.757 194.298 326.969 183.308 326.035C183.308 326.035 185.011 324.034 185.693 321.444C185.693 321.444 188.018 322.114 191.244 320.996C191.244 320.996 182.613 320.203 183.18 315.241C183.748 310.279 191.312 307.058 191.312 307.058L188.936 247.202C188.936 247.202 188.961 242.471 193.974 242.249C198.987 242.032 199.742 246.814 199.742 246.814C199.742 246.814 201.837 302.707 202.182 305.625C202.182 305.625 210.553 306.401 210.89 313.786C210.89 313.782 211.436 317.762 205.263 319.75Z" fill="#272828"/>
<path d="M239.755 306.346C239.755 306.346 230.178 308.125 230.711 316.577C230.711 316.577 230.715 320.787 233.258 322.255C233.258 322.255 226.982 334.495 225.289 357.802C225.289 357.802 229.917 368.083 252.964 369.76C252.964 369.76 272.93 370.195 281.941 360.489C281.941 360.489 288.66 336.701 266.279 328.488L263.19 318.829C263.19 318.829 268.536 308.897 253.203 305.851L251.71 244.468C251.71 244.468 251.936 240.799 246.398 240.987C240.865 241.174 240.344 245.351 240.344 245.351L239.755 306.346Z" fill="#252828"/>
<path d="M239.888 308.462C239.888 308.462 232.929 310.403 232.592 315.907C232.255 321.41 238.958 323.663 238.958 323.663L234.504 323.39C234.504 323.39 226.769 346.59 227.204 356.611C227.639 366.633 254.897 368.305 254.897 368.305C254.897 368.305 273.911 367.106 280.712 359.103C280.712 359.103 283.528 330.34 259.107 329.631C259.107 329.631 247.985 326.581 236.91 339.845C236.91 339.845 242.917 323.377 264.248 327.319L261.816 319.806C261.816 319.806 259.218 323.59 256.104 322.874C256.104 322.874 262.094 319.559 262.124 314.827C262.154 310.096 255.758 307.071 251.257 307.583L250.532 246.511C250.532 246.511 250.822 241.793 246.04 242.552C241.257 243.312 241.607 246.226 241.607 246.226L241.513 307.771L239.888 308.462Z" fill="#272828"/>
<path d="M408.333 129.568C408.333 129.568 368.26 221.515 356.835 209.246L354.331 186.813C354.331 186.813 356.268 201.349 391.588 120.733L408.333 129.568Z" fill="#272828"/>
<path d="M385.249 129.684C385.249 129.684 379.587 128.169 380.504 135.106C381.422 142.043 387.258 146.365 392.395 148.69C397.531 151.015 409.622 152.026 407.497 144.974C407.497 144.974 418.935 147.201 424.016 137.623C424.016 137.623 428.957 144.496 436.324 143.848C443.692 143.195 443.756 138.784 443.714 136.109C443.671 133.434 441.491 131.463 438.001 131.117C434.511 130.772 428.078 131.407 427.771 128.873L427.754 127.802C427.754 127.802 447.925 130.69 450.348 122.627C452.771 114.564 447.511 112.913 441.623 114.073C435.74 115.238 436.704 116.825 426.367 116.59C426.367 116.59 437.933 109.854 441.359 105.92C444.785 101.987 446.039 96.3512 441.819 92.8102C437.6 89.2691 432.041 93.9023 432.041 93.9023C432.041 93.9023 425.215 103.506 416.307 108.459L415.356 107.806C415.356 107.806 413.845 105.69 425.1 96.2872C425.1 96.2872 429.84 90.596 425.087 87.0592C420.334 83.5225 415.027 87.2171 415.027 87.2171L410.402 91.5687C410.402 91.5687 408.606 96.6797 397.105 107.559C397.105 107.559 394.434 99.9775 387.19 99.9604C379.946 99.9434 376.49 102.136 376.985 107.879C377.48 113.621 386.204 113.881 385.47 118.442C385.47 118.446 382.578 122.102 385.249 129.684Z" fill="#252828"/>
<path d="M413.85 105.963L420.04 98.6421C420.04 98.6421 428.521 92.0891 423.509 88.9576C418.496 85.8262 413.355 91.6582 413.355 91.6582L409.549 97.0678C409.549 97.0678 401.401 107.896 398.739 109.141L398.069 109.15C398.069 109.15 398.521 112.217 398.534 113.019C398.547 113.822 406.61 114.764 405.825 124.27C405.825 124.27 403.786 114.142 398.154 114.496C398.154 114.496 397.015 118.792 396.076 118.809C396.076 118.809 399.967 110.323 391.55 104.039C383.132 97.7547 375.62 106.296 379.835 109.841C384.05 113.386 388.645 115.319 387.663 121.215C386.682 127.115 387.232 119.351 386.563 119.359C385.893 119.368 383.465 127.162 389.596 132.952C389.596 132.952 392.335 136.386 400.232 135.191C400.232 135.191 395.441 137.542 390.577 135.614C385.718 133.685 385.671 130.746 385.671 130.746C385.671 130.746 380.155 129.897 381.993 135.75C383.832 141.604 390.607 145.776 390.607 145.776C390.607 145.776 400.628 151.501 405.936 147.807C405.936 147.807 407.775 145.238 403.73 144.232C399.69 143.225 398.427 139.901 398.427 139.901C398.427 139.901 405.629 145.537 413.112 143.681C420.595 141.825 423.713 135.49 423.713 135.49C423.713 135.49 429.989 142.077 433.615 142.154C437.242 142.231 441.393 141.898 442.408 138.135C443.424 134.377 438.163 132.853 438.163 132.853C438.163 132.853 426.23 133.31 425.765 129.44C425.3 125.571 425.761 120.613 422.331 115.989C418.905 111.364 412.139 107.862 404.622 107.712C404.622 107.712 409.174 106.97 413.474 107.571L413.85 105.963Z" fill="#262828"/>
<path d="M418.065 109.372C418.065 109.372 427.506 104.005 433.411 95.7581C433.411 95.7581 438.423 90.4636 441.862 95.6258C445.296 100.788 438.671 105.972 438.671 105.972L424.067 115.831C424.072 115.827 421.457 111.59 418.065 109.372Z" fill="#262828"/>
<path d="M426.657 126.616L441.145 126.386C441.145 126.386 450.109 124.637 449.221 119.572C448.334 114.504 443.654 115.383 442.182 115.541C440.71 115.699 436.854 117.9 425.591 118.344C425.586 118.344 427.408 123.263 426.657 126.616Z" fill="#262828"/>
<path d="M41.6079 129.261C41.6079 129.261 85.2009 219.591 96.1439 206.89L97.7821 184.377C97.7821 184.377 96.4083 198.976 57.999 119.786L41.6079 129.261Z" fill="#272828"/>
<path d="M63.6518 122.128C63.6518 122.128 69.4669 121.42 67.5897 128.16C65.7125 134.901 59.3259 138.365 53.9162 139.948C48.5066 141.531 36.3903 140.84 39.4834 134.155C39.4834 134.155 27.845 134.756 24.1546 124.564C24.1546 124.564 18.3012 130.682 11.0955 129.005C3.88973 127.329 4.44441 122.947 4.8625 120.306C5.2806 117.665 7.71234 116.019 11.2192 116.164C14.7261 116.309 21.0061 117.84 21.6673 115.374L21.8338 114.316C21.8338 114.316 1.45792 114.355 0.186568 106.031C-1.08478 97.7078 4.35475 96.8076 10.0204 98.7829C15.686 100.758 14.5085 102.196 24.7732 103.408C24.7732 103.408 14.2653 95.1181 11.4197 90.7452C8.57838 86.3722 8.12615 80.617 12.7977 77.6989C17.4693 74.7807 22.3244 80.1477 22.3244 80.1477C22.3244 80.1477 27.7383 90.6087 35.8656 96.7649L36.898 96.2487C36.898 96.2487 38.6899 94.3673 28.8603 83.4754C28.8603 83.4754 24.9652 77.1784 30.1658 74.3413C35.3664 71.5042 40.1062 75.9071 40.1062 75.9071L44.0782 80.8645C44.0782 80.8645 45.1447 86.176 55.0083 98.5568C55.0083 98.5568 58.7114 91.4235 65.8873 92.4218C73.0632 93.4159 76.1777 96.0738 74.885 101.688C73.5923 107.303 64.9147 106.343 65.0043 110.959C65.0043 110.972 67.3592 114.999 63.6518 122.128Z" fill="#252828"/>
<path d="M38.6514 94.6402L33.5446 86.5258C33.5446 86.5258 26.0615 78.8507 31.4669 76.4531C36.868 74.0554 41.1428 80.5487 41.1428 80.5487L44.1548 86.4362C44.1548 86.4362 50.7079 98.2965 53.1695 99.9049L53.8308 100.007C53.8308 100.007 52.9562 102.981 52.8282 103.774C52.7045 104.568 44.5857 104.372 44.0354 113.894C44.0354 113.894 47.474 104.15 52.9946 105.289C52.9946 105.289 53.5194 109.705 54.4494 109.85C54.4494 109.85 51.7829 100.903 60.9981 95.8561C70.2133 90.8134 76.4549 100.323 71.7876 103.241C67.116 106.159 62.2994 107.431 62.4444 113.408C62.5895 119.385 63.1313 111.62 63.7968 111.727C64.4581 111.829 65.7721 119.888 58.8906 124.76C58.8906 124.76 55.6994 127.776 48.0457 125.49C48.0457 125.49 52.4613 128.485 57.5467 127.256C62.6322 126.027 63.0886 123.122 63.0886 123.122C63.0886 123.122 68.6689 123.054 66.0281 128.591C63.3915 134.129 56.0961 137.312 56.0961 137.312C56.0961 137.312 45.375 141.578 40.6351 137.175C40.6351 137.175 39.1761 134.372 43.3186 133.941C47.4612 133.51 49.172 130.396 49.172 130.396C49.172 130.396 41.2537 134.969 34.1034 132.081C26.9531 129.193 24.7518 122.486 24.7518 122.486C24.7518 122.486 17.6143 128.131 14.0178 127.7C10.4171 127.269 6.35129 126.356 5.87347 122.491C5.39565 118.625 10.8139 117.853 10.8139 117.853C10.8139 117.853 22.5674 119.978 23.5657 116.206C24.564 112.435 24.8073 107.469 28.8474 103.369C32.8876 99.2692 40.0763 96.7478 47.5381 97.6523C47.5381 97.6523 43.1353 96.2828 38.7922 96.2742L38.6514 94.6402Z" fill="#262828"/>
<path d="M34.0011 97.4262C34.0011 97.4262 25.4046 90.7921 20.7117 81.7988C20.7117 81.7988 16.4881 75.8559 12.3626 80.4848C8.23707 85.1137 14.0733 91.1761 14.0733 91.1761L27.1538 102.981C27.1496 102.977 30.3321 99.1498 34.0011 97.4262Z" fill="#262828"/>
<path d="M23.0795 113.301L8.76614 111.044C8.76614 111.044 0.135444 108.062 1.7225 103.169C3.30956 98.2752 7.82325 99.7982 9.25672 100.161C10.6945 100.523 14.2056 103.241 25.2937 105.259C25.298 105.259 22.8065 109.871 23.0795 113.301Z" fill="#262828"/>
<path d="M131.618 32.1094L334.872 7.19429L357.006 2.44165L362.778 13.4444L364.331 30.0829L296.659 42.502L162.911 60.5314L164.639 73.471L214.627 78.6631L351.767 82.8056L358.034 87.6223L356.622 109.662L359.489 162.914L362.356 247.442L355.961 267.937L341.349 278.718L326.028 284.567L112.851 275.1L91.1054 268.112L80.2819 251.034L93.4091 131.629L99.5142 80.0837L95.2906 69.2346L100.747 32.0881L131.618 32.1094Z" fill="#14AEA5"/>
<path opacity="0.2" d="M96.4895 35.2535L97.0355 63.6456L99.3436 84.7467L97.3981 102.844L356.622 109.662L356.417 82.0803L164.17 76.4872L163.76 66.0604L162.911 60.5313L342.198 34.8354L360.679 32.6255L363.525 20.2234L358.93 6.11054L350.018 5.69244L131.618 32.1093L106.729 33.5385L96.4895 35.2535Z" fill="#252828"/>
<path d="M177.387 27.7405L155.671 57.5319L162.911 60.5311L178.607 56.9432L204.823 23.888L177.387 27.7405Z" fill="white"/>
<path d="M230.754 19.4853L204.473 53.1591L230.344 49.3791L254.367 18.0475L230.754 19.4853Z" fill="white"/>
<path d="M277.081 14.4425L253.932 46.6231L278.826 43.1888L300.23 12.2369L277.081 14.4425Z" fill="white"/>
<path d="M324.437 7.49702L301.1 40.4583L328.934 36.3072L350.018 5.69238L324.437 7.49702Z" fill="white"/>
<path d="M184.605 78.5007L160.458 103.595L182.472 104.158L208.279 80.0153L184.605 78.5007Z" fill="white"/>
<path d="M230.272 79.5887L205.467 104.696L228.121 104.261L251.309 80.8259L230.272 79.5887Z" fill="white"/>
<path d="M272.009 81.4103L249.837 106.466L273.156 106.675L293.033 81.662L272.009 81.4103Z" fill="white"/>
<path d="M312.09 82.2807L293.732 108.19L316.638 109.009L334.429 82.8353L312.09 82.2807Z" fill="white"/>
<path d="M127.441 30.9403C122.16 30.6246 116.882 30.3089 111.601 29.989C110.363 29.9164 109.13 29.8396 107.893 29.7671C107.586 29.7501 107.266 29.7031 106.959 29.7117C106.238 29.733 107.915 29.9762 107.65 29.814C107.04 29.4471 105.423 29.5367 104.676 29.5837C103.047 29.6903 101.472 30.0572 100.03 30.8465C94.6122 33.7988 94.928 40.1939 94.5611 45.531C94.1174 51.9987 93.6694 58.4707 93.2257 64.9384C93.0422 67.6005 92.8588 70.2627 92.6753 72.9248C92.6326 73.5648 92.5474 74.2175 92.5431 74.8575C92.5389 75.5742 92.6454 74.1791 92.6625 74.0938C92.5857 74.5375 92.509 74.9983 92.509 75.4548C92.509 83.9105 102.949 84.5505 109.062 84.7211C121.848 85.0837 134.668 85.8559 147.425 86.8287C152.489 87.2126 158.21 86.7348 162.527 83.8081C164.182 82.6818 165.62 81.2825 166.653 79.5546C167.169 78.6843 167.578 77.7116 167.886 76.7517C168.022 76.3208 168.125 75.8814 168.21 75.4377C168.295 74.9812 168.517 73.3344 168.351 74.4394C168.863 71.0903 168.739 67.8565 167.48 64.6525C166.38 61.8538 164.673 59.4477 162.497 57.3785C161.934 59.5159 161.367 61.6576 160.804 63.795C168.897 62.69 176.986 61.5808 185.079 60.4758C203.765 57.9203 222.456 55.3648 241.142 52.8093C262.23 49.9253 283.323 47.0413 304.411 44.1573C319.74 42.0625 335.069 39.9635 350.402 37.8688C353.286 37.4763 356.212 37.1862 359.079 36.6828C362.061 36.158 364.792 34.315 366.537 31.8704C369.732 27.3993 368.896 20.3514 368.043 15.2276C367.138 9.78385 364.625 3.73852 359.331 1.25128C356.34 -0.152327 353.251 -0.182191 350.064 0.231638C345.47 0.833184 340.879 1.46033 336.289 2.08321C319.475 4.36994 302.666 6.69079 285.857 9.00738C264.099 12.0066 242.341 15.0143 220.583 18.0263C200.629 20.7866 180.676 23.5511 160.723 26.32C149.784 27.8345 138.849 29.3533 127.911 30.8721C127.411 30.9403 126.917 31.0086 126.417 31.0811C124.361 31.367 123.239 33.9907 123.734 35.8039C124.344 38.0181 126.396 38.7732 128.457 38.4874C135.944 37.4464 143.431 36.4097 150.919 35.373C168.888 32.8815 186.858 30.39 204.823 27.9027C226.466 24.9035 248.109 21.9129 269.752 18.9222C288.489 16.3326 307.231 13.7472 325.973 11.1832C332.108 10.3427 338.243 9.50227 344.378 8.67461C344.911 8.60209 345.44 8.52956 345.973 8.4613C346.954 8.32904 344.983 8.59355 345.935 8.46557C346.191 8.43144 346.447 8.3973 346.707 8.36317C347.543 8.25225 348.375 8.14133 349.211 8.0304C349.813 7.94934 350.414 7.86829 351.016 7.79576C352.202 7.64644 353.738 7.53551 354.446 7.6635C356.485 8.03467 357.59 9.04578 358.682 10.9869C359.723 12.8385 360.316 15.1764 360.696 17.6893C360.7 17.7149 360.777 18.3335 360.828 18.8966C360.888 19.5451 360.931 20.1936 360.961 20.8421C361.012 21.9385 361.016 23.0392 360.982 24.1356C360.952 25.0401 360.961 26.0171 360.611 26.8532C360.193 27.8473 359.57 28.2739 358.93 28.6579C357.97 29.2338 359.152 28.7389 358.23 28.9949C357.966 29.0674 357.71 29.157 357.441 29.2168C357.356 29.2338 357.266 29.2509 357.181 29.268C356.954 29.3106 356.72 29.3277 356.494 29.3618C355.248 29.5367 353.998 29.7031 352.752 29.8738C339.655 31.6656 326.562 33.4574 313.464 35.2493C293.144 38.0309 272.819 40.8083 252.499 43.5899C232.853 46.2776 213.206 48.9654 193.564 51.6532C182.489 53.1677 171.41 54.6822 160.334 56.1967C159.805 56.2693 159.281 56.3418 158.752 56.4143C155.825 56.8154 155.159 61.0219 157.058 62.8308C159.993 65.6252 161.072 68.586 160.974 72.1868C160.94 73.3856 161.107 71.4658 160.94 72.3915C160.804 73.1509 160.816 73.4411 160.65 74.0853C160.3 75.4505 159.895 76.0862 158.901 76.9863C158.389 77.4514 157.007 78.151 156.192 78.4198C155.548 78.6289 154.891 78.7995 154.229 78.936C153.875 79.0086 153.521 79.0726 153.167 79.128C153.99 78.9958 152.996 79.1493 152.817 79.1664C151.055 79.32 149.319 79.3157 147.561 79.1835C136.277 78.3345 124.958 77.7031 113.653 77.2295C110.368 77.093 106.835 77.3532 103.588 76.8413C102.769 76.7133 101.873 76.4957 101.11 76.1629C101.434 76.3037 99.9322 75.459 100.551 75.8174C100.384 75.7193 100.175 75.4846 100.073 75.3268C100.67 76.2227 100.274 75.4803 100.137 75.3225C99.6805 74.7807 100.333 76.1374 100.218 75.5059C100.188 75.3438 100.133 75.186 100.103 75.0196C100.359 76.4019 100.167 75.6553 100.188 75.2628C100.21 74.9044 100.316 74.3882 100.065 76.1459C100.222 75.058 100.167 75.4675 100.201 75.1092C100.235 74.7465 100.252 74.3796 100.278 74.0127C100.423 71.9351 100.564 69.8531 100.709 67.7754C101.131 61.6149 101.558 55.4587 101.98 49.2982C102.129 47.1565 102.274 45.0148 102.424 42.8689C102.454 42.455 102.488 42.0455 102.509 41.6316C102.569 40.3432 102.697 38.9866 103.072 38.2741C103.601 37.263 102.658 38.7391 103.316 37.92C103.674 37.472 102.953 38.0266 103.776 37.5616C104.612 37.0881 103.025 37.7408 103.917 37.4848C104.177 37.408 104.446 37.3526 104.706 37.2758C105.551 37.0283 103.849 37.2886 104.676 37.28C104.962 37.2758 105.252 37.2715 105.542 37.263C106.554 37.2416 105.773 37.1521 105.534 37.2203C105.935 37.1094 106.895 37.391 107.424 37.4294C108.576 37.5147 109.732 37.5659 110.888 37.6384C116.409 37.9712 121.925 38.2997 127.446 38.6325C132.377 38.9183 132.36 31.2347 127.441 30.9403Z" fill="#1E2323"/>
<path d="M93.4305 102.912C92.2018 116.206 90.9774 129.496 89.7487 142.789C87.5516 166.617 85.3502 190.439 83.1531 214.267C82.3851 222.607 81.6129 230.944 80.8449 239.284C80.6658 241.242 80.4738 243.201 80.3031 245.163C80.2178 246.127 79.8638 246.046 80.3672 244.933C80.0984 245.526 80.0899 246.673 80.0301 247.207C79.1598 254.69 81.3313 262.378 86.1607 268.171C94.7658 278.491 109.203 279.822 121.695 280.198C144.033 280.868 166.363 281.781 188.692 282.664C216.253 283.752 243.808 284.886 271.364 286.03C287.96 286.721 304.556 287.416 321.152 288.125C333.571 288.654 347.355 283.649 355.653 274.293C360.048 269.34 362.996 263.273 364.348 256.797C365.841 249.66 365.38 242.48 365.112 235.257C364.566 220.555 364.024 205.854 363.478 191.152C362.526 165.486 361.579 139.82 360.628 114.15C360.572 112.652 360.517 111.159 360.461 109.662C360.385 107.546 358.764 105.877 356.622 105.822C347.931 105.6 339.237 105.383 330.546 105.161C309.735 104.632 288.924 104.103 268.113 103.578C243.147 102.947 218.181 102.311 193.21 101.679C171.87 101.138 150.535 100.596 129.195 100.054C119.331 99.8023 109.412 99.8322 99.5526 99.3031C98.789 99.2605 98.0253 99.1581 97.2659 99.077C95.201 98.8509 93.4305 100.993 93.4305 102.912C93.4305 105.169 95.201 106.534 97.2701 106.752C105.867 107.665 114.694 107.362 123.324 107.584C143.76 108.104 164.2 108.621 184.635 109.141C209.58 109.773 234.529 110.408 259.474 111.04C281.143 111.59 302.811 112.14 324.484 112.691C331.643 112.874 338.802 113.053 345.96 113.237C349.331 113.322 352.799 113.655 356.174 113.497C356.323 113.489 356.473 113.506 356.622 113.51C355.342 112.23 354.062 110.95 352.782 109.67C353.486 128.698 354.19 147.721 354.894 166.749C355.47 182.355 356.05 197.961 356.626 213.571C356.882 220.44 357.134 227.309 357.39 234.182C357.637 240.846 358.337 247.693 357.04 254.28C356.417 257.433 355.483 260.389 354.16 262.983C352.761 265.727 351.455 267.582 349.591 269.562C347.59 271.687 346.361 272.685 344.211 274.089C343.221 274.733 342.202 275.33 341.157 275.876C340.674 276.128 340.184 276.375 339.693 276.606C339.429 276.734 337.761 277.45 338.567 277.122C334.889 278.624 331.071 279.575 327.159 280.206C326.148 280.368 327.986 280.125 326.984 280.228C326.685 280.258 326.387 280.296 326.084 280.33C325.542 280.386 325 280.432 324.454 280.467C323.938 280.501 323.417 280.531 322.901 280.526C310.99 280.441 299.023 279.515 287.124 279.016C261.023 277.924 234.922 276.845 208.816 275.795C183.987 274.797 159.153 273.798 134.319 272.937C124.186 272.587 113.324 273.265 103.563 270.274C100.662 269.387 98.2429 268.312 95.632 266.516C94.7574 265.914 94.3563 265.611 93.2513 264.541C92.8162 264.122 92.4024 263.683 92.0013 263.231C91.8606 263.069 91.724 262.907 91.5875 262.744C91.3145 262.403 91.3187 262.42 91.6045 262.783C91.4808 262.621 91.3571 262.454 91.2377 262.288C90.6788 261.473 90.1497 260.645 89.6889 259.771C89.45 259.314 89.2325 258.845 89.0192 258.376C88.776 257.847 89.3391 259.255 89.0405 258.41C88.9381 258.116 88.8186 257.825 88.7205 257.531C88.4304 256.686 88.1915 255.825 87.9952 254.95C87.9099 254.557 87.8416 254.161 87.7648 253.768C87.5089 252.45 87.7606 254.203 87.6795 253.201C87.5644 251.789 87.4875 250.389 87.5601 248.973C87.5857 248.499 87.6369 248.034 87.671 247.561C87.7521 246.417 87.4833 248.687 87.7009 247.369C87.8587 246.417 87.9569 245.47 88.0465 244.51C88.5968 238.525 89.1514 232.539 89.7018 226.554C91.7837 203.989 93.8657 181.429 95.9477 158.865C97.5816 141.147 99.2156 123.433 100.854 105.715C100.939 104.785 101.024 103.855 101.11 102.921C101.302 100.852 99.207 99.0813 97.2701 99.0813C95.0346 99.0728 93.6182 100.839 93.4305 102.912Z" fill="#1E2323"/>
<path d="M95.504 84.7467C94.8555 90.7793 94.2027 96.8118 93.5542 102.844C93.3281 104.948 95.4997 106.633 97.3939 106.684C105.982 106.91 114.574 107.136 123.162 107.362C143.794 107.904 164.421 108.446 185.053 108.992C210.015 109.649 234.977 110.306 259.935 110.963C281.518 111.53 303.101 112.098 324.684 112.665C335.154 112.943 345.696 113.6 356.17 113.493C356.319 113.493 356.468 113.501 356.613 113.506C358.678 113.561 360.47 111.701 360.453 109.666C360.385 100.472 360.316 91.2784 360.248 82.0846C360.231 79.9642 358.499 78.3046 356.409 78.2449C350.052 78.0615 343.691 77.8737 337.334 77.6903C321.992 77.2423 306.647 76.7986 291.305 76.3507C272.811 75.8131 254.316 75.2756 235.822 74.738C219.832 74.273 203.842 73.808 187.852 73.343C180.096 73.1168 172.259 72.5409 164.498 72.6646C164.387 72.6646 164.272 72.6561 164.161 72.6561C162.348 72.6049 161.06 73.9104 160.458 75.4761C160.983 74.1066 160.812 74.7935 160.505 75.2671C160.373 75.4676 160.253 75.6894 160.13 75.8985C160.053 76.0264 159.963 76.1416 159.882 76.2654C159.417 76.9821 160.125 76.0051 159.857 76.2952C158.474 77.8055 157.591 78.5222 155.782 79.1323C151.111 80.7066 145.607 79.3286 140.791 78.9318C129.826 78.0273 118.836 77.3661 107.855 76.7218C105.073 76.5597 102.292 76.3976 99.5057 76.2483C97.3811 76.1331 95.7386 78.1041 95.666 80.0879C95.6191 81.6366 95.5637 83.1895 95.504 84.7467C95.3248 89.6914 103.004 89.6828 103.183 84.7467C103.239 83.1938 103.294 81.6366 103.35 80.0837C102.07 81.3636 100.79 82.6434 99.51 83.9233C107.556 84.3585 115.602 84.8449 123.64 85.3696C129.574 85.7578 135.513 86.1631 141.439 86.658C147.088 87.1316 152.996 88.3603 158.474 86.2997C162.617 84.7382 166.256 81.7049 167.864 77.5069C166.631 78.4454 165.394 79.384 164.161 80.3269C170.518 80.5103 176.879 80.698 183.236 80.8815C198.577 81.3294 213.923 81.7731 229.265 82.2211C247.759 82.7586 266.253 83.2962 284.748 83.8337C300.738 84.2988 316.728 84.7638 332.718 85.2288C337.991 85.3824 343.268 85.536 348.541 85.6896C351.016 85.7621 353.597 86.0522 356.072 85.9072C356.182 85.8986 356.298 85.9157 356.409 85.9157C355.129 84.6358 353.849 83.3559 352.569 82.076C352.637 91.2699 352.705 100.464 352.774 109.658C354.054 108.378 355.333 107.098 356.613 105.818C348.025 105.592 339.433 105.366 330.845 105.14C310.213 104.598 289.586 104.056 268.954 103.51C243.992 102.853 219.03 102.196 194.072 101.539C172.489 100.971 150.906 100.404 129.323 99.8366C122.207 99.6489 115.09 99.4611 107.974 99.2734C104.625 99.1838 101.182 98.8553 97.8333 99.0046C97.6883 99.0132 97.5347 98.9961 97.3896 98.9918C98.6695 100.272 99.9494 101.552 101.229 102.832C101.878 96.799 102.531 90.7665 103.179 84.7339C103.401 82.6691 101.255 80.8943 99.3394 80.8943C97.0825 80.9071 95.7301 82.6733 95.504 84.7467Z" fill="#1E2323"/>
<path d="M161.981 57.2035C153.116 50.0106 144.251 42.8176 135.385 35.6247C134.118 34.5965 132.851 33.5683 131.588 32.5444C129.98 31.2389 127.731 30.9701 126.157 32.5444C124.809 33.8925 124.54 36.6614 126.157 37.9754C135.022 45.1683 143.888 52.3613 152.753 59.5542C154.02 60.5824 155.287 61.6106 156.55 62.6345C158.159 63.94 160.407 64.2088 161.981 62.6345C163.329 61.2821 163.602 58.5175 161.981 57.2035Z" fill="#1E2323"/>
<path d="M112.923 54.6012C116.46 54.6012 119.327 51.7342 119.327 48.1975C119.327 44.6609 116.46 41.7938 112.923 41.7938C109.386 41.7938 106.519 44.6609 106.519 48.1975C106.519 51.7342 109.386 54.6012 112.923 54.6012Z" fill="#1E2323"/>
<path d="M146.823 75.6211C150.36 75.6211 153.227 72.7541 153.227 69.2174C153.227 65.6807 150.36 62.8137 146.823 62.8137C143.286 62.8137 140.419 65.6807 140.419 69.2174C140.419 72.7541 143.286 75.6211 146.823 75.6211Z" fill="#1E2323"/>
<path d="M232.609 173.473C232.609 173.473 262.004 134.257 288.771 175.866C288.767 175.866 266.471 153.75 232.609 173.473Z" fill="#1E2323"/>
<path d="M232.52 173.66C232.52 173.66 251.633 141.932 288.481 163.98C288.481 163.98 255.396 153.489 232.52 173.66Z" fill="#1E2323"/>
<path d="M212.033 170.495C212.033 170.495 181.145 132.444 156.008 175.056C156.008 175.056 177.434 152.094 212.033 170.495Z" fill="#1E2323"/>
<path d="M212.131 170.678C212.131 170.678 191.807 139.709 155.838 163.165C155.838 163.165 188.487 151.407 212.131 170.678Z" fill="#1E2323"/>
<path d="M152.135 196.809C152.135 196.809 156.815 184.249 170.279 184.974C170.279 184.974 150.821 179.77 152.135 196.809Z" fill="#1E2323"/>
<path d="M270.481 191.57C270.481 191.57 285.588 192.261 289.121 205.32C289.121 205.316 289.756 187.261 270.481 191.57Z" fill="#1E2323"/>
<path d="M157.527 187.189C157.527 187.189 155.872 254.481 217.302 258.218C278.728 261.955 284.01 195.576 284.01 195.576C284.01 195.576 263.216 223.209 218.526 219.809C173.837 216.404 159.17 187.487 159.17 187.487L157.527 187.189Z" fill="#1E2323"/>
<path d="M185.203 244.071C185.203 244.071 201.065 232.936 214.631 238.909C214.631 238.909 240.353 228.567 252.823 245.718C252.823 245.718 243.501 255.739 224.781 254.788C206.061 253.841 198.164 252.68 185.203 244.071Z" fill="#F197B1"/>
</svg>
