<?xml version="1.0" encoding="UTF-8" standalone="no"?>
<!-- Created with Inkscape (http://www.inkscape.org/) -->

<svg
   width="35"
   height="35"
   viewBox="0 0 9.2604164 9.2604169"
   version="1.1"
   id="svg2456"
   inkscape:version="1.1.2 (1:1.1+202202050950+0a00cf5339)"
   sodipodi:docname="icon_blenderperu.svg"
   xmlns:inkscape="http://www.inkscape.org/namespaces/inkscape"
   xmlns:sodipodi="http://sodipodi.sourceforge.net/DTD/sodipodi-0.dtd"
   xmlns="http://www.w3.org/2000/svg"
   xmlns:svg="http://www.w3.org/2000/svg">
  <sodipodi:namedview
     id="namedview2458"
     pagecolor="#ffffff"
     bordercolor="#666666"
     borderopacity="1.0"
     inkscape:pageshadow="2"
     inkscape:pageopacity="0.0"
     inkscape:pagecheckerboard="0"
     inkscape:document-units="mm"
     showgrid="false"
     units="px"
     width="120px"
     inkscape:zoom="3.1643098"
     inkscape:cx="77.58406"
     inkscape:cy="57.200468"
     inkscape:window-width="1920"
     inkscape:window-height="1043"
     inkscape:window-x="0"
     inkscape:window-y="0"
     inkscape:window-maximized="1"
     inkscape:current-layer="layer1" />
  <defs
     id="defs2453">
    <clipPath
       clipPathUnits="userSpaceOnUse"
       id="clipPath1326">
      <path
         d="M 153.832,269.327 H 168.96 V 256.924 H 153.832 Z"
         id="path1324" />
    </clipPath>
    <clipPath
       clipPathUnits="userSpaceOnUse"
       id="clipPath1330">
      <path
         d="M 153.832,269.327 H 168.96 V 256.924 H 153.832 Z"
         id="path1328" />
    </clipPath>
    <clipPath
       clipPathUnits="userSpaceOnUse"
       id="clipPath1334">
      <path
         d="m 155.109,269.155 h 13.7 v -12.231 h -13.7 z"
         id="path1332" />
    </clipPath>
    <clipPath
       clipPathUnits="userSpaceOnUse"
       id="clipPath1370">
      <path
         d="m 132.458,269.327 h 15.128 v -12.403 h -15.128 z"
         id="path1368" />
    </clipPath>
    <clipPath
       clipPathUnits="userSpaceOnUse"
       id="clipPath1374">
      <path
         d="m 132.458,269.327 h 15.128 v -12.403 h -15.128 z"
         id="path1372" />
    </clipPath>
    <clipPath
       clipPathUnits="userSpaceOnUse"
       id="clipPath1378">
      <path
         d="m 134.151,269.327 h 13.435 v -12.403 h -13.435 z"
         id="path1376" />
    </clipPath>
  </defs>
  <g
     inkscape:label="Capa 1"
     inkscape:groupmode="layer"
     id="layer1">
    <g
       id="g20092"
       transform="matrix(1.4327808,0,0,1.4327808,-59.61382,-91.004631)">
      <rect
         style="opacity:1;fill:#ff5555;fill-opacity:1;stroke-width:0.287091;stroke-linejoin:round"
         id="rect19972"
         width="6.3499999"
         height="6.3499999"
         x="41.607075"
         y="63.516087"
         ry="0.77456385" />
      <g
         id="g20090"
         transform="matrix(0.5032696,0,0,0.5032696,2.4572927,29.714839)">
        <path
           id="path19974"
           style="fill:#ff5555;fill-opacity:1;stroke-width:0.158573"
           d="m 85.726562,68.367188 c -0.06874,0.0064 -0.135334,0.04561 -0.175781,0.101562 -0.357693,0.500296 -0.682368,0.652885 -1.123047,0.789062 -0.439307,0.135752 -0.992789,0.231314 -1.664062,0.574219 -0.09578,0.04892 -0.16513,0.115022 -0.236328,0.169922 -0.01657,-0.0039 -0.03182,-0.0114 -0.04883,-0.01172 a 0.07168415,0.07168415 0 0 0 -0.01758,0.002 c -1.343968,0.3101 -1.994444,1.414142 -2.103516,2.583984 -0.206593,-0.104357 -0.431845,-0.184243 -0.664063,-0.205078 -0.293745,-0.02636 -0.603263,0.02684 -0.832031,0.234375 -0.376787,0.341813 -0.585937,0.910074 -0.585937,1.476562 a 0.07168415,0.07168415 0 0 0 0,0.002 c 3.09e-4,0.01582 0.0025,0.03141 0.0059,0.04687 0.15891,0.828492 0.470298,1.329252 0.904297,1.605469 0.211692,0.134732 0.447523,0.198437 0.6875,0.246094 -0.04357,0.0157 -0.102738,0.04105 -0.132813,0.04883 -0.0902,0.02329 -0.163995,0.103485 -0.179687,0.195312 -0.01569,0.09183 0.02812,0.190269 0.105469,0.242188 0.472816,0.324072 0.925173,0.409219 1.257812,0.398438 0.984174,1.155407 2.147775,1.731679 3.273438,1.708984 1.122827,-0.02264 2.174772,-0.645716 2.93164,-1.753906 0.05265,-0.006 0.125759,-0.01421 0.216797,-0.03516 0.19852,-0.0457 0.463105,-0.15288 0.695313,-0.404297 0.06368,-0.06767 0.08228,-0.173856 0.04687,-0.259765 -0.01873,-0.04545 -0.05255,-0.0807 -0.09375,-0.107422 0.03554,-0.0041 0.07767,-0.0098 0.109375,-0.01367 0.10556,-0.01289 0.170329,-0.01963 0.226562,-0.03125 0.961188,-0.198551 1.594109,-0.937695 1.59375,-1.882812 -1.75e-4,-0.563916 -0.174526,-1.162835 -0.591797,-1.490235 -0.01044,-0.0083 -0.02155,-0.01503 -0.0332,-0.02148 -0.340204,-0.187849 -0.686771,-0.216501 -0.990234,-0.15625 -0.08101,0.01608 -0.150935,0.04547 -0.222656,0.07227 0.01965,-0.101134 0.04133,-0.20141 0.03906,-0.310547 -0.0068,-0.331606 -0.09656,-0.685819 -0.234375,-1.111329 a 0.07168415,0.07168415 0 0 0 -0.002,-0.0059 c -0.02562,-0.05967 -0.08032,-0.101337 -0.140625,-0.125 -7.23e-4,-0.07073 0.0043,-0.142673 -0.02734,-0.257812 -0.269918,-0.983916 -1.261343,-1.731498 -1.804687,-2.25 -0.05071,-0.04711 -0.122573,-0.06976 -0.191407,-0.0625 z" />
        <g
           id="g20088"
           transform="matrix(0.43849774,0,0,0.43849774,43.309562,0.90226801)">
          <g
             id="g19978"
             transform="matrix(0.36162661,0,0,-0.36162661,87.1892,172.31697)">
            <path
               d="M 0,0 C 5.3,-11.226 23.798,-14.091 32.129,-0.186 43.575,18.194 34.478,31.134 15.312,23.807 -5.058,33.704 -10.158,12.866 0,0"
               style="fill:#ffffff;fill-opacity:1;fill-rule:nonzero;stroke:none"
               id="path19976" />
          </g>
          <g
             id="g19982"
             transform="matrix(0.36162661,0,0,-0.36162661,89.195576,163.92871)">
            <path
               d="m 0,0 c 0.944,0.004 1.924,-0.118 2.854,-0.371 1.911,-0.521 4.237,-1.636 6.205,-2.976 l 1.526,-1.04 1.725,1.155 c 0.948,0.635 2.357,1.446 3.13,1.803 6,2.772 11.037,1.411 12.898,-3.486 0.52,-1.367 0.711,-2.562 0.562,-3.98 -0.228,-3.169 -2.028,-6.053 -4.962,-7.949 -0.662,-0.428 -1.197,-0.837 -1.192,-0.91 0.649,-1.676 2.313,-3.699 1.652,-5.434 -4.789,-12.569 -24.218,-10.089 -27.39,-0.783 -0.509,1.492 -0.214,3.15 0.842,4.924 0.598,1.192 0.643,1.376 0.375,1.545 -2.344,1.476 -3.271,2.317 -4.358,3.955 -0.915,1.378 -1.478,3.022 -1.593,4.652 -0.119,1.694 0.075,2.425 0.543,3.967 0.786,1.995 2.133,3.474 3.904,4.287 C -2.367,-0.222 -1.214,-0.006 0,0 Z M 2.8517276,17.255215 C -1.4963606,15.034113 -4.4741785,9.2593331 -4.4741785,9.2593331 -3.7925241,11.488049 -2.0017569,14.325525 0.5844299,16.11766 -7.5962012,14.230089 -11.263732,7.5158738 -11.632,0.238 c -0.028,-0.762 -0.078,-1.385 -0.11,-1.385 -0.034,0 -0.488,0.294 -1.014,0.656 -2.687429,1.6814161 -6.632955,2.3286778 -8.662,0.488 -1.93029,-1.751091 -3.189,-5.004 -3.189,-8.178 1.91,-9.98 6.971,-10.642 13.541,-11.173 0.154,-0.479 -3.585,-2.128 -5.46,-2.613 3.058,-2.099 6.115,-2.512 7.791,-2.305 12.159,-14.768 28.396,-13.86 37.554,0.18 0.179,0.317 3.035,-0.21 5.487,2.445 -2.062,0.097 -4.948,0.779 -4.265,2.117 1.429141,0.135715 6.321,0.816 6.912,0.938 5.485,1.133 8.828,5.059 8.826,10.366 -0.001,3.209 -1.125638,6.6059721 -3.156,8.199 -3.656916,2.0191968 -6.987778,0.51906433 -9.653,-1.081 2.124342,2.993508 1.759245,6.1931946 0.05728,11.448393 C 32.546949,8.5632135 32.13215,7.8609396 31.57963,7.0523622 32.042014,8.4553028 32.870201,9.4821466 31.946843,12.848075 30.457111,18.278602 24.520747,22.952292 20.97855,26.332527 16.098255,19.506563 10.914575,21.3739 2.8517276,17.255215 Z"
               style="fill:#05245e;fill-opacity:1;fill-rule:nonzero;stroke:none"
               id="path19980"
               sodipodi:nodetypes="cccccccccccccccccccscccscscccccccccccccscs" />
          </g>
          <g
             id="g19986"
             transform="matrix(0.36162661,0,0,-0.36162661,104.49206,166.90899)">
            <path
               d="m 0,0 c -0.194,3.661 -3.645,6.012 -7.879,4.052 0.072,-0.168 0.388,-1.054 0.704,-1.967 l 0.573,-1.661 c 3.248,3.361 5.207,-4.316 0.341,-2.512 0.085,-0.579 0.161,-1.848 0.169,-2.822 0.006,-0.918 0.08,-1.097 0.119,-1.737 C -2.461,-6.359 0.287,-3.67 0,0 Z"
               style="fill:#ffffff;fill-opacity:1;fill-rule:nonzero;stroke:none"
               id="path19984" />
          </g>
          <g
             id="g19990"
             transform="matrix(0.36162661,0,0,-0.36162661,94.2036,167.01035)">
            <path
               d="M 0,0 C 3.491,1.745 3.723,4.055 5.062,5.635 6.908,7.813 9.109,8.842 12.292,9.474 9.233,7.88 7.526,6.651 5.108,3.028 3.593,0.759 1.821,0.287 0,0"
               style="fill:#05245e;fill-opacity:1;fill-rule:evenodd;stroke:none"
               id="path19988" />
          </g>
          <g
             id="g19994"
             transform="matrix(0.36162661,0,0,-0.36162661,91.621296,166.78213)">
            <path
               d="M 0,0 C -3.491,1.745 -3.736,3.662 -5.075,5.242 -6.921,7.42 -10.106,9.262 -13.026,7.166 -9.482,6.897 -7.604,6.18 -5.187,2.556 -3.672,0.287 -1.821,0.287 0,0"
               style="fill:#05245e;fill-opacity:1;fill-rule:evenodd;stroke:none"
               id="path19992" />
          </g>
          <g
             id="g19998"
             transform="matrix(0.36162661,0,0,-0.36162661,96.666384,166.60511)">
            <path
               d="m 0,0 c 1.339,0 2.424,-1.693 2.424,-3.782 0,-2.089 -1.085,-3.783 -2.424,-3.783 -1.339,0 -2.424,1.694 -2.424,3.783 C -2.424,-1.693 -1.339,0 0,0"
               style="fill:#05245e;fill-opacity:1;fill-rule:nonzero;stroke:none"
               id="path19996" />
          </g>
          <g
             id="g20002"
             transform="matrix(0.36162661,0,0,-0.36162661,89.945482,166.60511)">
            <path
               d="m 0,0 c 1.339,0 2.424,-1.693 2.424,-3.782 0,-2.089 -1.085,-3.783 -2.424,-3.783 -1.339,0 -2.424,1.694 -2.424,3.783 C -2.424,-1.693 -1.339,0 0,0"
               style="fill:#05245e;fill-opacity:1;fill-rule:nonzero;stroke:none"
               id="path20000" />
          </g>
          <g
             id="g20006"
             transform="matrix(0.36162661,0,0,-0.36162661,93.244566,166.99516)">
            <path
               d="m 0,0 c -1.293,-0.008 -2.576,-0.216 -3.732,-0.606 -0.411,-0.14 -0.632,-0.587 -0.492,-0.998 0.139,-0.412 0.586,-0.632 0.998,-0.493 1.948,0.658 4.506,0.699 6.513,0.012 0.411,-0.14 0.857,0.078 0.998,0.488 0.14,0.412 -0.081,0.858 -0.492,0.998 C 2.595,-0.19 1.293,0.005 0,-0.002 Z"
               style="fill:#80b3ff;fill-opacity:1;fill-rule:nonzero;stroke:none"
               id="path20004" />
          </g>
          <g
             id="g20038"
             transform="matrix(0.36162661,0,0,-0.36162661,38.741722,263.48022)">
            <g
               id="g20008" />
            <g
               id="g20036">
              <g
                 clip-path="url(#clipPath1326)"
                 opacity="0.800003"
                 id="g20034">
                <g
                   id="g20020">
                  <g
                     id="g20010" />
                  <g
                     id="g20018">
                    <g
                       clip-path="url(#clipPath1330)"
                       opacity="0.800003"
                       id="g20016">
                      <g
                         transform="translate(154.1689,266.5178)"
                         id="g20014">
                        <path
                           d="M 0,0 C 1.983,3.505 12.717,3.757 14.306,0.607 16.212,-3.171 12.25,-9.74 6.745,-9.591 1.157,-9.44 -1.291,-2.282 0,0"
                           style="fill:#f45a60;fill-opacity:1;fill-rule:nonzero;stroke:none"
                           id="path20012" />
                      </g>
                    </g>
                  </g>
                </g>
                <g
                   id="g20032">
                  <g
                     id="g20022" />
                  <g
                     id="g20030">
                    <g
                       clip-path="url(#clipPath1334)"
                       opacity="0.800003"
                       id="g20028">
                      <g
                         transform="translate(160.485,263.6744)"
                         id="g20026">
                        <path
                           d="M 0,0 C 2.223,5.033 3.958,5.481 3.958,5.481 5.155,5.378 7.603,4.497 7.99,3.45 9.458,-0.519 5.933,-6.897 0.428,-6.748 -2.054,-6.681 -3.917,-5.23 -5.108,-3.438 -6.596,-1.198 -1.473,-2.856 0,0"
                           style="fill:#f12f3b;fill-opacity:1;fill-rule:nonzero;stroke:none"
                           id="path20024" />
                      </g>
                    </g>
                  </g>
                </g>
              </g>
            </g>
          </g>
          <g
             id="g20070"
             transform="matrix(0.36162661,0,0,-0.36162661,38.741722,263.48022)">
            <g
               id="g20040" />
            <g
               id="g20068">
              <g
                 clip-path="url(#clipPath1370)"
                 opacity="0.800003"
                 id="g20066">
                <g
                   id="g20052">
                  <g
                     id="g20042" />
                  <g
                     id="g20050">
                    <g
                       clip-path="url(#clipPath1374)"
                       opacity="0.800003"
                       id="g20048">
                      <g
                         transform="translate(132.7951,266.5178)"
                         id="g20046">
                        <path
                           d="M 0,0 C 1.983,3.505 12.717,3.757 14.306,0.607 16.212,-3.171 12.25,-9.74 6.745,-9.591 1.157,-9.44 -1.291,-2.282 0,0"
                           style="fill:#2db0e8;fill-opacity:1;fill-rule:nonzero;stroke:none"
                           id="path20044" />
                      </g>
                    </g>
                  </g>
                </g>
                <g
                   id="g20064">
                  <g
                     id="g20054" />
                  <g
                     id="g20062">
                    <g
                       clip-path="url(#clipPath1378)"
                       opacity="0.800003"
                       id="g20060">
                      <g
                         transform="translate(140.0322,262.1957)"
                         id="g20058">
                        <path
                           d="M 0,0 C 0.975,1.724 -3.169,6.983 -0.088,7.115 3.094,7.252 6.262,6.53 7.069,4.929 8.975,1.151 5.013,-5.418 -0.492,-5.269 -2.665,-5.211 -4.363,-4.092 -5.551,-2.613 -7.418,-0.288 -0.789,-1.394 0,0 Z"
                           style="fill:#0698e1;fill-opacity:1;fill-rule:nonzero;stroke:none"
                           id="path20056" />
                      </g>
                    </g>
                  </g>
                </g>
              </g>
            </g>
          </g>
          <g
             id="g20074"
             transform="matrix(0.36162661,0,0,-0.36162661,93.450331,169.92994)">
            <path
               d="M 0,0 C 0.097,1.602 1.216,2.98 2.86,1.907 2.972,1.83 3.237,1.602 3.203,1.321 3.105,0.52 2.163,0.724 1.043,0.943 0.518,1.045 0.438,0.627 0,0 Z"
               style="fill:#05245e;fill-opacity:1;fill-rule:nonzero;stroke:none"
               id="path20072" />
          </g>
          <g
             id="g20078"
             transform="matrix(0.36162661,0,0,-0.36162661,92.895811,169.92994)">
            <path
               d="M 0,0 C -0.097,1.602 -1.216,2.98 -2.86,1.907 -2.972,1.83 -3.237,1.602 -3.203,1.321 -3.105,0.52 -2.163,0.724 -1.043,0.943 -0.518,1.045 -0.438,0.627 0,0 Z"
               style="fill:#05245e;fill-opacity:1;fill-rule:nonzero;stroke:none"
               id="path20076" />
          </g>
          <g
             id="g20082"
             transform="matrix(0.34270758,0.11543535,0.11543535,-0.34270758,94.742323,171.69911)">
            <path
               d="m 0,0 c -0.154,-2.667 -2.042,-5.095 -4.936,-5.084 -0.435,0.002 -0.438,-0.649 -0.003,-0.651 3.258,-0.012 6.174,2.567 6.343,5.554 C 1.481,0.532 0.07,0.688 0,0 Z"
               style="fill:#05245e;fill-opacity:1;fill-rule:evenodd;stroke:none"
               id="path20080" />
          </g>
          <g
             id="g20086"
             transform="matrix(0.36162661,0,0,-0.36162661,82.066071,167.64728)">
            <path
               d="M 0,0 C -0.741,3.591 2,6.74 6.593,5.918 6.565,5.737 6.485,4.801 6.412,3.837 L 6.278,2.085 C 2.284,4.513 2.337,-3.41 6.586,-0.431 6.649,-1.013 6.899,-2.26 7.139,-3.203 7.366,-4.093 7.339,-4.285 7.464,-4.914 3.994,-5.527 0.654,-3.623 0,0 Z"
               style="fill:#ffffff;fill-opacity:1;fill-rule:nonzero;stroke:none"
               id="path20084" />
          </g>
        </g>
      </g>
    </g>
  </g>
</svg>
