<svg width="86" height="107" viewBox="0 0 86 107" fill="none" xmlns="http://www.w3.org/2000/svg">
<path d="M43.2845 58.0344C45.9848 58.0344 48.1738 55.8454 48.1738 53.1452C48.1738 50.4449 45.9848 48.2559 43.2845 48.2559C40.5842 48.2559 38.3952 50.4449 38.3952 53.1452C38.3952 55.8454 40.5842 58.0344 43.2845 58.0344Z" fill="#AF2A31"/>
<path d="M41.0103 20.2221V33.046C41.0103 33.7892 41.3959 34.4821 42.0217 34.8788L84.4105 61.6721C85.0251 62.0633 85.3995 62.7394 85.3995 63.4714V80.7488L70.3181 89.9909V67.204L51.5377 55.3356C51.1018 55.0618 50.8727 54.5589 50.9342 54.0448C50.9677 53.7655 50.9845 53.4861 50.9845 53.1955C51.0068 49.4238 48.2297 46.1046 44.5027 45.5403C42.5358 45.2441 40.6918 45.68 39.1943 46.6243C38.7585 46.8981 38.2053 46.9093 37.7694 46.6299L22.7048 37.1083C22.1405 36.7563 21.794 36.1361 21.794 35.4655V13.3436C21.794 12.6451 22.1516 11.9913 22.7439 11.6114L40.7756 0.0670504C40.8483 0.0223483 40.9321 0 41.0103 0C41.0886 0 41.1668 0.0167722 41.2338 0.0614743L84.3267 27.6483C84.9972 28.0785 85.3995 28.8161 85.3995 29.6095V48.6415L41.0103 20.2221Z" fill="#878788"/>
<path d="M85.3995 29.6095V48.6415L41.0103 20.2221V0C41.0886 0 41.1668 0.0167722 41.2338 0.0614743L84.3267 27.6483C84.9972 28.0785 85.3995 28.8161 85.3995 29.6095Z" fill="#AF2A31"/>
<path d="M85.3995 77.9103V80.7488L70.3181 89.991V67.2041L84.4049 76.111C85.0251 76.5021 85.3995 77.1838 85.3995 77.9103Z" fill="#3E3D3C"/>
<path d="M64.5515 70.6182V92.7401C64.5515 93.4386 64.1939 94.0924 63.6016 94.4723L45.5699 106.017C45.4973 106.061 45.4135 106.084 45.3352 106.084C45.257 106.084 45.1788 106.067 45.1117 106.022L2.01889 78.4354C1.34836 78.0052 0.946045 77.2676 0.946045 76.4742V57.4422L45.3352 85.8616V73.0377C45.3352 72.2945 44.9497 71.6016 44.3238 71.2049L1.93508 44.4116C1.32043 44.0204 0.946045 43.3443 0.946045 42.6123V25.3349L16.0274 16.0928V38.8797L35.0426 50.899C35.484 51.1783 35.7131 51.6812 35.6461 52.2009C35.5511 52.9608 35.5678 53.7543 35.7187 54.5645C36.3278 57.8557 39.0769 60.4317 42.4017 60.7949C44.2568 60.996 45.989 60.549 47.4027 59.6494C47.8441 59.37 48.4029 59.3532 48.8443 59.6326L63.6352 68.981C64.2051 69.3274 64.5515 69.9476 64.5515 70.6182Z" fill="#878788"/>
<path d="M0.946106 76.4797V57.4478L45.3353 85.8671V106.089C45.2571 106.089 45.1788 106.072 45.1118 106.028L2.01896 78.441C1.34842 78.0107 0.946106 77.2731 0.946106 76.4797Z" fill="#AF2A31"/>
<path d="M0.946045 28.1735V25.3349L16.0274 16.0928V38.8797L1.94067 29.9728C1.32042 29.5872 0.946045 28.9055 0.946045 28.1735Z" fill="#3E3D3C"/>
</svg>
