<?xml version="1.0" encoding="UTF-8" standalone="no"?>
<svg
   width="220"
   height="52"
   viewBox="0 0 220 52"
   fill="none"
   version="1.1"
   id="svg950"
   sodipodi:docname="logo.svg"
   inkscape:version="1.1.2 (0a00cf5339, 2022-02-04)"
   xmlns:inkscape="http://www.inkscape.org/namespaces/inkscape"
   xmlns:sodipodi="http://sodipodi.sourceforge.net/DTD/sodipodi-0.dtd"
   xmlns="http://www.w3.org/2000/svg"
   xmlns:svg="http://www.w3.org/2000/svg">
  <defs
     id="defs954" />
  <sodipodi:namedview
     id="namedview952"
     pagecolor="#ffffff"
     bordercolor="#666666"
     borderopacity="1.0"
     inkscape:pageshadow="2"
     inkscape:pageopacity="0.0"
     inkscape:pagecheckerboard="0"
     showgrid="false"
     showguides="false"
     inkscape:guide-bbox="true"
     inkscape:zoom="1.2839674"
     inkscape:cx="250.00635"
     inkscape:cy="-89.566137"
     inkscape:window-width="1920"
     inkscape:window-height="1043"
     inkscape:window-x="1920"
     inkscape:window-y="0"
     inkscape:window-maximized="1"
     inkscape:current-layer="svg950"
     inkscape:snap-global="false">
    <sodipodi:guide
       position="83.8709,22.355556"
       orientation="0,-1"
       id="guide1072" />
  </sodipodi:namedview>
  <g
     id="g1669"
     transform="translate(1.4481707)"
     style="fill:#ffffff">
    <path
       id="path928"
       d="m 58.875,26.949219 c -1.8286,0 -3.328125,1.499525 -3.328125,3.328125 v 14.658203 c 0,1.8286 1.499525,3.328125 3.328125,3.328125 h 56.59766 c 1.829,0 3.32812,-1.469525 3.32812,-3.328125 V 30.277344 c 0,-1.8286 -1.49912,-3.328125 -3.32812,-3.328125 z m 17.65625,2.695312 H 88.613281 V 45.564453 H 76.53125 Z m 13.130859,0 h 4.226563 v 11.388672 h 3.357422 v -1.166015 h 4.226566 v 5.697265 H 89.662109 Z m 12.589841,0 h 4.19727 v 11.388672 h 3.35742 v -1.166015 h 4.22656 v 5.697265 h -11.78125 z m -41.9082,0.0039 h 15.138672 v 6.384765 H 71.255859 V 33.875 h -6.714843 v 7.494141 h 6.714843 v -2.158203 h 4.226563 v 6.353515 H 60.34375 Z m 19.724609,4.677734 v 6.59375 h 5.007813 v -6.59375 z"
       style="fill:#ffffff" />
  </g>
  <g
     aria-label="MECANIZADOS"
     transform="scale(0.97435953,1.0263152)"
     id="text2357"
     style="font-weight:800;font-size:23.1148px;line-height:1.25;font-family:Armstrong;-inkscape-font-specification:'Armstrong, Ultra-Bold';letter-spacing:-1.84919px;fill:#ffffff;stroke-width:0.577873">
    <path
       d="M 73.12655,6.1889736 H 72.964747 L 67.278506,14.718335 61.592265,6.1889736 h -0.161803 -2.93558 V 6.720614 22.369333 h 2.93558 V 11.112426 l 4.368697,6.610833 h 2.935579 l 4.391812,-6.610833 v 11.256907 h 2.93558 V 6.1889736 Z"
       id="path12863"
       style="fill:#ffffff" />
    <path
       d="M 77.310314,9.2863568 V 19.27195 c 0,1.710495 1.386888,3.097383 3.097383,3.097383 h 9.985594 v -2.750661 h -9.477068 c -0.369837,0 -0.670329,-0.300492 -0.670329,-0.693444 v -3.259187 h 8.760509 V 12.892265 H 80.245894 V 9.6330787 c 0,-0.3929515 0.300492,-0.6934439 0.670329,-0.6934439 h 9.477068 V 6.1889736 h -9.985594 c -1.710495,0 -3.097383,1.386888 -3.097383,3.0973832 z"
       id="path12860"
       style="fill:#ffffff" />
    <path
       d="M 90.994247,9.2863568 V 19.27195 c 0,1.710495 1.386888,3.097383 3.097384,3.097383 h 9.985589 v -2.750661 h -9.477064 c -0.369837,0 -0.670329,-0.300492 -0.670329,-0.693444 V 9.6330787 c 0,-0.3929515 0.300492,-0.6934439 0.670329,-0.6934439 h 9.477064 V 6.1889736 h -9.985589 c -1.710496,0 -3.097384,1.386888 -3.097384,3.0973832 z"
       id="path12857"
       style="fill:#ffffff" />
    <path
       d="m 110.38754,6.1889736 -7.23493,16.1803594 h 2.93558 l 1.75672,-3.95263 h 8.50625 l 1.77984,3.95263 h 2.91246 L 113.83165,6.1889736 Z m -1.31754,9.4770674 3.02804,-6.7726358 3.02804,6.7726358 z"
       id="path12854"
       style="fill:#ffffff" />
    <path
       d="M 133.96461,17.908177 123.97902,6.1889736 h -2.93558 V 22.369333 h 2.93558 V 10.65013 l 9.98559,11.719203 h 2.91247 V 6.1889736 h -2.91247 z"
       id="path12851"
       style="fill:#ffffff" />
    <path
       d="M 141.22261,22.369333 V 6.1889736 h -2.93558 V 22.369333 Z"
       id="path12848"
       style="fill:#ffffff" />
    <path
       d="M 155.96981,8.4311092 V 6.1889736 h -13.93823 v 2.7506612 h 9.61576 l -9.96248,11.1875632 v 2.242135 H 155.808 v -2.750661 h -9.80067 z"
       id="path12845"
       style="fill:#ffffff" />
    <path
       d="m 162.30323,6.1889736 -7.23494,16.1803594 h 2.93558 l 1.75673,-3.95263 h 8.50624 l 1.77984,3.95263 h 2.91247 L 165.74733,6.1889736 Z m -1.31755,9.4770674 3.02804,-6.7726358 3.02804,6.7726358 z"
       id="path12842"
       style="fill:#ffffff" />
    <path
       d="M 183.79996,6.1889736 H 172.95912 V 22.369333 h 10.84084 c 2.65821,0 4.831,-2.149676 4.831,-4.830993 v -6.518373 c 0,-2.681317 -2.17279,-4.8309934 -4.831,-4.8309934 z m 1.89542,11.0257594 c 0,1.317544 -1.0864,2.403939 -2.40394,2.403939 H 175.8947 V 8.9396348 h 7.39674 c 1.31754,0 2.40394,1.0863952 2.40394,2.4039392 z"
       id="path12839"
       style="fill:#ffffff" />
    <path
       d="m 202.29177,6.1889736 h -9.63887 c -1.71049,0 -3.09738,1.386888 -3.09738,3.0973832 V 19.27195 c 0,1.710495 1.38689,3.097383 3.09738,3.097383 h 9.63887 c 1.7105,0 3.09739,-1.386888 3.09739,-3.097383 V 9.2863568 c 0,-1.7104952 -1.38689,-3.0973832 -3.09739,-3.0973832 z m 0.18492,12.7362544 c 0,0.392952 -0.32361,0.693444 -0.69344,0.693444 h -8.62182 c -0.36984,0 -0.67033,-0.300492 -0.67033,-0.693444 V 9.6330787 c 0,-0.3929515 0.30049,-0.6934439 0.67033,-0.6934439 h 8.62182 c 0.36983,0 0.69344,0.3004924 0.69344,0.6934439 z"
       id="path12836"
       style="fill:#ffffff" />
    <path
       d="m 217.27013,12.892265 h -7.41985 c -0.36983,0 -0.67033,-0.300492 -0.67033,-0.670329 V 9.6330787 c 0,-0.3929515 0.3005,-0.6934439 0.67033,-0.6934439 h 10.17051 V 6.1889736 h -10.67903 c -1.7105,0 -3.09739,1.386888 -3.09739,3.0973832 v 3.2823012 c 0,1.710495 1.38689,3.097383 3.09739,3.097383 h 7.39673 c 0.39295,0 0.69345,0.300493 0.69345,0.67033 v 2.588857 c 0,0.392952 -0.3005,0.693444 -0.69345,0.693444 h -10.33231 v 2.750661 h 10.86395 c 1.7105,0 3.09739,-1.386888 3.09739,-3.097383 v -3.282301 c 0,-1.710496 -1.38689,-3.097384 -3.09739,-3.097384 z"
       id="path12833"
       style="fill:#ffffff" />
  </g>
  <g
     id="g1550"
     style="fill:#ffffff"
     transform="matrix(1.1703753,0,0,1.1703753,-0.93440236,-3.8360271)">
    <path
       style="fill:#ffffff"
       d="m 15.375,28.011719 h 3.308594 c 0,0.348417 0.02636,0.869847 0.07617,1.193359 0.02491,0.199071 0.04988,0.374578 0.09961,0.548828 0.149344,0.671929 0.3718,1.293326 0.695313,1.890625 0.07463,0.149261 0.17586,0.323394 0.27539,0.472657 0.348418,0.572392 0.795289,1.095015 1.292969,1.542968 0.124441,0.12444 0.274565,0.248126 0.423828,0.347656 0.522667,0.398145 1.120068,0.747212 1.742187,0.996094 0.174251,0.07463 0.347234,0.149409 0.521485,0.199219 0.62212,0.199073 1.269963,0.322756 1.966797,0.347656 h 0.273437 0.273438 c 0.671846,-0.0249 1.344594,-0.148583 1.966797,-0.347656 0.174167,-0.07463 0.347234,-0.124579 0.521484,-0.199219 0.62212,-0.248882 1.219603,-0.573045 1.742188,-0.996094 0.149345,-0.09954 0.299387,-0.223216 0.423828,-0.347656 0.49768,-0.447953 0.944551,-0.970574 1.292968,-1.542968 0.09953,-0.149263 0.198728,-0.323396 0.273438,-0.472657 0.323514,-0.597299 0.548003,-1.218696 0.697266,-1.890625 0.04981,-0.17425 0.07479,-0.374662 0.09961,-0.548828 0.04981,-0.348417 0.07422,-0.844942 0.07422,-1.193359 h 3.361328 v 1.193359 h -0.574219 c -0.04973,0.49768 -0.123606,0.996462 -0.248047,1.494141 l 0.597656,0.222656 -0.697265,1.892578 -0.597657,-0.224609 c -0.223976,0.447952 -0.497781,0.895311 -0.771484,1.318359 l 0.498047,0.398438 -1.292969,1.542968 -0.498047,-0.398437 c -0.373322,0.348334 -0.746791,0.672095 -1.169921,0.970703 l 0.324218,0.548828 -1.742187,0.994141 -0.324219,-0.546875 c -0.472774,0.199071 -0.945679,0.372139 -1.443359,0.521484 l 0.125,0.623047 -1.966797,0.347656 -0.125,-0.621094 c -0.248882,0.02482 -0.522687,0.02539 -0.771485,0.02539 -0.248881,0 -0.497295,-5.71e-4 -0.746093,-0.02539 l -0.125,0.621094 -1.964844,-0.347656 0.125,-0.623047 c -0.497761,-0.149345 -0.970585,-0.322413 -1.44336,-0.521484 l -0.324218,0.546875 -1.742188,-0.994141 0.324219,-0.548828 c -0.423048,-0.298608 -0.796599,-0.622369 -1.169922,-0.970703 l -0.498047,0.398437 -1.294922,-1.542968 0.498047,-0.398438 c -0.298607,-0.423048 -0.547509,-0.870407 -0.771484,-1.318359 l -0.597656,0.224609 -0.695313,-1.892578 0.597656,-0.222656 c -0.12444,-0.472774 -0.20019,-0.971557 -0.25,-1.494141 H 15.375 Z"
       id="path1428" />
    <path
       style="fill:#ffffff"
       d="m 5.484375,27.984375 h 8.464844 c 0,0.841124 0.235623,2.339122 0.314453,2.707031 0.446822,1.945028 1.367264,3.70666 2.628906,5.152344 0.05261,0.07883 0.130984,0.130154 0.183594,0.208984 1.287945,1.419293 2.917914,2.523646 4.757812,3.207032 0.420606,0.131433 0.841201,0.264011 1.261719,0.36914 0.919949,0.210259 1.866373,0.341797 2.865235,0.341797 0.972469,0 1.945285,-0.105234 2.865234,-0.341797 0.446823,-0.105129 0.839161,-0.211403 1.259766,-0.36914 1.839898,-0.657082 3.469866,-1.787739 4.757812,-3.207032 0.05252,-0.07883 0.132937,-0.130154 0.185547,-0.208984 1.261642,-1.445684 2.18013,-3.207316 2.626953,-5.152344 0.02631,-0.07883 0.02643,-0.157418 0.05273,-0.236328 0.18395,-0.788515 0.263672,-1.629579 0.263672,-2.470703 h 8.462891 v 2.470703 h -2.943359 c -0.262781,1.182816 -0.657733,2.311898 -1.13086,3.363281 l 2.234375,1.5 -3.179687,4.783203 -2.261719,-1.498046 c -0.578256,0.604473 -1.208064,1.20864 -1.865235,1.734375 l 1.339844,2.339843 -4.966797,2.865235 -1.341797,-2.339844 c -1.130207,0.420519 -2.286146,0.761271 -3.521484,0.945313 v 2.707031 h -5.730469 v -2.707031 c -1.209121,-0.184043 -2.391276,-0.524794 -3.521484,-0.945313 l -1.339844,2.339844 -4.916015,-2.865235 1.339843,-2.339843 c -0.657081,-0.525735 -1.286977,-1.103598 -1.865234,-1.734375 l -2.259766,1.498046 -3.1816402,-4.783203 2.234375,-1.5 C 9.0854757,32.740759 8.6905758,31.61159 8.4277344,30.455078 H 5.484375 Z"
       id="path1426" />
    <path
       style="fill:#ffffff"
       d="m 30.271484,7.9667969 c 6.755119,1.6821948 12.011096,7.1475631 13.351563,14.0078121 0.236563,1.103904 0.341797,2.287885 0.341797,3.470703 h -6.072266 c -0.157737,-1.20912 -0.524006,-2.393016 -1.023437,-3.470703 -0.0263,-0.07883 -0.07917,-0.130154 -0.105469,-0.208984 -0.735994,-1.524509 -1.788314,-2.838417 -3.076172,-3.916016 l -0.683594,-0.5 C 32.16287,16.718744 31.244041,16.219561 30.271484,15.851562 Z"
       id="path1424" />
    <path
       style="fill:#ffffff"
       d="m 21.675781,7.9667969 v 7.8847651 c -0.972558,0.394301 -1.893338,0.893486 -2.734375,1.498047 l -0.65625,0.5 c -1.287946,1.077599 -2.338227,2.417811 -3.074218,3.916016 -0.05261,0.07883 -0.07917,0.130154 -0.105469,0.208984 -0.525735,1.077687 -0.868654,2.235277 -1,3.470703 H 7.9824219 c 0,-1.182817 0.1315202,-2.340494 0.3417969,-3.470703 C 9.6909988,15.088143 14.920661,9.6227137 21.675781,7.9667969 Z"
       id="path1422" />
    <path
       style="fill:#ffffff"
       d="m 24.882812,4.1289062 h 2.154297 c 1.287946,2e-7 2.339844,1.0499621 2.339844,2.3378907 V 21.396484 c 0,1.287946 -1.051898,2.339844 -2.339844,2.339844 h -2.154297 c -1.287946,0 -2.313543,-1.050858 -2.339843,-2.3125 V 6.4667969 c 0,-1.2879286 1.051897,-2.3378907 2.339843,-2.3378907 z"
       id="path1420" />
  </g>
</svg>
