<?xml version="1.0" encoding="UTF-8" standalone="no"?>
<!-- Created with Inkscape (http://www.inkscape.org/) -->

<svg
   width="100"
   height="85"
   viewBox="0 0 26.458333 22.489584"
   version="1.1"
   id="svg2456"
   inkscape:version="1.1.2 (1:1.1+202202050950+0a00cf5339)"
   sodipodi:docname="blenderperu.svg"
   xmlns:inkscape="http://www.inkscape.org/namespaces/inkscape"
   xmlns:sodipodi="http://sodipodi.sourceforge.net/DTD/sodipodi-0.dtd"
   xmlns="http://www.w3.org/2000/svg"
   xmlns:svg="http://www.w3.org/2000/svg">
  <sodipodi:namedview
     id="namedview2458"
     pagecolor="#ffffff"
     bordercolor="#666666"
     borderopacity="1.0"
     inkscape:pageshadow="2"
     inkscape:pageopacity="0.0"
     inkscape:pagecheckerboard="0"
     inkscape:document-units="mm"
     showgrid="false"
     units="px"
     width="120px"
     inkscape:zoom="3.1643098"
     inkscape:cx="77.58406"
     inkscape:cy="57.200468"
     inkscape:window-width="1920"
     inkscape:window-height="1043"
     inkscape:window-x="0"
     inkscape:window-y="0"
     inkscape:window-maximized="1"
     inkscape:current-layer="layer1" />
  <defs
     id="defs2453">
    <clipPath
       clipPathUnits="userSpaceOnUse"
       id="clipPath1326">
      <path
         d="M 153.832,269.327 H 168.96 V 256.924 H 153.832 Z"
         id="path1324" />
    </clipPath>
    <clipPath
       clipPathUnits="userSpaceOnUse"
       id="clipPath1330">
      <path
         d="M 153.832,269.327 H 168.96 V 256.924 H 153.832 Z"
         id="path1328" />
    </clipPath>
    <clipPath
       clipPathUnits="userSpaceOnUse"
       id="clipPath1334">
      <path
         d="m 155.109,269.155 h 13.7 v -12.231 h -13.7 z"
         id="path1332" />
    </clipPath>
    <clipPath
       clipPathUnits="userSpaceOnUse"
       id="clipPath1370">
      <path
         d="m 132.458,269.327 h 15.128 v -12.403 h -15.128 z"
         id="path1368" />
    </clipPath>
    <clipPath
       clipPathUnits="userSpaceOnUse"
       id="clipPath1374">
      <path
         d="m 132.458,269.327 h 15.128 v -12.403 h -15.128 z"
         id="path1372" />
    </clipPath>
    <clipPath
       clipPathUnits="userSpaceOnUse"
       id="clipPath1378">
      <path
         d="m 134.151,269.327 h 13.435 v -12.403 h -13.435 z"
         id="path1376" />
    </clipPath>
  </defs>
  <g
     inkscape:label="Capa 1"
     inkscape:groupmode="layer"
     id="layer1">
    <g
       style="fill:#ffffff"
       id="g1370"
       transform="matrix(0.26458333,0,0,0.26458333,2.0584588,0.42306069)">
      <path
         d="m 79.6758,34.0867 c 0.0134,0.002 0.0145,-0.0011 0,0 z"
         fill="#f8f7fa"
         id="path1250"
         style="fill:#ffffff" />
      <path
         d="m 79.8482,35.8978 c -8.4223,-0.0968 -17.6156,1.756 -17.6156,1.756 -2.2277,0.4889 -2.7128,-1.0715 -2.7128,-1.0715 l -0.192,-6.8305 c 0.192,-1.9494 -0.6793,-1.6561 -0.6793,-1.6561 L 55.8428,27.6068 C 61.3603,24.9728 61.1662,15.704 61.1662,15.704 61.3603,7.60856 57.4872,4.4867 57.4872,4.4867 54.8735,1.65716 46.3563,2.53515 46.3563,2.53515 44.2742,2.99183 44.3929,3.44851 44.4167,3.50676 42.9622,0.975773 39.0964,0.19349 39.0964,0.19349 L 31.8364,0 C 26.415,2.43736 25.6418,7.70531 25.6418,7.70531 23.9953,21.2642 30.384,26.2399 30.384,26.2399 l -1.3564,0.7812 C 26.8031,24.3872 24.9615,24.5838 24.9615,24.5838 H 13.9256 c -1.7425,0.1935 -1.9345,2.145 -1.9345,2.145 L 11.9013,37.376 h 0.0062 c 0,0.1082 0,4.0977 0,4.0977 0,0 -0.0671,0.7583 0.6709,1.4896 l 0.7433,0.3017 0.4294,0.0385 c 0.0083,0.0031 0.0176,0.0031 0.0258,0.0031 l 0.3427,0.0323 8.1312,-0.1467 c 0,0 0.8568,-0.0416 1.2852,0.3391 0.0062,0.0052 0.0113,0.0104 0.0175,0.0156 0.0227,0.0219 0.0444,0.0447 0.064,0.0697 0.0289,0.0364 0.0578,0.0749 0.0795,0.1165 0.0114,0.0208 0.0237,0.0406 0.0289,0.0614 0.0083,0.0208 0.0145,0.0406 0.0206,0.0614 0.0207,0.0676 0.0289,0.1373 0.0289,0.2132 l -0.0722,3.951 c 0,0 0.0351,0.2549 0.3633,0.4005 v 0.0083 c 4.1787,-0.647 7.1877,-1.3107 7.1877,-1.3107 l 30.7833,-7.7084 c 8.5172,-1.6562 18.1999,-1.4637 18.1999,-1.4637 2.5146,0.5857 2.8057,-0.7781 2.8057,-0.7781 0.098,-1.1704 -3.1949,-1.2702 -3.1949,-1.2702 z M 59.206,13.6317 c 0,0 1.7424,10.4631 -5.0819,13.0971 0,0 -5.5907,1.2442 -6.9699,-8.0486 0,0 -2.5414,-12.80369 5.7353,-13.974 0,0 6.1719,0.07281 6.3165,8.9255 z m -14.3754,9.658 c 0,0 0.2901,-2.634 1.8147,-1.9027 0,0 1.3791,3.951 1.8881,4.0238 0,0 1.0167,1.756 -2.3237,1.4636 l -1.6702,-1.4636 c 0,0 -0.1455,-0.5118 0.799,-0.439 0,0 0.8712,0.2195 0.8712,-1.317 0.001,10e-4 -0.5079,-0.877 -1.3791,-0.3651 z M 46.3553,3.97488 h 3.0493 c 0,0 -2.3237,2.19498 -2.3237,3.21965 0,0 -1.3068,0.14668 -1.5969,-1.02467 0,0 -0.9435,-1.90266 0.8713,-2.19498 z M 38.5142,2.29171 c 0,0 4.5017,-0.51181 6.0986,5.48745 0,0 2.8315,12.65804 -3.4849,16.46234 0,0 -4.1384,2.7068 -6.6798,-1.756 0,0 -2.686,-3.1458 -2.3237,-12.1452 0.0011,0 0.6545,-8.5604 6.3898,-8.04859 z m 4.5739,23.77859 -1.888,0.1467 1.4524,-1.0975 z m -12.8496,-1.5365 0.5811,-0.2923 c 0,0 1.6703,0.439 0.9435,-1.0247 0,0 -0.9435,-0.439 -2.0325,0 0,0 -1.3791,-1.4636 -1.3069,-2.7068 l 1.1614,-0.0728 c 0,0 1.4524,-1.3898 -0.7257,-1.4636 l -1.0891,0.0728 c 0,0 -1.089,-3.7315 -0.5811,-4.829 0,0 1.1613,0.2195 0.7256,-1.0246 l -0.8712,-0.3662 c 0,0 -0.1455,-4.17048 0.4356,-4.97565 h 0.7257 c 0,0 0.3634,-0.51181 -0.4356,-1.02467 0,0 0.8712,-3.36529 4.0661,-4.90177 0,0 2.0325,-0.36619 1.3791,0.87798 0,0 -6.0986,9.36561 0.799,21.29131 0,0 1.0168,1.6832 0.0722,1.9755 0,0.001 -1.9602,0.7323 -3.8472,-1.5355 z m -2.8553,2.8764 c 0,0 0.4821,-0.2923 0.4821,0.5857 v 2.9263 c 0,0 1.0653,0.5856 1.0653,-0.4859 l -0.1941,-1.6592 c 0,0 0.7753,-0.4889 0.7753,0.3891 l -0.096,1.9515 c 0,0 0.6771,0.6814 0.6771,-0.5856 v -0.6814 c 0,0 0.9673,0.0967 0.8713,1.0715 l -0.1941,5.5602 c 0,0 -0.3861,-1.8527 -1.2573,-0.4858 v 3.4121 c 0,0 -0.3861,0.9779 -0.6772,-0.1935 v -3.049 c 0,0 -0.2673,-0.7313 -0.9208,-0.0728 v 3.9509 c 0,0 0.0238,1.0008 -0.5316,-0.0499 z m -8.7123,14.3412 c 0,0 -0.5812,-0.9747 0.9672,-1.8527 0,0 1.3564,-1.4637 -0.4851,-0.9748 l -2.3237,1.0715 c 0,0 -1.8384,0.7813 -3.2898,0.7813 V 27.3145 c 0,0 0.9672,-0.4889 2.0325,0.1956 l 2.9038,1.6561 c 0,0 1.1613,0.4889 1.0653,-0.5857 l -1.2604,-0.878 c 0,0 -0.192,-1.2671 0.9703,-1.1703 h 5.8086 v 2.1482 l -1.0653,0.6813 c 0,0 -2.5177,0.0968 -2.6137,3.7076 0,0 -0.096,5.1681 3.2898,5.4614 l 0.5812,0.7813 0.0991,2.6339 z M 25.2516,31.5078 V 36.29 c 0,0 -2.0325,0.5856 -2.3236,-2.3417 10e-4,0 0.1951,-3.9998 2.3236,-2.4405 z m 13.6982,-1.9255 v 13.9012 l -12.4874,2.7068 c -1.6702,0.2923 -1.0167,-3.1458 -1.0167,-3.1458 2.8315,-2.3417 4.2839,-1.1703 4.2839,-1.1703 l 1.0168,1.0246 c 4.864,1.9755 7.1876,-4.9756 7.1876,-4.9756 0.6535,-6.2188 -2.1781,-7.9019 -2.1781,-7.9019 -1.7424,-1.8288 -3.1948,-0.5857 -3.1948,-0.5857 l -0.5079,0.1467 -1.5969,-1.4637 0.2178,-0.3662 7.1877,0.2195 c 1.3058,0.2934 1.088,1.6104 1.088,1.6104 z m -6.8243,1.1703 c 0.6534,-0.5118 1.1613,0.2923 1.1613,0.2923 v 3.8043 c 0,1.9755 1.1613,1.0247 1.1613,1.0247 0.0722,-1.0975 0.6534,-1.6093 0.6534,-1.6093 1.6702,-0.878 1.4524,2.4144 1.4524,2.4144 -0.2901,3.2197 -2.9771,2.634 -2.9771,2.634 0.0723,1.6832 -1.8147,1.5365 -1.8147,1.5365 -1.089,0.1467 -0.5812,-0.7313 -0.5812,-0.7313 0.5812,0 1.1613,-1.3898 1.1613,-1.3898 v -6.8045 c 0.0011,-0.5128 -0.2167,-1.1713 -0.2167,-1.1713 z m 22.7243,8.4876 -3.775,0.878 c 0,0 -0.7257,-2.8535 1.6702,-3.951 0,0 2.4682,-0.5857 2.1048,3.073 z m 1.888,-1.0975 -0.4356,0.439 c 0,0 -0.5079,-4.6823 -3.7027,-4.0238 0,0 -3.4127,0.5118 -2.9038,5.7798 l -1.0891,0.3661 c 0,0 0.3634,-7.2434 3.9929,-8.1214 0,0 4.3561,0.2195 4.1383,5.5603 z m 1.0168,-5.3408 c 0,0 -0.3634,0.878 -2.0325,-0.3662 0,0 -2.0326,-2.6339 -5.1552,-0.5118 0,0 -3.5572,1.6832 -3.0493,9.2918 l -7.1154,1.6831 V 29.1443 c 0,0 0.2178,-1.317 2.1781,-1.1703 l 14.012,1.5365 c 0,0 1.2346,0.1467 1.1613,1.1703 v 2.1211 z"
         fill="#f8f7fa"
         id="path1252"
         style="fill:#ffffff" />
      <path
         d="m 41.2012,32.3629 v 4.0238 c 0,0 -0.0723,0.439 0.5811,0.5118 l 3.6305,0.1467 c 0,0 1.1613,-0.6585 0.3634,-1.1703 l -3.7028,-0.0728 -0.2178,-3.2925 c -0.001,-10e-4 -0.5099,-0.44 -0.6544,-0.1467 z"
         fill="#f8f7fa"
         id="path1254"
         style="fill:#ffffff" />
      <path
         d="m 42.3625,30.9721 c 0.3608,0 0.6534,-0.2948 0.6534,-0.6585 0,-0.3637 -0.2926,-0.6585 -0.6534,-0.6585 -0.3609,0 -0.6535,0.2948 -0.6535,0.6585 0,0.3637 0.2926,0.6585 0.6535,0.6585 z"
         fill="#f8f7fa"
         id="path1256"
         style="fill:#ffffff" />
      <path
         d="m 45.3395,34.7036 c 0.2406,0 0.4356,-0.1966 0.4356,-0.439 0,-0.2425 -0.195,-0.439 -0.4356,-0.439 -0.2406,0 -0.4356,0.1965 -0.4356,0.439 0,0.2424 0.195,0.439 0.4356,0.439 z"
         fill="#f8f7fa"
         id="path1258"
         style="fill:#ffffff" />
      <path
         d="m 44.2505,31.2654 c 0.3609,0 0.6534,-0.2948 0.6534,-0.6584 0,-0.3637 -0.2925,-0.6585 -0.6534,-0.6585 -0.3609,0 -0.6535,0.2948 -0.6535,0.6585 0,0.3636 0.2926,0.6584 0.6535,0.6584 z"
         fill="#f8f7fa"
         id="path1260"
         style="fill:#ffffff" />
      <path
         d="m 43.4515,35.1425 c 0.5211,0 0.9435,-0.4256 0.9435,-0.9508 0,-0.5251 -0.4224,-0.9508 -0.9435,-0.9508 -0.5211,0 -0.9435,0.4257 -0.9435,0.9508 0,0.5252 0.4224,0.9508 0.9435,0.9508 z"
         fill="#f8f7fa"
         id="path1262"
         style="fill:#ffffff" />
      <path
         d="m 40.4022,7.12068 c 0,0 3.7027,3.00012 3.0493,7.53572 0,0 -0.6534,4.9757 -3.9206,5.1213 0,0 -0.5811,-0.7313 1.1613,-1.8288 0,0 1.8881,-1.2442 1.6703,-4.7561 0,0 -0.1456,-3.21969 -2.3959,-5.0485 0,0.00104 -1.2346,-1.09644 0.4356,-1.02362 z"
         fill="#f8f7fa"
         id="path1264"
         style="fill:#ffffff" />
      <path
         d="m 54.8281,8.94324 c 0,0 3.2042,2.74316 2.9286,7.19766 0,0 -0.2498,4.882 -2.9162,5.1847 0,0 -0.5172,-0.6845 0.8465,-1.8402 0,0 1.474,-1.3045 1.0942,-4.7177 0,0 -0.3035,-3.1312 -2.2514,-4.80396 10e-4,0 -1.0725,-1.0101 0.2983,-1.0205 z"
         fill="#f8f7fa"
         id="path1266"
         style="fill:#ffffff" />
      <path
         d="m 10.4478,56.2518 c 0.4966,0.0104 0.9611,0.1134 1.3926,0.31 0.4315,0.1966 0.8072,0.464 1.1293,0.801 0.322,0.3371 0.5708,0.7261 0.7484,1.1672 0.1775,0.4411 0.2611,0.9071 0.2508,1.3981 -0.0103,0.5004 -0.1135,0.9664 -0.3086,1.4002 -0.1951,0.4338 -0.4615,0.8125 -0.7969,1.136 -0.3355,0.3235 -0.7226,0.5742 -1.1613,0.7532 -0.4398,0.1779 -0.9074,0.2621 -1.405,0.2517 L 9.21738,63.4463 9.1637,66.071 6.98459,66.0252 7.18691,56.1831 Z m -0.1094,5.0214 c 0.1951,0.0042 0.3799,-0.0291 0.5533,-0.1009 0.1745,-0.0718 0.3272,-0.1696 0.4583,-0.2954 0.1311,-0.1259 0.2364,-0.2736 0.3149,-0.4442 0.0784,-0.1706 0.1208,-0.3537 0.1239,-0.5483 0.0041,-0.1945 -0.03,-0.3765 -0.1022,-0.5461 C 11.6143,59.1687 11.5152,59.0189 11.3903,58.8879 11.2644,58.7568 11.1157,58.6527 10.9444,58.5737 10.773,58.4946 10.5903,58.453 10.3952,58.4489 L 9.31854,58.427 9.26074,61.2524 Z"
         fill="#f8f7fa"
         id="path1268"
         style="fill:#ffffff" />
      <path
         d="m 17.6768,65.9576 -2.1719,0.1893 -0.8444,-9.8077 3.2506,-0.284 c 0.4955,-0.0437 0.9673,0.0094 1.4173,0.1581 0.4501,0.1488 0.8517,0.3735 1.2078,0.6741 0.3561,0.3006 0.6452,0.6606 0.8681,1.0798 0.223,0.4203 0.3562,0.8738 0.3985,1.3638 0.0516,0.5961 -0.032,1.1568 -0.2498,1.6821 -0.2178,0.5254 -0.5337,0.9727 -0.9487,1.3399 l 2.1719,3.1708 -2.495,0.2184 -1.7135,-2.4987 -0.0393,0.0031 -1.0756,0.0936 z m -0.4129,-4.804 1.0725,-0.0936 c 0.1941,-0.0167 0.3737,-0.0708 0.5399,-0.1603 0.1652,-0.0894 0.3066,-0.2038 0.4243,-0.3432 0.1166,-0.1384 0.2054,-0.2976 0.2663,-0.4765 0.0599,-0.1779 0.0815,-0.3651 0.065,-0.5586 C 19.6154,59.3279 19.5617,59.15 19.473,58.9898 19.3832,58.8286 19.2696,58.6902 19.1302,58.5737 18.9909,58.4572 18.833,58.3688 18.6544,58.3095 18.4758,58.2491 18.2889,58.2283 18.0949,58.245 l -1.0725,0.0936 z"
         fill="#f8f7fa"
         id="path1270"
         style="fill:#ffffff" />
      <path
         d="m 26.863,54.4563 c 0.6431,-0.2018 1.2862,-0.2674 1.9293,-0.1977 0.6431,0.0697 1.2418,0.2497 1.7941,0.5389 0.5532,0.2892 1.0405,0.6814 1.4627,1.1755 0.4211,0.4941 0.7318,1.0663 0.9321,1.7133 0.2023,0.6564 0.2694,1.3087 0.2003,1.9568 -0.0692,0.6481 -0.2498,1.2494 -0.543,1.8038 -0.2932,0.5545 -0.6844,1.0445 -1.1747,1.4689 -0.4903,0.4255 -1.0581,0.7375 -1.7002,0.9394 -0.6431,0.2018 -1.2862,0.2673 -1.9293,0.1976 -0.6431,-0.0697 -1.2418,-0.2497 -1.7941,-0.5389 -0.5533,-0.2891 -1.0405,-0.6813 -1.4627,-1.1755 -0.4211,-0.4941 -0.7339,-1.0694 -0.9362,-1.7268 -0.2003,-0.6481 -0.2653,-1.2962 -0.1962,-1.9443 0.0692,-0.6481 0.2498,-1.2494 0.543,-1.8038 0.2932,-0.5545 0.6844,-1.0445 1.1747,-1.4689 0.4893,-0.4244 1.056,-0.7375 1.7002,-0.9383 z m 2.2524,7.3027 c 0.3551,-0.1113 0.6709,-0.284 0.9466,-0.5201 0.2756,-0.2351 0.4923,-0.5077 0.6524,-0.8187 0.1589,-0.31 0.258,-0.646 0.2952,-1.007 0.0371,-0.3599 0.001,-0.7188 -0.1094,-1.0757 -0.1095,-0.3568 -0.2808,-0.6699 -0.5131,-0.9414 -0.2322,-0.2715 -0.5017,-0.49 -0.8072,-0.6543 -0.3056,-0.1644 -0.638,-0.2653 -0.9982,-0.3017 -0.3592,-0.0364 -0.7164,10e-4 -1.0715,0.1123 -0.3551,0.1113 -0.671,0.2851 -0.9466,0.5202 -0.2756,0.2351 -0.4924,0.5076 -0.6524,0.8187 -0.159,0.311 -0.2581,0.6439 -0.2973,1.0007 -0.0392,0.3568 -0.0031,0.7126 0.1074,1.0694 0.1094,0.3568 0.2818,0.6731 0.5151,0.9487 0.2333,0.2757 0.5037,0.4963 0.8093,0.6606 0.3055,0.1644 0.6389,0.2653 0.9971,0.3017 0.3603,0.0354 0.7175,-0.0021 1.0726,-0.1134 z"
         fill="#f8f7fa"
         id="path1272"
         style="fill:#ffffff" />
      <path
         d="m 44.9442,51.2075 0.4015,1.5687 4.0155,-1.0434 0.544,2.1274 -4.0155,1.0434 0.4047,1.5823 4.0155,-1.0434 0.544,2.1273 -6.1255,1.5927 -2.4434,-9.5456 2.111,-0.5482 0.0031,0.0125 4.0155,-1.0434 0.544,2.1274 z"
         fill="#f8f7fa"
         id="path1274"
         style="fill:#ffffff" />
      <path
         d="m 56.0689,56.412 c -0.1476,0.0312 -0.2942,0.0541 -0.4408,0.0666 -0.1466,0.0135 -0.2921,0.0218 -0.4366,0.0249 -0.1445,0.0032 -0.288,-0.002 -0.4315,-0.0176 -0.1435,-0.0146 -0.286,-0.0344 -0.4263,-0.0593 -0.1342,-0.0354 -0.2695,-0.0729 -0.4047,-0.1124 -0.1352,-0.0395 -0.2725,-0.0853 -0.4108,-0.1383 -0.128,-0.0458 -0.254,-0.103 -0.3789,-0.1727 -0.1238,-0.0697 -0.2436,-0.1415 -0.3602,-0.2174 -0.2395,-0.1405 -0.4584,-0.3132 -0.6555,-0.5171 -0.2065,-0.2018 -0.3933,-0.4182 -0.5605,-0.647 -0.1477,-0.2237 -0.288,-0.4765 -0.4191,-0.7594 -0.1095,-0.2591 -0.1962,-0.542 -0.2602,-0.8478 l -0.2095,-0.9956 c -0.0609,-0.2881 -0.095,-0.5825 -0.1033,-0.8811 0.0052,-0.1467 0.0135,-0.2923 0.0238,-0.4369 0.0103,-0.1436 0.0289,-0.2871 0.0537,-0.4286 0.0351,-0.1352 0.0722,-0.2705 0.1125,-0.4078 0.0392,-0.1363 0.0867,-0.2694 0.1414,-0.3995 0.0444,-0.1373 0.1012,-0.2683 0.1703,-0.3921 0.0692,-0.1249 0.1425,-0.2445 0.2178,-0.361 0.1446,-0.2226 0.3169,-0.4421 0.5172,-0.6585 0.1951,-0.1966 0.4108,-0.3797 0.6472,-0.5493 0.1187,-0.0801 0.2405,-0.156 0.3665,-0.2288 0.1249,-0.0729 0.2539,-0.1363 0.3871,-0.1925 0.5461,-0.2444 1.1179,-0.3672 1.7156,-0.3672 0.1445,-0.0031 0.288,0.0021 0.4315,0.0177 0.1435,0.0156 0.2859,0.0343 0.4263,0.0593 0.2922,0.0562 0.5585,0.1363 0.798,0.2403 0.2673,0.1071 0.5161,0.2361 0.7473,0.388 0.2313,0.1519 0.4501,0.3287 0.6555,0.5305 0.192,0.1779 0.3716,0.3901 0.542,0.6367 0.1558,0.2226 0.2952,0.4754 0.418,0.7594 l -1.9891,0.8769 c -0.0558,-0.1342 -0.1229,-0.2611 -0.2024,-0.3807 -0.0991,-0.1248 -0.194,-0.232 -0.2849,-0.3225 -0.0846,-0.1009 -0.193,-0.1862 -0.3262,-0.259 -0.0547,-0.0437 -0.1115,-0.0791 -0.1724,-0.1072 -0.0598,-0.0281 -0.1249,-0.0572 -0.1951,-0.0884 -0.1187,-0.0478 -0.2549,-0.0915 -0.4077,-0.1321 -0.1414,-0.025 -0.2839,-0.0354 -0.4284,-0.0322 -0.3097,-0.0063 -0.5956,0.0541 -0.8578,0.183 -0.1332,0.0562 -0.2591,0.1238 -0.3778,0.2039 -0.1239,0.0999 -0.2302,0.1956 -0.32,0.2872 -0.0516,0.0572 -0.0991,0.1102 -0.1425,0.1602 -0.0433,0.0509 -0.0857,0.1071 -0.1269,0.1706 -0.0816,0.1269 -0.1466,0.2507 -0.1941,0.3703 -0.0609,0.1415 -0.1001,0.2767 -0.1177,0.4088 -0.0113,0.076 -0.0206,0.1477 -0.0289,0.2185 -0.0082,0.0697 -0.0134,0.1425 -0.0155,0.2153 0.0052,0.154 0.0227,0.3007 0.0516,0.4411 l 0.2096,0.9955 c 0.033,0.1571 0.0774,0.3028 0.1332,0.437 0.032,0.0665 0.066,0.13 0.1011,0.1903 0.0351,0.0614 0.0733,0.1197 0.1115,0.1748 0.0919,0.1352 0.1827,0.2445 0.2725,0.3246 0.0558,0.052 0.1115,0.0998 0.1662,0.1425 0.0547,0.0437 0.1084,0.0863 0.1631,0.129 0.0609,0.0322 0.1228,0.0655 0.1838,0.0978 0.0609,0.0322 0.1269,0.0645 0.1961,0.0946 0.1393,0.0614 0.2746,0.1009 0.4057,0.1186 0.0743,0.0114 0.1476,0.0208 0.2167,0.0291 0.0692,0.0084 0.1404,0.0136 0.2137,0.0156 0.288,-0.0072 0.574,-0.0676 0.8578,-0.183 0.0651,-0.0323 0.1291,-0.0666 0.1889,-0.102 0.0599,-0.0354 0.1229,-0.0738 0.1858,-0.1155 0.1126,-0.0697 0.2199,-0.1612 0.3221,-0.2746 0.0898,-0.0915 0.1755,-0.2018 0.257,-0.3287 0.0413,-0.0635 0.0775,-0.1259 0.1095,-0.1873 0.032,-0.0613 0.0598,-0.1269 0.0815,-0.1955 0.032,-0.0614 0.0568,-0.1259 0.0743,-0.1946 0.0176,-0.0676 0.0362,-0.1394 0.0558,-0.2174 0.0134,-0.0666 0.0217,-0.1342 0.0248,-0.2039 0.0031,-0.0697 0.0062,-0.1404 0.0092,-0.2143 l 2.1688,-0.026 c 0.0083,0.2996 -0.0165,0.5878 -0.0763,0.8655 -0.0444,0.2653 -0.1229,0.5378 -0.2354,0.8166 -0.0547,0.1301 -0.1136,0.257 -0.1786,0.3808 -0.064,0.1238 -0.1342,0.2434 -0.2095,0.3599 -0.0754,0.1165 -0.1549,0.232 -0.2395,0.3454 -0.0847,0.1134 -0.1807,0.2184 -0.287,0.3141 -0.096,0.103 -0.1982,0.1998 -0.3055,0.2913 -0.1074,0.0916 -0.2158,0.181 -0.3242,0.2674 -0.1187,0.0801 -0.2415,0.1571 -0.3664,0.2288 -0.1249,0.0729 -0.254,0.1363 -0.3871,0.1925 -0.1425,0.0582 -0.2808,0.1103 -0.415,0.1571 -0.1332,0.053 -0.2746,0.0925 -0.4222,0.1248 z"
         fill="#f8f7fa"
         id="path1276"
         style="fill:#ffffff" />
      <path
         d="m 66.8024,46.7707 -2.3019,0.336 1.0921,7.5951 -2.1574,0.3152 -1.0922,-7.5951 -2.3019,0.3361 -0.3128,-2.1742 6.7603,-0.9872 z"
         fill="#f8f7fa"
         id="path1278"
         style="fill:#ffffff" />
      <path
         d="m 73.9065,44.168 2.6519,9.7702 -2.2318,0.0781 -0.3035,-1.0882 -2.8686,0.1009 -0.2148,1.1069 -2.2317,0.078 1.9572,-9.9325 z m -2.3102,6.6484 1.8457,-0.0645 -1.0664,-3.9156 z"
         fill="#f8f7fa"
         id="path1280"
         style="fill:#ffffff" />
      <path
         d="m 17.7945,69.7483 c 0.0888,-0.0021 0.2354,-0.0031 0.4397,-0.0041 0.2055,-0.0011 0.3634,-0.0032 0.4749,-0.0053 l 0.033,1.0632 c -0.0702,0.0011 -0.191,0.0031 -0.3633,0.0062 -0.1724,0.0032 -0.2911,0.0063 -0.3562,0.0104 -0.065,0.0042 -0.1641,0.0073 -0.2973,0.0125 -0.1331,0.0052 -0.2322,0.0115 -0.2973,0.0198 -0.065,0.0083 -0.1424,0.0177 -0.2302,0.0291 -0.0887,0.0115 -0.16,0.025 -0.2157,0.0427 -0.0557,0.0177 -0.1063,0.0364 -0.1528,0.0551 -0.0877,0.0437 -0.1579,0.0957 -0.2106,0.155 -0.0526,0.0593 -0.1011,0.1467 -0.1455,0.2601 -0.1167,0.284 -0.1693,0.7001 -0.159,1.2494 0.0145,0.544 0.0816,0.9445 0.2034,1.2004 0.0433,0.103 0.0877,0.1748 0.1331,0.2164 0.0455,0.0416 0.1095,0.078 0.1941,0.1092 0.0888,0.0313 0.2168,0.05 0.3819,0.0562 0.1652,0.0063 0.4253,0.0021 0.7794,-0.0146 0.3541,-0.0156 0.6194,-0.0249 0.7959,-0.028 l 0.0186,1.0631 c -0.1394,0.0021 -0.3902,0.0177 -0.7505,0.0458 -0.3603,0.0281 -0.6596,0.0343 -0.8981,0.0198 -0.2384,-0.0146 -0.4696,-0.0645 -0.6947,-0.1498 -0.192,-0.0718 -0.3695,-0.1821 -0.5295,-0.3319 -0.1611,-0.1498 -0.2901,-0.3266 -0.3871,-0.5316 -0.1796,-0.3911 -0.2777,-0.9362 -0.2942,-1.6363 -0.0176,-0.6949 0.0588,-1.2504 0.2291,-1.6665 0.1786,-0.4401 0.4666,-0.7594 0.864,-0.9592 0.3551,-0.181 0.8341,-0.2767 1.4349,-0.2871 z"
         fill="#f8f7fa"
         id="path1282"
         style="fill:#ffffff" />
      <path
         d="m 19.7155,69.689 1.0395,-0.0645 0.3376,5.5041 -1.0395,0.0645 z"
         fill="#f8f7fa"
         id="path1284"
         style="fill:#ffffff" />
      <path
         d="m 21.747,69.5944 1.0354,-0.1165 0.0072,-0.0011 1.568,2.9846 -0.3458,-3.1219 1.0354,-0.1165 0.608,5.4801 -1.2222,0.1374 -1.3358,-2.5352 0.2942,2.6527 -1.0353,0.1165 z"
         fill="#f8f7fa"
         id="path1286"
         style="fill:#ffffff" />
      <path
         d="m 26.0031,69.1179 2.8542,-0.5565 0.1972,1.0298 -1.8323,0.3568 0.2219,1.1548 1.8323,-0.3569 0.1972,1.0299 -1.8323,0.3568 0.2281,1.189 1.8323,-0.3568 0.1972,1.0299 -2.8543,0.5566 -0.0041,-0.0208 z"
         fill="#f8f7fa"
         id="path1288"
         style="fill:#ffffff" />
      <path
         d="m 48.8245,62.533 c 0.4562,-0.1165 0.8671,-0.2216 1.2335,-0.3142 0.3654,-0.0936 0.7773,-0.1976 1.2336,-0.3142 0.4562,-0.1165 0.8681,-0.2184 1.2346,-0.3079 l 0.0062,-0.0021 0.2508,1.0258 -1.4029,0.3578 1.0684,4.3119 -1.0167,0.2591 -1.0767,-4.3172 -1.2738,0.3246 z"
         fill="#f8f7fa"
         id="path1290"
         style="fill:#ffffff" />
      <path
         d="m 55.2359,60.8529 c 0.2271,-0.052 0.4366,-0.0738 0.6307,-0.0655 0.193,0.0083 0.3633,0.0406 0.5089,0.0957 0.1466,0.0551 0.2828,0.1394 0.4088,0.2528 0.1259,0.1134 0.2343,0.2372 0.3251,0.3724 0.0909,0.1352 0.1766,0.2996 0.2591,0.4931 0.0826,0.1935 0.1518,0.3828 0.2085,0.5701 0.0568,0.1872 0.1157,0.4036 0.1766,0.6491 0.0805,0.3329 0.1362,0.6314 0.1672,0.8936 0.031,0.2632 0.031,0.5212 10e-4,0.776 -0.0309,0.2549 -0.1001,0.4744 -0.2085,0.6585 -0.1084,0.1841 -0.2725,0.3485 -0.4903,0.4921 -0.2178,0.1435 -0.4883,0.2538 -0.8114,0.3277 -0.2353,0.0593 -0.4459,0.0884 -0.6328,0.0884 -0.1868,0 -0.3478,-0.0156 -0.4841,-0.0479 -0.1363,-0.0312 -0.2601,-0.103 -0.3716,-0.2143 -0.1115,-0.1113 -0.2044,-0.2226 -0.2798,-0.3329 -0.0753,-0.1102 -0.1496,-0.2736 -0.2229,-0.491 -0.0733,-0.2164 -0.1332,-0.4161 -0.1786,-0.5981 -0.0465,-0.1821 -0.1043,-0.4286 -0.1755,-0.7397 -0.0485,-0.2153 -0.0877,-0.4077 -0.1177,-0.5794 -0.0299,-0.1716 -0.0505,-0.3599 -0.064,-0.5669 -0.0134,-0.206 -0.0113,-0.3901 0.0073,-0.5503 0.0185,-0.1602 0.0567,-0.3246 0.1145,-0.4921 0.0578,-0.1675 0.1373,-0.3121 0.2385,-0.4338 0.1012,-0.1217 0.2364,-0.233 0.4046,-0.3318 0.1683,-0.0999 0.3644,-0.1748 0.5864,-0.2258 z m 0.2477,1.0257 c -0.1084,0.0302 -0.2013,0.0739 -0.2787,0.1332 -0.0774,0.0593 -0.1383,0.1207 -0.1837,0.1872 -0.0455,0.0656 -0.0733,0.154 -0.0868,0.2653 -0.0123,0.1113 -0.0196,0.2081 -0.0206,0.2902 0,0.0822 0.0103,0.1935 0.033,0.3361 0.0227,0.1414 0.0413,0.2517 0.0568,0.3297 0.0155,0.078 0.0403,0.1935 0.0743,0.3444 0.0104,0.0457 0.0279,0.1237 0.0527,0.233 0.0248,0.1102 0.0444,0.1935 0.0568,0.2507 0.0134,0.0572 0.034,0.1383 0.0619,0.2424 0.0279,0.104 0.0537,0.1851 0.0764,0.2423 0.0227,0.0573 0.0516,0.128 0.0877,0.2112 0.0361,0.0832 0.0702,0.1477 0.1043,0.1925 0.034,0.0447 0.0764,0.0946 0.1269,0.1477 0.0506,0.053 0.1033,0.0895 0.157,0.1082 0.0547,0.0187 0.1156,0.0322 0.1847,0.0406 0.0692,0.0083 0.1414,0.0031 0.2189,-0.0146 0.1269,-0.0291 0.2353,-0.078 0.3251,-0.1477 0.0898,-0.0687 0.1559,-0.1561 0.1982,-0.2622 0.0424,-0.1061 0.0754,-0.2174 0.096,-0.3329 0.0217,-0.1154 0.0269,-0.2486 0.0176,-0.3974 C 56.8317,64.1287 56.8173,63.9904 56.7977,63.8624 56.7781,63.7345 56.7502,63.5909 56.7141,63.4297 56.681,63.2643 56.649,63.1218 56.617,63.0042 56.5861,62.8867 56.5448,62.7556 56.4963,62.6131 56.4467,62.4705 56.392,62.353 56.3301,62.2615 56.2681,62.1699 56.1979,62.0846 56.1185,62.0066 56.039,61.9286 55.945,61.8797 55.8377,61.8578 55.7334,61.837 55.6147,61.8443 55.4836,61.8786 Z"
         fill="#f8f7fa"
         id="path1292"
         style="fill:#ffffff" />
      <path
         d="m 58.2439,60.2392 0.5141,-0.1041 c 0.5667,-0.1144 1.0322,-0.1716 1.3987,-0.1706 0.3654,0 0.6957,0.0833 0.9899,0.2497 0.3045,0.1685 0.5399,0.4151 0.7071,0.7407 0.1673,0.3256 0.3035,0.7459 0.4109,1.2608 0.1073,0.543 0.1455,1.0122 0.1115,1.4064 -0.0331,0.3943 -0.1621,0.7324 -0.3871,1.0122 -0.2158,0.2778 -0.4976,0.4838 -0.8475,0.6159 -0.3489,0.1321 -0.7949,0.234 -1.3368,0.3058 l -0.4862,0.0624 -0.9724,-4.8601 z m 1.2449,0.8478 0.6689,3.3341 c 0.5254,-0.1061 0.862,-0.2549 1.0085,-0.4473 0.2024,-0.2518 0.2251,-0.7688 0.0692,-1.5511 -0.1476,-0.7178 -0.3458,-1.1443 -0.5967,-1.2806 -0.2023,-0.1175 -0.5863,-0.1352 -1.1499,-0.0551 z"
         fill="#f8f7fa"
         id="path1294"
         style="fill:#ffffff" />
      <path
         d="m 64.6914,58.9222 c 0.2302,-0.0385 0.4408,-0.0468 0.6328,-0.026 0.192,0.0208 0.3592,0.0624 0.5027,0.1269 0.1425,0.0645 0.2736,0.1571 0.3923,0.2777 0.1187,0.1207 0.2188,0.2518 0.3014,0.3922 0.0816,0.1415 0.158,0.31 0.2281,0.5077 0.0702,0.1976 0.128,0.3922 0.1735,0.5815 0.0454,0.1904 0.0908,0.4099 0.1362,0.6595 0.0599,0.3371 0.0971,0.6377 0.1125,0.9019 0.0145,0.2643 -0.001,0.5223 -0.0474,0.7751 -0.0465,0.2527 -0.1291,0.467 -0.2488,0.6449 -0.1198,0.1769 -0.2932,0.3308 -0.5192,0.4609 -0.2271,0.13 -0.5038,0.2226 -0.83,0.2767 -0.2384,0.0447 -0.4511,0.0603 -0.6369,0.0489 -0.1858,-0.0115 -0.3458,-0.0375 -0.48,-0.077 -0.1342,-0.0396 -0.2529,-0.1186 -0.3572,-0.2372 -0.1042,-0.1186 -0.1909,-0.2351 -0.2591,-0.3495 -0.0681,-0.1145 -0.1321,-0.2819 -0.192,-0.5035 -0.0598,-0.2206 -0.1073,-0.4234 -0.1414,-0.6086 -0.0351,-0.1841 -0.0784,-0.4338 -0.1301,-0.749 -0.0351,-0.2174 -0.0629,-0.413 -0.0815,-0.5857 -0.0186,-0.1726 -0.0289,-0.363 -0.0299,-0.57 -0.0011,-0.207 0.0134,-0.3901 0.0413,-0.5493 0.0278,-0.1592 0.0763,-0.3204 0.1445,-0.4848 0.0671,-0.1633 0.1558,-0.3027 0.2642,-0.4182 0.1084,-0.1154 0.2498,-0.2174 0.4243,-0.3058 0.1744,-0.0895 0.3747,-0.1519 0.5997,-0.1893 z m 0.1838,1.0392 c -0.1094,0.0229 -0.2044,0.0614 -0.286,0.1155 -0.0815,0.0541 -0.1455,0.1123 -0.194,0.1747 -0.0485,0.0625 -0.0826,0.1498 -0.1032,0.2601 -0.0207,0.1103 -0.0321,0.206 -0.0382,0.2882 -0.0052,0.0822 -0.0011,0.1945 0.0123,0.337 0.0135,0.1425 0.0259,0.2538 0.0372,0.3329 0.0103,0.0791 0.0289,0.1956 0.0537,0.3485 0.0072,0.0468 0.0206,0.1248 0.0382,0.2361 0.0186,0.1113 0.032,0.1956 0.0413,0.2539 0.0093,0.0582 0.0247,0.1394 0.0475,0.2455 0.0216,0.1061 0.0423,0.1883 0.0619,0.2465 0.0186,0.0583 0.0433,0.1311 0.0743,0.2164 0.0299,0.0853 0.0609,0.1519 0.0929,0.1987 0.031,0.0468 0.0702,0.0988 0.1177,0.155 0.0464,0.0562 0.097,0.0957 0.1507,0.1175 0.0537,0.0219 0.1136,0.0396 0.1817,0.0521 0.0681,0.0124 0.1414,0.0124 0.2188,-0.0011 0.1291,-0.0218 0.2395,-0.0634 0.3334,-0.1269 0.094,-0.0635 0.1652,-0.1467 0.2137,-0.2497 0.0496,-0.103 0.0878,-0.2122 0.1167,-0.3266 0.0289,-0.1144 0.0423,-0.2466 0.0413,-0.3963 -0.0011,-0.1498 -0.0073,-0.2892 -0.0186,-0.4182 -0.0114,-0.129 -0.031,-0.2747 -0.0568,-0.437 -0.0227,-0.1674 -0.0464,-0.311 -0.0702,-0.4306 -0.0237,-0.1197 -0.0568,-0.2518 -0.097,-0.3985 C 65.8042,60.6095 65.7557,60.4888 65.7,60.3942 65.6442,60.2985 65.5792,60.21 65.5038,60.1268 c -0.0743,-0.0822 -0.1651,-0.1383 -0.2715,-0.1654 -0.1052,-0.026 -0.224,-0.026 -0.3571,0 z"
         fill="#f8f7fa"
         id="path1296"
         style="fill:#ffffff" />
      <path
         d="m 70.4246,58.3781 c 0.2509,0.0978 0.4656,0.2705 0.6452,0.5181 0.1796,0.2476 0.2859,0.5544 0.32,0.9185 l -1.0157,0.1009 c -0.0186,-0.1966 -0.0754,-0.3547 -0.1693,-0.4764 -0.094,-0.1207 -0.2302,-0.1779 -0.4078,-0.1706 -0.321,0.0198 -0.5429,0.1123 -0.6637,0.2788 -0.0362,0.0562 -0.0651,0.1175 -0.0878,0.1841 -0.0227,0.0666 -0.0247,0.1342 -0.0072,0.2029 0.0176,0.0686 0.065,0.1123 0.1425,0.1321 0.1238,0.0562 0.3974,0.1508 0.8216,0.284 0.4243,0.1331 0.7433,0.2746 0.958,0.4244 0.1734,0.1207 0.3231,0.2736 0.448,0.4567 0.1249,0.1841 0.2003,0.387 0.2271,0.6106 0.0403,0.3402 -0.0165,0.6627 -0.1703,0.9675 -0.1538,0.3048 -0.3768,0.5534 -0.6679,0.7469 -0.2911,0.1935 -0.6163,0.3069 -0.9734,0.3402 -0.4646,0.0416 -0.8197,-0.0697 -1.0674,-0.3329 -0.2736,-0.2882 -0.4366,-0.7584 -0.4903,-1.4096 l 1.0364,-0.103 c 0.0144,0.5233 0.1445,0.7625 0.3881,0.7199 0.2694,-0.0229 0.4924,-0.1207 0.6689,-0.2934 0.1765,-0.1726 0.255,-0.3401 0.2364,-0.5035 -0.0227,-0.1529 -0.1084,-0.2819 -0.256,-0.3838 -0.1486,-0.103 -0.3117,-0.1758 -0.4903,-0.2174 -0.1786,-0.0427 -0.3809,-0.0937 -0.606,-0.154 -0.225,-0.0603 -0.3933,-0.1238 -0.5047,-0.1914 -0.4315,-0.1987 -0.6782,-0.4806 -0.7412,-0.8468 -0.0743,-0.4681 0.0217,-0.8863 0.288,-1.2546 0.1332,-0.182 0.3117,-0.3266 0.5357,-0.4369 0.224,-0.1092 0.4862,-0.1799 0.7877,-0.2122 0.2931,-0.0302 0.5646,0.0031 0.8154,0.1009 z"
         fill="#f8f7fa"
         id="path1298"
         style="fill:#ffffff" />
      <path
         d="M 78.5187,67.726 C 65.1601,67.1403 51.3659,71.7498 51.3659,71.7498 l -23.0877,5.7069 c -7.2599,2.7068 -24.97468,1.6094 -24.97468,1.6094 -1.4524,-0.2924 -1.67021,0.3661 -1.67021,0.3661 0.07226,0.7314 1.30685,1.0247 1.30685,1.0247 1.1933,0.5472 6.6158,0.5618 9.26974,0.5357 l 0.0227,-0.0239 c 0,0 0.1249,-0.0062 0.3655,-0.0177 2.5817,-0.1259 18.333,-1.0621 31.288,-5.6164 0,0 17.1336,-4.6823 25.8459,-5.6342 0,0 -0.0062,0.0115 -0.0144,0.0323 2.3287,-0.258 7.7771,-0.7199 14.2824,-0.337 -1.471,-2.452 -5.4813,-1.6697 -5.4813,-1.6697 z"
         fill="#f8f7fa"
         id="path1300"
         style="fill:#ffffff" />
      <path
         d="m 7.86821,28.8187 -5.66405,-2.634 c 0,0 -0.87124,0.2924 0.29006,1.0247 l 4.3572,2.0494 c 0,0 1.01679,1.0236 1.01679,-0.4401 z"
         fill="#f8f7fa"
         id="path1302"
         style="fill:#ffffff" />
      <path
         d="m 6.83904,31.1437 -6.125478,-1.19 c 0,0 -0.7762643,0.4941 0.525428,0.9248 l 4.71746,0.9373 c -0.00103,0 1.23046,0.749 0.88259,-0.6721 z"
         fill="#f8f7fa"
         id="path1304"
         style="fill:#ffffff" />
      <path
         d="m 6.39619,34.0825 -6.236955,0.1051 c 0,0 -0.658586,0.6449 0.702974,0.7958 L 5.66948,34.923 c 0,0 1.3564,0.4786 0.72671,-0.8405 z"
         fill="#f8f7fa"
         id="path1306"
         style="fill:#ffffff" />
      <path
         d="m 6.68626,37.5955 -6.236958,0.1051 c 0,0 -0.658586,0.645 0.702978,0.7958 l 4.80727,-0.0603 c 0,0 1.35743,0.4774 0.72671,-0.8406 z"
         fill="#f8f7fa"
         id="path1308"
         style="fill:#ffffff" />
      <path
         d="m 6.91439,40.5072 -5.997471,1.729 c 0,0 -0.470713,0.7947 0.883621,0.5856 L 6.42923,41.509 c -0.00103,0 1.43278,0.1082 0.48516,-1.0018 z"
         fill="#f8f7fa"
         id="path1310"
         style="fill:#ffffff" />
      <path
         d="m 38.2829,59.5713 v 0.542 h -0.0031 z"
         fill="#f8f7fa"
         id="path1312"
         style="fill:#ffffff" />
      <path
         d="m 40.2422,50.2265 -0.0547,10.718 -2.2555,0.7209 0.0062,-1.5521 0.0041,-0.542 0.0031,-0.7011 h -0.0031 v -2.6371 l 0.0196,0.027 0.0072,-0.827 0.0341,-4.4888 z"
         fill="#f8f7fa"
         id="path1314"
         style="fill:#ffffff" />
      <path
         d="m 38.1735,54.5697 -0.063,-0.0531 0.1951,0.7334 -3.5365,-2.9044 -1.7136,1.1307 5.2821,4.3172 0.5585,-0.3683 0.1982,0.7313 z"
         fill="#f8f7fa"
         id="path1316"
         style="fill:#ffffff" />
      <path
         d="m 31.6475,67.5523 c 0.0723,-0.0198 0.2168,-0.0635 0.4356,-0.1321 0.2178,-0.0687 0.3851,-0.1196 0.5017,-0.1529 0.1167,-0.0333 0.2684,-0.0666 0.4542,-0.0999 0.1869,-0.0333 0.3572,-0.0489 0.512,-0.0468 0.3623,0.0041 0.6741,0.0978 0.9353,0.2809 0.2993,0.2205 0.5068,0.5492 0.6224,0.9841 0.1167,0.44 0.0909,0.828 -0.0753,1.164 -0.1373,0.2851 -0.3686,0.5098 -0.6968,0.6752 -0.2302,0.1154 -0.5048,0.2059 -0.8248,0.2725 l 0.5554,2.1253 -1.0127,0.2726 z m 2.4486,1.1058 C 33.965,68.1827 33.5779,68.0568 32.9327,68.2784 l 0.3066,1.1859 c 0.1342,-0.0218 0.2611,-0.051 0.3819,-0.0884 0.1208,-0.0375 0.223,-0.0811 0.3087,-0.13 0.0856,-0.05 0.1455,-0.1238 0.1796,-0.2226 0.034,-0.0999 0.0289,-0.2216 -0.0134,-0.3652 z"
         fill="#f8f7fa"
         id="path1318"
         style="fill:#ffffff" />
      <path
         d="m 36.2143,66.3029 1.1344,-0.3048 2.589,5.0266 -1.0199,0.2736 -0.7814,-1.4231 -0.8558,0.2081 0.0423,1.6363 -1.0715,0.2955 z m 0.9393,1.4741 0.0124,1.3596 0.6245,-0.1529 z"
         fill="#f8f7fa"
         id="path1320"
         style="fill:#ffffff" />
      <path
         d="m 40.2938,65.1836 c 0.5357,-0.1436 0.9879,-0.2029 1.3564,-0.1748 0.3582,0.025 0.6606,0.128 0.9063,0.31 0.2829,0.2112 0.478,0.5108 0.5853,0.8999 0.1187,0.4109 0.0805,0.7854 -0.1146,1.1245 -0.1403,0.2517 -0.3613,0.466 -0.6616,0.6439 -0.0083,0.0073 -0.0259,0.0198 -0.0558,0.0364 l 1.8581,1.8548 -1.1293,0.2965 -1.7776,-1.6873 0.5347,2.0213 -1.0198,0.2735 -1.4101,-5.3282 0.4955,-0.1478 c 0.1899,-0.0551 0.3334,-0.0957 0.4325,-0.1227 z m 0.353,1.0059 0.3097,1.1703 c 0.031,-0.0083 0.097,-0.0208 0.1961,-0.0384 0.0991,-0.0167 0.1735,-0.0292 0.222,-0.0375 0.0485,-0.0083 0.1187,-0.025 0.2106,-0.0499 0.0918,-0.025 0.1631,-0.05 0.2116,-0.0749 0.0485,-0.025 0.1032,-0.0593 0.1641,-0.103 0.0609,-0.0427 0.1053,-0.0916 0.1321,-0.1446 0.0269,-0.0531 0.0444,-0.1186 0.0527,-0.1966 0.0082,-0.078 0.001,-0.1613 -0.0238,-0.2528 -0.0278,-0.104 -0.066,-0.1914 -0.1156,-0.2601 -0.0495,-0.0697 -0.1094,-0.1175 -0.1796,-0.1446 -0.0702,-0.027 -0.1393,-0.0468 -0.2064,-0.0572 -0.0682,-0.0104 -0.1508,-0.0083 -0.2478,0.0083 -0.097,0.0167 -0.1775,0.0333 -0.2436,0.051 -0.065,0.0177 -0.1497,0.0416 -0.2529,0.0718 -0.1032,0.0302 -0.1786,0.0499 -0.2292,0.0582 z"
         fill="#f8f7fa"
         id="path1322"
         style="fill:#ffffff" />
      <path
         d="m 44.972,63.9477 1.1345,-0.3048 2.5889,5.0267 -1.0199,0.2735 -0.7814,-1.4231 -0.8557,0.2081 0.0423,1.6363 -1.0715,0.2955 z m 0.9404,1.4752 0.0124,1.3596 0.6245,-0.1529 z"
         fill="#f8f7fa"
         id="path1324-4"
         style="fill:#ffffff" />
    </g>
  </g>
</svg>
