<?xml version="1.0" encoding="UTF-8" standalone="no"?>
<!-- Created with Inkscape (http://www.inkscape.org/) -->

<svg
   width="220"
   height="50"
   viewBox="0 0 58.208332 13.229167"
   version="1.1"
   id="svg5"
   inkscape:version="1.1.2 (0a00cf5339, 2022-02-04)"
   sodipodi:docname="logo.svg"
   xmlns:inkscape="http://www.inkscape.org/namespaces/inkscape"
   xmlns:sodipodi="http://sodipodi.sourceforge.net/DTD/sodipodi-0.dtd"
   xmlns="http://www.w3.org/2000/svg"
   xmlns:svg="http://www.w3.org/2000/svg">
  <sodipodi:namedview
     id="namedview7"
     pagecolor="#ffffff"
     bordercolor="#666666"
     borderopacity="1.0"
     inkscape:pageshadow="2"
     inkscape:pageopacity="0.0"
     inkscape:pagecheckerboard="0"
     inkscape:document-units="mm"
     showgrid="false"
     showguides="true"
     inkscape:guide-bbox="true"
     units="px"
     width="200px"
     inkscape:zoom="5.1241863"
     inkscape:cx="91.42915"
     inkscape:cy="16.978305"
     inkscape:window-width="1920"
     inkscape:window-height="1043"
     inkscape:window-x="1920"
     inkscape:window-y="0"
     inkscape:window-maximized="1"
     inkscape:current-layer="layer1" />
  <defs
     id="defs2">
    <clipPath
       clipPathUnits="userSpaceOnUse"
       id="clipPath854">
      <path
         d="M 0,841.89 H 595.276 V 0 H 0 Z"
         id="path852" />
    </clipPath>
  </defs>
  <g
     inkscape:label="Capa 1"
     inkscape:groupmode="layer"
     id="layer1">
    <rect
       style="fill:#ffffff;stroke-width:1.6588;stroke-linecap:round;stroke-linejoin:round;opacity:0"
       id="rect1677"
       width="58.208332"
       height="13.229167"
       x="2.7755576e-17"
       y="0" />
    <g
       id="g1653"
       transform="matrix(0.64336212,0,0,0.64336212,-4.6781173,-4.1436659)">
      <g
         id="g1572"
         transform="matrix(0.93847363,0,0,0.93847363,1.0818236,1.431002)">
        <g
           id="g856"
           transform="matrix(0.19425703,0,0,-0.19425703,21.121252,15.060122)">
          <path
             d="m 0,0 c -7.367,0 -14.734,-4.766 -31.234,-14.293 -22.324,-12.887 -28.734,-15.672 -30.547,-27.91 h 23.094 c 3.066,3.093 8.261,5.902 17.187,11.058 22.719,13.113 20.285,13.113 43.004,0 8.926,-5.156 14.125,-7.965 17.188,-11.058 H 61.778 C 59.965,-29.965 53.559,-27.18 31.235,-14.293 14.735,-4.766 7.367,0 0,0"
             style="fill:#ffcc00;fill-opacity:1;fill-rule:nonzero;stroke:none"
             id="path858" />
        </g>
        <g
           id="g860"
           transform="matrix(0.19425703,0,0,-0.19425703,21.121252,8.9015914)">
          <path
             d="m 0,0 c -7.367,0 -14.734,-4.766 -31.234,-14.293 -33,-19.051 -31.238,-15.992 -31.238,-54.098 0,-2.105 0,-3.676 -0.004,-5.515 h 19.465 c 0.003,1.761 0.003,3.41 0.003,5.515 0,26.235 -1.214,24.125 21.504,37.246 22.719,13.114 20.289,13.114 43.008,0 22.715,-13.121 21.5,-11.011 21.5,-37.246 0,-2.031 0.004,-3.808 0.008,-5.515 h 19.461 c -0.004,1.839 -0.004,3.41 -0.004,5.515 0,38.106 1.77,35.047 -31.23,54.098 C 14.739,-4.766 7.371,0 0.004,0 Z"
             style="fill:#0055d4;fill-opacity:1;fill-rule:nonzero;stroke:none"
             id="path862" />
        </g>
      </g>
      <g
         id="g1562">
        <g
           id="g1487">
          <g
             id="g864"
             transform="matrix(0.19425703,0,0,-0.19425703,37.709637,17.956494)">
            <path
               d="m 0,0 h -6.914 v 41.484 h 35.918 c 2.242,0 4.344,-0.43 6.304,-1.285 1.958,-0.856 3.668,-2.02 5.137,-3.489 1.469,-1.468 2.613,-3.179 3.43,-5.136 0.855,-1.961 1.281,-4.039 1.281,-6.242 V 0 h -6.914 v 25.332 c 0,1.261 -0.242,2.445 -0.734,3.546 -0.446,1.145 -1.102,2.122 -1.957,2.938 -0.856,0.855 -1.856,1.512 -2.996,1.957 -1.102,0.492 -2.286,0.734 -3.551,0.734 H 21.66 V 0 H 14.746 V 34.507 H 0 Z"
               style="fill:#0055d4;fill-opacity:1;fill-rule:nonzero;stroke:none"
               id="path866" />
          </g>
          <g
             id="g868"
             transform="matrix(0.19425703,0,0,-0.19425703,55.349147,17.956494)">
            <path
               d="m 0,0 h -29.614 c -1.675,0 -3.246,0.304 -4.715,0.917 -1.468,0.653 -2.753,1.508 -3.851,2.571 -1.063,1.101 -1.918,2.363 -2.57,3.793 -0.653,1.426 -0.981,2.976 -0.981,4.648 h -0.062 v 18.235 c 0.082,1.593 0.449,3.058 1.101,4.406 0.695,1.387 1.57,2.59 2.633,3.609 1.102,1.063 2.367,1.879 3.793,2.449 1.43,0.61 2.957,0.918 4.59,0.918 H -0.063 V 34.57 h -29.613 c -1.348,0 -2.508,-0.43 -3.489,-1.285 -0.937,-0.817 -1.507,-1.856 -1.714,-3.121 v -6.059 h 30.718 v -6.914 h -30.718 v -5.078 c 0,-1.469 0.511,-2.692 1.531,-3.672 1.019,-0.977 2.266,-1.469 3.734,-1.469 L 0,6.972 Z"
               style="fill:#0055d4;fill-opacity:1;fill-rule:nonzero;stroke:none"
               id="path870" />
          </g>
          <g
             id="g872"
             transform="matrix(0.19425703,0,0,-0.19425703,63.324952,11.241029)">
            <path
               d="m 0,0 h -16.949 c -1.918,0 -3.711,-0.367 -5.387,-1.102 -1.629,-0.691 -3.078,-1.672 -4.344,-2.937 -1.222,-1.266 -2.203,-2.731 -2.937,-4.407 -0.734,-1.671 -1.102,-3.464 -1.102,-5.382 0,-1.918 0.368,-3.711 1.102,-5.387 0.734,-1.672 1.715,-3.141 2.937,-4.402 1.266,-1.227 2.715,-2.203 4.344,-2.938 1.676,-0.695 3.469,-1.043 5.387,-1.043 H 0 v -6.972 h -16.949 c -2.856,0 -5.547,0.527 -8.078,1.589 -2.488,1.102 -4.672,2.59 -6.547,4.465 -1.875,1.879 -3.363,4.082 -4.465,6.61 -1.062,2.531 -1.594,5.222 -1.594,8.078 0,2.855 0.532,5.547 1.594,8.078 1.102,2.527 2.59,4.73 4.465,6.605 1.875,1.918 4.059,3.407 6.547,4.469 2.531,1.102 5.222,1.652 8.078,1.652 L 0,6.976 Z"
               style="fill:#0055d4;fill-opacity:1;fill-rule:nonzero;stroke:none"
               id="path874" />
          </g>
          <g
             id="g876"
             transform="matrix(0.19425703,0,0,-0.19425703,71.752405,11.253267)">
            <path
               d="m 0,0 h -27.656 c -1.469,0 -2.715,-0.507 -3.735,-1.527 -1.019,-0.98 -1.527,-2.184 -1.527,-3.609 0,-1.469 0.508,-2.715 1.527,-3.735 1.02,-0.98 2.266,-1.469 3.735,-1.469 h 15.601 c 1.633,0 3.184,-0.324 4.653,-0.98 1.507,-0.652 2.793,-1.527 3.851,-2.629 1.102,-1.062 1.961,-2.324 2.571,-3.793 0.652,-1.469 0.98,-3.039 0.98,-4.711 0,-1.676 -0.328,-3.246 -0.98,-4.715 -0.61,-1.468 -1.469,-2.75 -2.571,-3.851 -1.058,-1.063 -2.344,-1.918 -3.851,-2.571 -1.469,-0.652 -3.02,-0.98 -4.653,-0.98 h -27.718 v 6.914 h 27.718 c 1.43,0 2.633,0.488 3.61,1.469 1.019,1.019 1.531,2.265 1.531,3.734 0,1.469 -0.512,2.692 -1.531,3.668 -0.977,1.02 -2.18,1.531 -3.61,1.531 h -15.601 c -1.715,0 -3.305,0.305 -4.774,0.918 -1.468,0.653 -2.754,1.508 -3.855,2.571 -1.102,1.101 -1.957,2.386 -2.571,3.855 -0.613,1.508 -0.917,3.098 -0.917,4.774 0,1.629 0.304,3.179 0.917,4.648 0.614,1.508 1.469,2.793 2.571,3.855 1.101,1.102 2.387,1.977 3.855,2.633 1.469,0.653 3.059,0.977 4.774,0.977 L 0,6.977 Z"
               style="fill:#0055d4;fill-opacity:1;fill-rule:nonzero;stroke:none"
               id="path878" />
          </g>
          <g
             id="g880"
             transform="matrix(0.19425703,0,0,-0.19425703,80.179857,11.253267)">
            <path
               d="m 0,0 h -27.656 c -1.469,0 -2.715,-0.507 -3.735,-1.527 -1.019,-0.98 -1.527,-2.184 -1.527,-3.609 0,-1.469 0.508,-2.715 1.527,-3.735 1.02,-0.98 2.266,-1.469 3.735,-1.469 h 15.601 c 1.633,0 3.184,-0.324 4.652,-0.98 1.508,-0.652 2.793,-1.527 3.856,-2.629 1.098,-1.062 1.957,-2.324 2.566,-3.793 0.657,-1.469 0.981,-3.039 0.981,-4.711 0,-1.676 -0.324,-3.246 -0.981,-4.715 -0.609,-1.468 -1.468,-2.75 -2.566,-3.851 -1.063,-1.063 -2.348,-1.918 -3.856,-2.571 -1.468,-0.652 -3.019,-0.98 -4.652,-0.98 h -27.719 v 6.914 h 27.719 c 1.43,0 2.633,0.488 3.609,1.469 1.02,1.019 1.532,2.265 1.532,3.734 0,1.469 -0.512,2.692 -1.532,3.668 -0.976,1.02 -2.179,1.531 -3.609,1.531 h -15.601 c -1.715,0 -3.305,0.305 -4.774,0.918 -1.469,0.653 -2.754,1.508 -3.855,2.571 -1.102,1.101 -1.957,2.386 -2.571,3.855 -0.609,1.508 -0.918,3.098 -0.918,4.774 0,1.629 0.309,3.179 0.918,4.648 0.614,1.508 1.469,2.793 2.571,3.855 1.101,1.102 2.386,1.977 3.855,2.633 1.469,0.653 3.059,0.977 4.774,0.977 L 0,6.977 Z"
               style="fill:#0055d4;fill-opacity:1;fill-rule:nonzero;stroke:none"
               id="path882" />
          </g>
          <g
             id="g884"
             transform="matrix(0.19425703,0,0,-0.19425703,89.344127,12.584122)">
            <path
               d="m 0,0 v -13.828 c 0,-1.918 -0.368,-3.711 -1.102,-5.387 -0.734,-1.672 -1.73,-3.141 -2.996,-4.402 -1.227,-1.227 -2.691,-2.204 -4.406,-2.938 -1.672,-0.734 -3.469,-1.101 -5.387,-1.101 h -16.031 c -1.914,0 -3.711,0.367 -5.383,1.101 -1.633,0.734 -3.082,1.711 -4.344,2.938 -1.266,1.261 -2.266,2.73 -3,4.402 -0.691,1.676 -1.039,3.469 -1.039,5.387 V 0 c 0,1.918 0.348,3.711 1.039,5.383 0.734,1.675 1.734,3.121 3,4.347 1.262,1.262 2.711,2.262 4.344,2.996 1.672,0.735 3.469,1.102 5.383,1.102 h 16.031 c 1.918,0 3.715,-0.367 5.387,-1.102 1.715,-0.734 3.179,-1.734 4.406,-2.996 C -2.832,8.504 -1.836,7.058 -1.102,5.383 -0.368,3.711 0,1.918 0,0 M -6.973,-13.828 V 0 c 0,0.98 -0.184,1.875 -0.551,2.691 -0.328,0.817 -0.816,1.531 -1.469,2.141 -0.613,0.656 -1.347,1.144 -2.203,1.469 -0.816,0.367 -1.715,0.55 -2.691,0.55 h -16.035 c -0.938,0 -1.832,-0.183 -2.692,-0.55 C -33.43,5.976 -34.165,5.488 -34.817,4.832 -35.426,4.222 -35.918,3.508 -36.286,2.691 -36.653,1.875 -36.836,0.98 -36.836,0 v -13.828 c 0,-0.981 0.183,-1.899 0.55,-2.754 0.368,-0.817 0.86,-1.532 1.469,-2.141 0.652,-0.613 1.387,-1.125 2.203,-1.531 0.86,-0.367 1.754,-0.551 2.692,-0.551 h 16.035 c 0.976,0 1.875,0.184 2.691,0.551 0.856,0.406 1.59,0.918 2.203,1.531 0.653,0.609 1.141,1.324 1.469,2.141 0.367,0.855 0.551,1.773 0.551,2.754"
               style="fill:#0055d4;fill-opacity:1;fill-rule:nonzero;stroke:none"
               id="path886" />
          </g>
          <g
             id="g888"
             transform="matrix(0.19425703,0,0,-0.19425703,91.353327,9.8858917)">
            <path
               d="m 0,0 v -34.574 h 25.821 v -6.972 H -6.918 V 0 Z"
               style="fill:#0055d4;fill-opacity:1;fill-rule:nonzero;stroke:none"
               id="path890" />
          </g>
        </g>
        <g
           id="g1471"
           transform="translate(5.811092e-5)">
          <g
             id="g920"
             transform="matrix(0.19425703,0,0,-0.19425703,51.622908,20.928821)">
            <path
               d="m 0,0 h -1.316 l 1.257,2.222 H 1.504 Z M 0.441,-12.032 H -0.652 V -0.43 h 1.093 z"
               style="fill:#4d4d4d;fill-opacity:1;fill-rule:nonzero;stroke:none"
               id="path922" />
          </g>
          <g
             id="g1360"
             style="fill:#4d4d4d">
            <path
               d="m 36.271261,21.012332 h 0.212517 v 2.25377 h -0.212517 z"
               style="fill:#4d4d4d;fill-opacity:1;fill-rule:nonzero;stroke:none;stroke-width:0.194257"
               id="path892" />
            <g
               id="g894"
               transform="matrix(0.19425703,0,0,-0.19425703,38.589427,23.266122)"
               style="fill:#4d4d4d">
              <path
                 d="M 0,0 -6.636,9.79 V 0 H -7.73 v 11.61 h 1.179 L 0.121,1.782 v 9.789 h 1.09 V 0 Z"
                 style="fill:#4d4d4d;fill-opacity:1;fill-rule:nonzero;stroke:none"
                 id="path896" />
            </g>
            <g
               id="g898"
               transform="matrix(0.19425703,0,0,-0.19425703,41.039008,21.693805)"
               style="fill:#4d4d4d">
              <path
                 d="m 0,0 c 0,0.844 -0.469,1.516 -1.403,2.012 -0.75,0.402 -1.508,0.601 -2.281,0.601 -0.5,0 -0.98,-0.105 -1.441,-0.316 C -5.578,2.086 -5.965,1.86 -6.282,1.617 -6.59,1.371 -6.875,1.071 -7.129,0.703 c -0.563,-0.812 -0.848,-1.808 -0.848,-2.984 -0.004,-1.742 0.539,-3.047 1.625,-3.914 0.844,-0.668 1.727,-1.004 2.645,-1.004 0.918,0 1.816,0.254 2.687,0.762 0.871,0.504 1.301,1.101 1.297,1.789 v 1.297 H -3 v 1.093 h 4.371 v -2.39 c 0.004,-0.66 -0.262,-1.27 -0.801,-1.832 -0.539,-0.559 -1.195,-1 -1.973,-1.328 -0.773,-0.329 -1.5,-0.489 -2.168,-0.485 -1.257,0 -2.414,0.414 -3.468,1.235 -0.821,0.64 -1.403,1.535 -1.75,2.687 -0.18,0.602 -0.274,1.297 -0.278,2.09 0,1.445 0.352,2.668 1.059,3.66 0.566,0.793 1.269,1.379 2.109,1.758 0.84,0.379 1.578,0.57 2.215,0.57 0.988,0 1.973,-0.281 2.957,-0.847 C 0,2.442 0.523,1.891 0.839,1.203 1.007,0.844 1.093,0.446 1.093,0 Z"
                 style="fill:#4d4d4d;fill-opacity:1;fill-rule:nonzero;stroke:none"
                 id="path900" />
            </g>
            <g
               id="g902"
               transform="matrix(0.19425703,0,0,-0.19425703,43.335903,22.204507)"
               style="fill:#4d4d4d">
              <path
                 d="m 0,0 h -6.778 v -4.363 h 7.5 V -5.465 H -7.871 V 6.137 H 0.461 V 5.043 H -6.778 V 1.094 H 0 Z"
                 style="fill:#4d4d4d;fill-opacity:1;fill-rule:nonzero;stroke:none"
                 id="path904" />
            </g>
            <g
               id="g906"
               transform="matrix(0.19425703,0,0,-0.19425703,45.415814,23.266122)"
               style="fill:#4d4d4d">
              <path
                 d="M 0,0 -6.637,9.79 V 0 h -1.09 v 11.61 h 1.18 L 0.121,1.782 v 9.789 H 1.215 V 0 Z"
                 style="fill:#4d4d4d;fill-opacity:1;fill-rule:nonzero;stroke:none"
                 id="path908" />
            </g>
            <path
               d="m 46.246748,21.012332 h 0.212517 v 2.25377 h -0.212517 z"
               style="fill:#4d4d4d;fill-opacity:1;fill-rule:nonzero;stroke:none;stroke-width:0.194257"
               id="path910" />
            <g
               id="g912"
               transform="matrix(0.19425703,0,0,-0.19425703,48.585311,22.204507)"
               style="fill:#4d4d4d">
              <path
                 d="m 0,0 h -6.777 v -4.363 h 7.5 V -5.465 H -7.871 V 6.137 H 0.461 V 5.043 H -6.777 V 1.094 H 0 Z"
                 style="fill:#4d4d4d;fill-opacity:1;fill-rule:nonzero;stroke:none"
                 id="path914" />
            </g>
            <g
               id="g916"
               transform="matrix(0.19425703,0,0,-0.19425703,49.168859,21.012352)"
               style="fill:#4d4d4d">
              <path
                 d="m 0,0 h 4.856 c 1.132,0 2.027,-0.301 2.683,-0.902 0.653,-0.602 0.981,-1.403 0.981,-2.399 0,-0.718 -0.168,-1.332 -0.508,-1.84 -0.336,-0.5 -0.828,-0.871 -1.481,-1.105 0.766,-0.555 1.356,-1.352 1.766,-2.387 0.117,-0.301 0.277,-0.73 0.477,-1.289 0.199,-0.562 0.394,-1.012 0.578,-1.355 l -0.965,-0.524 c -0.234,0.43 -0.449,0.934 -0.649,1.516 -0.195,0.578 -0.367,1.035 -0.515,1.367 -0.477,1.137 -1.309,1.938 -2.504,2.41 H 1.09 v -5.133 H 0 Z m 1.09,-1.094 v -4.324 h 3.766 c 0.832,0 1.468,0.188 1.906,0.555 0.445,0.375 0.664,0.894 0.664,1.562 0,0.664 -0.227,1.199 -0.688,1.606 -0.46,0.406 -1.085,0.609 -1.886,0.601 z"
                 style="fill:#4d4d4d;fill-opacity:1;fill-rule:nonzero;stroke:none"
                 id="path918" />
            </g>
            <g
               id="g924"
               transform="matrix(0.19425703,0,0,-0.19425703,52.966001,21.010798)"
               style="fill:#4d4d4d">
              <path
                 d="M 0,0 H 1.059 L 5.883,-11.61 H 4.695 L 3.238,-8.094 H -1.988 L -3.367,-11.61 H -4.531 Z M 0.543,-1.606 C 0.191,-2.52 -0.164,-3.422 -0.516,-4.317 -0.863,-5.203 -1.215,-6.098 -1.562,-7 h 4.339 z"
                 style="fill:#4d4d4d;fill-opacity:1;fill-rule:nonzero;stroke:none"
                 id="path926" />
            </g>
            <g
               id="g928"
               transform="matrix(0.19425703,0,0,-0.19425703,54.400978,22.950454)"
               style="fill:#4d4d4d">
              <path
                 d="m 0,0 h 1.711 v -2.851 l -1.742,-1.664 -0.149,0.988 0.797,1.063 -0.172,0.839 H 0 Z"
                 style="fill:#4d4d4d;fill-opacity:1;fill-rule:nonzero;stroke:none"
                 id="path930" />
            </g>
            <g
               id="g932"
               transform="matrix(0.19425703,0,0,-0.19425703,56.162889,21.012352)"
               style="fill:#4d4d4d">
              <path
                 d="M 0,0 H 4.856 C 5.981,0 6.871,-0.324 7.531,-0.973 8.191,-1.621 8.52,-2.453 8.52,-3.461 8.52,-4.473 8.195,-5.305 7.539,-5.945 6.883,-6.59 5.988,-6.91 4.856,-6.906 H 1.094 v -4.735 H 0 Z m 1.094,-1.094 v -4.718 h 3.762 c 0.804,-0.004 1.437,0.214 1.89,0.656 0.457,0.445 0.684,1.004 0.684,1.679 0,0.688 -0.235,1.258 -0.699,1.711 -0.465,0.454 -1.09,0.68 -1.875,0.672 z"
                 style="fill:#4d4d4d;fill-opacity:1;fill-rule:nonzero;stroke:none"
                 id="path934" />
            </g>
            <g
               id="g936"
               transform="matrix(0.19425703,0,0,-0.19425703,58.262614,21.012352)"
               style="fill:#4d4d4d">
              <path
                 d="m 0,0 h 4.855 c 1.137,0 2.031,-0.301 2.688,-0.902 0.652,-0.602 0.98,-1.403 0.98,-2.399 0,-0.718 -0.168,-1.332 -0.508,-1.84 C 7.679,-5.641 7.183,-6.012 6.535,-6.246 7.3,-6.801 7.89,-7.598 8.3,-8.633 c 0.118,-0.301 0.278,-0.73 0.477,-1.289 0.199,-0.562 0.395,-1.012 0.578,-1.355 L 8.39,-11.801 c -0.234,0.43 -0.449,0.934 -0.652,1.516 C 7.543,-9.707 7.371,-9.25 7.226,-8.918 6.75,-7.781 5.914,-6.98 4.722,-6.508 H 1.093 v -5.133 H 0 Z m 1.093,-1.094 v -4.324 h 3.762 c 0.836,0 1.473,0.188 1.91,0.555 0.442,0.375 0.664,0.894 0.664,1.562 0,0.664 -0.23,1.199 -0.687,1.606 -0.461,0.406 -1.09,0.609 -1.887,0.601 z"
                 style="fill:#4d4d4d;fill-opacity:1;fill-rule:nonzero;stroke:none"
                 id="path938" />
            </g>
            <g
               id="g940"
               transform="matrix(0.19425703,0,0,-0.19425703,61.467855,21.186212)"
               style="fill:#4d4d4d">
              <path
                 d="m 0,0 c -0.582,0 -1.141,-0.132 -1.672,-0.394 -0.535,-0.266 -0.985,-0.617 -1.356,-1.063 -0.75,-0.91 -1.125,-2.023 -1.125,-3.351 0,-1.324 0.375,-2.469 1.118,-3.438 0.808,-1.043 1.699,-1.566 2.679,-1.566 0.977,0 1.715,0.125 2.223,0.379 0.512,0.258 0.953,0.609 1.324,1.055 0.777,0.929 1.164,2.082 1.164,3.461 0,1.378 -0.363,2.543 -1.094,3.492 C 2.535,-0.476 1.445,0 0,0 m -3.836,-0.695 c 0.461,0.547 1.027,0.985 1.695,1.305 0.676,0.324 1.375,0.484 2.102,0.484 0.726,0 1.336,-0.074 1.82,-0.222 C 2.273,0.723 2.804,0.454 3.371,0.055 3.941,-0.339 4.433,-0.988 4.84,-1.894 5.246,-2.796 5.449,-3.73 5.449,-4.695 5.449,-5.664 5.32,-6.511 5.058,-7.246 4.804,-7.98 4.449,-8.621 3.984,-9.164 3.519,-9.703 2.961,-10.128 2.312,-10.437 1.668,-10.75 1.004,-10.906 0.324,-10.906 c -0.68,0 -1.27,0.078 -1.766,0.239 -0.496,0.164 -1.043,0.453 -1.633,0.871 -0.589,0.422 -1.097,1.097 -1.519,2.027 -0.43,0.926 -0.641,1.836 -0.641,2.738 0,0.907 0.117,1.715 0.356,2.434 0.238,0.723 0.586,1.355 1.043,1.902"
                 style="fill:#4d4d4d;fill-opacity:1;fill-rule:nonzero;stroke:none"
                 id="path942" />
            </g>
            <g
               id="g944"
               transform="matrix(0.19425703,0,0,-0.19425703,63.016472,20.97214)"
               style="fill:#4d4d4d">
              <path
                 d="m 0,0 3.836,-5.82 3.848,5.812 0.918,-0.601 -4.219,-6.383 v -4.817 H 3.289 v 4.825 l -4.207,6.382 z"
                 style="fill:#4d4d4d;fill-opacity:1;fill-rule:nonzero;stroke:none"
                 id="path946" />
            </g>
            <g
               id="g948"
               transform="matrix(0.19425703,0,0,-0.19425703,66.606536,22.204507)"
               style="fill:#4d4d4d">
              <path
                 d="m 0,0 h -6.781 v -4.363 h 7.5 V -5.465 H -7.875 V 6.137 H 0.457 V 5.043 H -6.781 V 1.094 H 0 Z"
                 style="fill:#4d4d4d;fill-opacity:1;fill-rule:nonzero;stroke:none"
                 id="path950" />
            </g>
            <g
               id="g952"
               transform="matrix(0.19425703,0,0,-0.19425703,68.774444,21.718087)"
               style="fill:#4d4d4d">
              <path
                 d="m 0,0 c -0.141,0.738 -0.523,1.379 -1.156,1.922 -0.637,0.547 -1.41,0.816 -2.332,0.816 -0.918,0 -1.774,-0.343 -2.567,-1.027 -0.992,-0.863 -1.488,-2.148 -1.496,-3.859 0.008,-1.715 0.496,-3.008 1.465,-3.871 0.793,-0.7 1.664,-1.047 2.613,-1.047 0.953,0 1.735,0.281 2.348,0.84 0.609,0.558 0.973,1.226 1.082,1.996 l 1.078,-0.16 c -0.156,-1.043 -0.637,-1.938 -1.441,-2.676 -0.801,-0.738 -1.821,-1.106 -3.047,-1.102 -1.231,0 -2.348,0.426 -3.344,1.278 -0.75,0.636 -1.285,1.535 -1.601,2.691 -0.165,0.598 -0.247,1.281 -0.247,2.051 0.008,1.422 0.29,2.578 0.848,3.476 0.563,0.899 1.242,1.543 2.047,1.934 0.801,0.379 1.582,0.57 2.344,0.57 1.148,0 2.14,-0.367 2.976,-1.101 C 0.406,1.996 0.906,1.149 1.074,0.188 Z"
                 style="fill:#4d4d4d;fill-opacity:1;fill-rule:nonzero;stroke:none"
                 id="path954" />
            </g>
            <g
               id="g956"
               transform="matrix(0.19425703,0,0,-0.19425703,69.255619,21.012352)"
               style="fill:#4d4d4d">
              <path
                 d="M 0,0 H 9.234 V -1.094 H 5.148 V -11.609 H 4.054 V -1.094 H 0 Z"
                 style="fill:#4d4d4d;fill-opacity:1;fill-rule:nonzero;stroke:none"
                 id="path958" />
            </g>
            <g
               id="g960"
               transform="matrix(0.19425703,0,0,-0.19425703,72.318858,21.186212)"
               style="fill:#4d4d4d">
              <path
                 d="m 0,0 c -0.582,0 -1.137,-0.132 -1.672,-0.394 -0.531,-0.266 -0.984,-0.617 -1.355,-1.063 -0.746,-0.91 -1.121,-2.023 -1.121,-3.351 0,-1.324 0.371,-2.469 1.113,-3.438 0.808,-1.043 1.703,-1.566 2.68,-1.566 0.976,0 1.718,0.125 2.222,0.379 0.516,0.258 0.953,0.609 1.324,1.055 0.778,0.929 1.165,2.082 1.165,3.461 0,1.378 -0.364,2.543 -1.094,3.492 C 2.535,-0.476 1.445,0 0,0 m -3.832,-0.695 c 0.457,0.547 1.023,0.985 1.695,1.305 0.676,0.324 1.375,0.484 2.098,0.484 0.727,0 1.336,-0.074 1.82,-0.222 C 2.273,0.723 2.805,0.454 3.375,0.055 3.945,-0.339 4.434,-0.988 4.84,-1.894 5.246,-2.796 5.449,-3.73 5.449,-4.695 5.449,-5.664 5.32,-6.511 5.063,-7.246 4.809,-7.98 4.449,-8.621 3.984,-9.164 3.52,-9.703 2.961,-10.128 2.313,-10.437 1.668,-10.75 1.004,-10.906 0.324,-10.906 c -0.679,0 -1.269,0.078 -1.765,0.239 -0.496,0.164 -1.039,0.453 -1.633,0.871 -0.59,0.422 -1.098,1.097 -1.52,2.027 -0.425,0.926 -0.64,1.836 -0.64,2.738 0,0.907 0.117,1.715 0.355,2.434 0.238,0.723 0.586,1.355 1.047,1.902"
                 style="fill:#4d4d4d;fill-opacity:1;fill-rule:nonzero;stroke:none"
                 id="path962" />
            </g>
            <g
               id="g964"
               transform="matrix(0.19425703,0,0,-0.19425703,75.206877,21.656508)"
               style="fill:#4d4d4d">
              <path
                 d="m 0,0 c 0,0.738 -0.301,1.328 -0.902,1.765 -0.606,0.438 -1.344,0.656 -2.219,0.656 -0.887,0 -1.597,-0.199 -2.133,-0.601 -0.531,-0.402 -0.797,-0.891 -0.789,-1.465 -0.008,-0.785 0.676,-1.379 2.051,-1.773 0.379,-0.114 0.754,-0.211 1.125,-0.301 0.367,-0.09 0.723,-0.18 1.059,-0.27 0.34,-0.09 0.761,-0.234 1.269,-0.437 0.508,-0.195 0.953,-0.504 1.336,-0.934 0.387,-0.422 0.582,-1.004 0.582,-1.742 0,-0.738 -0.246,-1.394 -0.738,-1.965 -0.617,-0.699 -1.481,-1.148 -2.59,-1.336 -0.309,-0.054 -0.633,-0.082 -0.973,-0.082 -0.339,0 -0.707,0.043 -1.101,0.133 -0.391,0.09 -0.86,0.266 -1.403,0.523 -0.539,0.266 -1.023,0.7 -1.457,1.301 -0.433,0.602 -0.652,1.262 -0.652,1.989 h 1.094 c 0.008,-0.805 0.371,-1.481 1.094,-2.032 0.722,-0.543 1.507,-0.812 2.351,-0.812 0.848,0 1.57,0.172 2.172,0.519 0.738,0.434 1.109,1.039 1.109,1.817 0,0.89 -0.711,1.539 -2.132,1.937 -0.399,0.117 -0.789,0.219 -1.172,0.301 -0.379,0.09 -0.735,0.18 -1.071,0.262 -0.332,0.09 -0.738,0.222 -1.226,0.398 -0.481,0.18 -0.906,0.473 -1.274,0.879 -0.371,0.402 -0.55,0.941 -0.546,1.625 -0.008,0.871 0.367,1.613 1.117,2.231 0.75,0.617 1.715,0.929 2.898,0.929 1.184,0 2.18,-0.32 2.992,-0.953 C 0.684,1.929 1.09,1.074 1.09,-0.004 Z"
                 style="fill:#4d4d4d;fill-opacity:1;fill-rule:nonzero;stroke:none"
                 id="path966" />
            </g>
            <g
               id="g968"
               transform="matrix(0.19425703,0,0,-0.19425703,76.839219,20.97214)"
               style="fill:#4d4d4d">
              <path
                 d="m 0,0 3.832,-5.82 3.851,5.812 0.918,-0.601 -4.222,-6.383 v -4.817 H 3.285 v 4.825 l -4.203,6.382 z"
                 style="fill:#4d4d4d;fill-opacity:1;fill-rule:nonzero;stroke:none"
                 id="path970" />
            </g>
            <g
               id="g972"
               transform="matrix(0.19425703,0,0,-0.19425703,80.820711,22.942684)"
               style="fill:#4d4d4d">
              <path
                 d="M 0,0 3.351,9.945 H 5.257 V -1.665 H 4.168 V 8.98 L 0.593,-1.672 H -0.578 L -4.246,8.886 V -1.665 h -1.09 V 9.937 h 1.883 z"
                 style="fill:#4d4d4d;fill-opacity:1;fill-rule:nonzero;stroke:none"
                 id="path974" />
            </g>
            <g
               id="g976"
               transform="matrix(0.19425703,0,0,-0.19425703,83.333037,21.186212)"
               style="fill:#4d4d4d">
              <path
                 d="m 0,0 c -0.582,0 -1.136,-0.132 -1.672,-0.394 -0.531,-0.266 -0.984,-0.617 -1.351,-1.063 -0.75,-0.91 -1.125,-2.023 -1.125,-3.351 0,-1.324 0.371,-2.469 1.117,-3.438 0.805,-1.043 1.699,-1.566 2.676,-1.566 0.976,0 1.719,0.125 2.226,0.379 0.512,0.258 0.953,0.609 1.321,1.055 0.777,0.929 1.164,2.082 1.164,3.461 0,1.378 -0.364,2.543 -1.094,3.492 C 2.535,-0.476 1.446,0 0,0 m -3.832,-0.695 c 0.457,0.547 1.024,0.985 1.696,1.305 0.675,0.324 1.375,0.484 2.097,0.484 0.731,0 1.336,-0.074 1.821,-0.222 C 2.274,0.723 2.805,0.454 3.375,0.055 3.946,-0.339 4.434,-0.988 4.84,-1.894 5.246,-2.796 5.45,-3.73 5.45,-4.695 5.45,-5.664 5.321,-6.511 5.063,-7.246 4.809,-7.98 4.45,-8.621 3.985,-9.164 3.52,-9.703 2.961,-10.128 2.313,-10.437 1.668,-10.75 1.008,-10.906 0.324,-10.906 c -0.679,0 -1.269,0.078 -1.765,0.239 -0.496,0.164 -1.039,0.453 -1.633,0.871 -0.59,0.422 -1.098,1.097 -1.519,2.027 -0.426,0.926 -0.641,1.836 -0.641,2.738 0,0.907 0.117,1.715 0.355,2.434 0.239,0.723 0.586,1.355 1.047,1.902"
                 style="fill:#4d4d4d;fill-opacity:1;fill-rule:nonzero;stroke:none"
                 id="path978" />
            </g>
            <g
               id="g980"
               transform="matrix(0.19425703,0,0,-0.19425703,86.351597,23.266122)"
               style="fill:#4d4d4d">
              <path
                 d="M 0,0 -6.636,9.79 V 0 H -7.73 v 11.61 h 1.18 L 0.121,1.782 v 9.789 h 1.09 V 0 Z"
                 style="fill:#4d4d4d;fill-opacity:1;fill-rule:nonzero;stroke:none"
                 id="path982" />
            </g>
            <g
               id="g984"
               transform="matrix(0.19425703,0,0,-0.19425703,86.920771,21.012352)"
               style="fill:#4d4d4d">
              <path
                 d="M 0,0 H 9.234 V -1.094 H 5.148 V -11.609 H 4.055 V -1.094 H 0 Z"
                 style="fill:#4d4d4d;fill-opacity:1;fill-rule:nonzero;stroke:none"
                 id="path986" />
            </g>
            <g
               id="g988"
               transform="matrix(0.19425703,0,0,-0.19425703,89.702531,21.010798)"
               style="fill:#4d4d4d">
              <path
                 d="M 0,0 H 1.063 L 5.887,-11.61 H 4.696 L 3.239,-8.094 H -1.988 L -3.367,-11.61 H -4.531 Z M 0.547,-1.606 C 0.196,-2.52 -0.16,-3.422 -0.515,-4.317 -0.863,-5.203 -1.211,-6.098 -1.558,-7 h 4.34 z"
                 style="fill:#4d4d4d;fill-opacity:1;fill-rule:nonzero;stroke:none"
                 id="path990" />
            </g>
            <g
               id="g992"
               transform="matrix(0.19425703,0,0,-0.19425703,91.211908,22.629347)"
               style="fill:#4d4d4d">
              <path
                 d="m 0,0 c 0,-1.051 0.316,-1.77 0.941,-2.16 0.239,-0.149 0.617,-0.223 1.133,-0.223 0.524,0 0.969,0.258 1.332,0.77 0.301,0.418 0.453,0.894 0.453,1.433 v 8.504 h 1.09 V -0.18 c 0,-0.808 -0.23,-1.523 -0.695,-2.148 -0.571,-0.77 -1.375,-1.153 -2.41,-1.149 -1.36,0 -2.258,0.625 -2.692,1.879 -0.164,0.469 -0.246,1.004 -0.246,1.598 z"
                 style="fill:#4d4d4d;fill-opacity:1;fill-rule:nonzero;stroke:none"
                 id="path994" />
            </g>
            <g
               id="g996"
               transform="matrix(0.19425703,0,0,-0.19425703,94.247174,22.204507)"
               style="fill:#4d4d4d">
              <path
                 d="m 0,0 h -6.777 v -4.363 h 7.5 V -5.465 H -7.871 V 6.137 H 0.461 V 5.043 H -6.777 V 1.094 H 0 Z"
                 style="fill:#4d4d4d;fill-opacity:1;fill-rule:nonzero;stroke:none"
                 id="path998" />
            </g>
            <g
               id="g1000"
               transform="matrix(0.19425703,0,0,-0.19425703,96.196524,21.656508)"
               style="fill:#4d4d4d">
              <path
                 d="m 0,0 c 0,0.738 -0.301,1.328 -0.902,1.765 -0.602,0.438 -1.34,0.656 -2.215,0.656 -0.891,0 -1.598,-0.199 -2.133,-0.601 -0.531,-0.402 -0.797,-0.891 -0.793,-1.465 -0.004,-0.785 0.68,-1.379 2.055,-1.773 0.379,-0.114 0.754,-0.211 1.121,-0.301 0.371,-0.09 0.726,-0.18 1.062,-0.27 0.34,-0.09 0.762,-0.234 1.27,-0.437 0.504,-0.195 0.953,-0.504 1.336,-0.934 0.387,-0.422 0.578,-1.004 0.578,-1.742 0,-0.738 -0.246,-1.394 -0.734,-1.965 -0.622,-0.699 -1.485,-1.148 -2.59,-1.336 -0.309,-0.054 -0.633,-0.082 -0.977,-0.082 -0.336,0 -0.703,0.043 -1.101,0.133 -0.391,0.09 -0.856,0.266 -1.403,0.523 -0.535,0.266 -1.023,0.7 -1.457,1.301 -0.429,0.602 -0.648,1.262 -0.648,1.989 h 1.094 c 0.003,-0.805 0.371,-1.481 1.093,-2.032 0.723,-0.543 1.508,-0.812 2.352,-0.812 0.844,0 1.566,0.172 2.172,0.519 0.738,0.434 1.105,1.039 1.105,1.817 0,0.89 -0.707,1.539 -2.129,1.937 -0.402,0.117 -0.793,0.219 -1.172,0.301 -0.379,0.09 -0.738,0.18 -1.07,0.262 -0.332,0.09 -0.742,0.222 -1.226,0.398 -0.481,0.18 -0.907,0.473 -1.278,0.879 -0.367,0.402 -0.551,0.941 -0.547,1.625 -0.004,0.871 0.368,1.613 1.118,2.231 0.75,0.617 1.718,0.929 2.898,0.929 1.184,0 2.184,-0.32 2.996,-0.953 0.813,-0.633 1.219,-1.488 1.219,-2.566 z"
                 style="fill:#4d4d4d;fill-opacity:1;fill-rule:nonzero;stroke:none"
                 id="path1002" />
            </g>
          </g>
        </g>
      </g>
    </g>
  </g>
</svg>
