<?xml version="1.0" encoding="UTF-8" standalone="no"?>
<!-- Created with Inkscape (http://www.inkscape.org/) -->

<svg
   width="150"
   height="50"
   viewBox="0 0 39.687499 13.229167"
   version="1.1"
   id="svg5"
   inkscape:version="1.1.2 (0a00cf5339, 2022-02-04)"
   sodipodi:docname="logo.svg"
   xmlns:inkscape="http://www.inkscape.org/namespaces/inkscape"
   xmlns:sodipodi="http://sodipodi.sourceforge.net/DTD/sodipodi-0.dtd"
   xmlns="http://www.w3.org/2000/svg"
   xmlns:svg="http://www.w3.org/2000/svg">
  <sodipodi:namedview
     id="namedview7"
     pagecolor="#ffffff"
     bordercolor="#666666"
     borderopacity="1.0"
     inkscape:pageshadow="2"
     inkscape:pageopacity="0.0"
     inkscape:pagecheckerboard="0"
     inkscape:document-units="mm"
     showgrid="false"
     showguides="true"
     inkscape:guide-bbox="true"
     units="px"
     width="2000px"
     inkscape:zoom="2.5620932"
     inkscape:cx="77.866021"
     inkscape:cy="47.812469"
     inkscape:window-width="1862"
     inkscape:window-height="1016"
     inkscape:window-x="58"
     inkscape:window-y="27"
     inkscape:window-maximized="1"
     inkscape:current-layer="layer1" />
  <defs
     id="defs2">
    <clipPath
       clipPathUnits="userSpaceOnUse"
       id="clipPath854">
      <path
         d="M 0,841.89 H 595.276 V 0 H 0 Z"
         id="path852" />
    </clipPath>
  </defs>
  <g
     inkscape:label="Capa 1"
     inkscape:groupmode="layer"
     id="layer1">
    <rect
       style="opacity:0;fill:#ffffff;stroke-width:1.6588;stroke-linecap:round;stroke-linejoin:round"
       id="rect1677"
       width="58.208332"
       height="13.229167"
       x="2.7755576e-17"
       y="0" />
    <g
       id="g1462"
       transform="matrix(0.94334393,0,0,0.94334393,-5.3158271,14.754943)"
       style="fill:#ffffff">
      <path
         d="m 30.976923,-11.621874 h -1.268148 v 6.1708267 h 1.268148 z"
         fill="#4f4f4f"
         id="path1246"
         style="stroke-width:0.264583;fill:#ffffff" />
      <path
         d="m 30.342188,-12.170136 c 0.389466,0 0.706966,-0.31597 0.706966,-0.706966 0,-0.389554 -0.315912,-0.70697 -0.706966,-0.70697 -0.389467,0 -0.706967,0.315974 -0.706967,0.70697 0.0016,0.390996 0.3175,0.706966 0.706967,0.706966 z"
         fill="#4f4f4f"
         id="path1248"
         style="stroke-width:0.264583;fill:#ffffff" />
      <path
         d="m 38.185231,-11.621874 h -1.268147 v 6.1708267 h 1.268147 z"
         fill="#4f4f4f"
         id="path1250"
         style="stroke-width:0.264583;fill:#ffffff" />
      <path
         d="m 37.550496,-12.168694 c 0.39026,0 0.706967,-0.316518 0.706967,-0.706966 0,-0.390449 -0.316707,-0.706967 -0.706967,-0.706967 -0.390525,0 -0.706967,0.316518 -0.706967,0.706967 0,0.390448 0.316442,0.706966 0.706967,0.706966 z"
         fill="#4f4f4f"
         id="path1252"
         style="stroke-width:0.264583;fill:#ffffff" />
      <path
         d="M 10.247084,-6.7207033 V -13.900043 H 8.9773485 v 8.4489957 h 5.0453395 v -1.269656 z"
         fill="#4f4f4f"
         id="path1254"
         style="stroke-width:0.264583;fill:#ffffff" />
      <path
         d="m 27.95009,-6.7827481 v -4.8391259 h -1.268148 v 0.70263 c -0.483394,-0.499197 -1.119717,-0.806511 -1.817952,-0.806511 -1.513417,0 -2.740025,1.422593 -2.740025,3.1784742 0,1.7558808 1.226608,3.178466 2.740025,3.178466 0.692415,0 1.322917,-0.3000904 1.80631,-0.7920831 0,0.090884 -0.0042,0.1832239 -0.0029,0.2741348 0.0042,0.3404922 0.01587,0.4876535 -0.0418,0.7011987 -0.102394,0.3981979 -0.393965,0.7545652 -0.780521,0.9204854 -0.183356,0.082232 -0.458788,0.1356254 -0.698235,0.1529292 -0.255588,0.018759 -0.649288,0.00434 -0.896144,-0.053367 -0.473075,-0.1096698 -0.881592,-0.4501621 -1.220523,-0.7646723 l -0.653521,0.8541279 c 0.58129,0.4443677 1.096433,0.7949671 1.783292,0.9738784 0.334698,0.085116 0.706966,0.1110985 1.048808,0.098107 0.355071,-0.017304 0.676804,-0.063474 1.051719,-0.1919023 0.735806,-0.2568046 1.324504,-0.8771996 1.569773,-1.6202554 0.132821,-0.3577961 0.12991,-0.81661 0.124089,-1.0719859 0,-0.2972064 -0.0042,-0.8945297 -0.0042,-0.8945297 z m -2.781829,0.386662 c -1.024202,0 -1.853936,-0.9623424 -1.853936,-2.1511947 0,-1.1888523 0.829734,-2.1511952 1.853936,-2.1511952 0.508,0 0.966787,0.238046 1.301485,0.623279 0.141288,0.1630366 0.212196,0.3765554 0.212196,0.5915293 v 1.79197 c 0,0.3000904 -0.118269,0.5929842 -0.334698,0.800735 -0.321733,0.3087687 -0.731573,0.4948766 -1.178983,0.4948766 z"
         fill="#4f4f4f"
         id="path1256"
         style="stroke-width:0.264583;fill:#ffffff" />
      <path
         d="m 42.507729,-6.7134802 c 0,0 -0.300037,0.408305 -0.765968,0.3707871 -0.327555,-0.027411 -0.301625,-0.4443942 -0.301625,-0.4443942 v -3.5665837 h 1.06627 v -1.268203 h -1.06627 v -1.960753 h -1.268148 v 1.960753 h -1.066271 v 1.268203 h 1.066271 v 3.771477 c 0,0 0,1.2234863 1.268148,1.2682008 1.033197,0.036089 1.403879,-0.4688945 1.403879,-0.4688945 z"
         fill="#4f4f4f"
         id="path1258"
         style="stroke-width:0.264583;fill:#ffffff" />
      <path
         d="m 34.581077,-12.291328 c 0,0 -0.05477,-0.665128 0.643467,-0.652142 0.343429,0.0058 0.659342,0.210648 0.659342,0.210648 l 0.294481,-0.904632 c 0,0 -0.357981,-0.191891 -0.975254,-0.266917 -0.795073,-0.09522 -1.891506,0.510749 -1.891506,1.589958 v 0.693984 h -1.066271 v 1.268214 h 1.066271 v 4.9011677 h 1.268147 v -4.9011677 h 1.066271 v -1.268214 h -1.066271 v -0.670899 z"
         fill="#4f4f4f"
         id="path1260"
         style="stroke-width:0.264583;fill:#ffffff" />
      <path
         d="m 17.748021,-5.0456263 c -0.467518,0 -0.923396,-0.090911 -1.353343,-0.2698221 -0.226484,-0.093768 -0.333111,-0.3534833 -0.239448,-0.5799931 0.09525,-0.2265098 0.35216,-0.3332691 0.579966,-0.2395008 0.320411,0.1341702 0.662252,0.2005542 1.012825,0.2005542 1.454415,0 2.636044,-1.1816557 2.636044,-2.6359908 0,-1.4528801 -1.181629,-2.6359641 -2.636044,-2.6359641 -0.927629,0 -1.839383,0.533823 -2.321454,1.3591114 -0.124089,0.2106348 -0.395287,0.2813314 -0.607219,0.158697 -0.210872,-0.1240895 -0.282839,-0.3953404 -0.15875,-0.6074304 0.638969,-1.093626 1.849702,-1.799151 3.087423,-1.799151 1.942042,0 3.523457,1.579864 3.523457,3.5233083 0,1.9448727 -1.581415,3.5261814 -3.523457,3.5261814 z"
         fill="#0b99f8"
         id="path1262"
         style="stroke-width:0.264583;fill:#ffffff" />
      <path
         d="m 17.499842,-6.7812929 c -0.124089,0 -0.242358,-0.059161 -0.317235,-0.1601523 l -0.696913,-0.9435835 c -0.12991,-0.1745986 -0.09234,-0.4212961 0.08361,-0.5511536 0.175947,-0.1298575 0.422804,-0.09234 0.551127,0.083688 l 0.29157,0.395314 0.918898,-2.0963737 c 0.08652,-0.199099 0.320411,-0.29001 0.519377,-0.201983 0.199232,0.08657 0.289984,0.3202788 0.202142,0.5194042 l -1.191683,2.7196521 c -0.05636,0.1284022 -0.177536,0.2178579 -0.3175,0.2337329 -0.01297,0.00146 -0.02884,0.00146 -0.04339,0.00146 z"
         fill="#4f4f4f"
         id="path1264"
         style="stroke-width:0.264583;fill:#ffffff" />
    </g>
  </g>
</svg>
