<svg width="250" height="47" viewBox="0 0 250 47" fill="none" xmlns="http://www.w3.org/2000/svg">
<path d="M146.472 38.9082C146.472 39.4799 146.306 39.9099 145.979 40.1981C145.651 40.4913 145.07 40.633 144.244 40.633C143.604 40.633 142.984 40.5548 142.378 40.3936L142.466 39.6949C143.052 39.8757 143.648 39.9685 144.254 39.9685C144.747 39.9685 145.104 39.8952 145.314 39.7437C145.524 39.5923 145.632 39.3382 145.632 38.9815C145.632 38.8545 145.622 38.7421 145.602 38.6492C145.583 38.5564 145.559 38.4733 145.534 38.4049C145.51 38.3365 145.456 38.2681 145.378 38.2095C145.3 38.1509 145.231 38.102 145.177 38.0629C145.124 38.0238 145.026 37.9847 144.884 37.9505C144.743 37.9114 144.625 37.8821 144.532 37.8528C144.44 37.8235 144.288 37.7844 144.083 37.7306C143.462 37.5889 143.027 37.4179 142.769 37.2127C142.51 37.0075 142.383 36.6655 142.383 36.1866C142.383 35.5954 142.539 35.1459 142.852 34.8478C143.164 34.5498 143.731 34.3983 144.552 34.3983C145.133 34.3983 145.71 34.4569 146.291 34.5742L146.223 35.2729C145.661 35.1263 145.109 35.053 144.562 35.053C144.054 35.053 143.702 35.1263 143.511 35.2729C143.321 35.4195 143.223 35.6687 143.223 36.0156C143.223 36.1524 143.233 36.2648 143.247 36.3625C143.262 36.4602 143.306 36.5433 143.374 36.6264C143.443 36.7045 143.501 36.7681 143.55 36.8072C143.599 36.8462 143.702 36.8951 143.858 36.9489C144.014 37.0026 144.137 37.0417 144.229 37.0661C144.322 37.0906 144.493 37.1345 144.747 37.198C145.207 37.3104 145.549 37.4228 145.773 37.5352C146.003 37.6476 146.174 37.8137 146.296 38.0238C146.418 38.2339 146.472 38.5369 146.472 38.9082Z" fill="white"/>
<path d="M149.805 38.8105C149.805 39.2942 149.893 39.6167 150.068 39.7779C150.244 39.9441 150.562 40.0271 151.016 40.0271C151.559 40.0271 152.082 39.9538 152.59 39.8073L152.639 40.418C152.116 40.5597 151.544 40.6281 150.919 40.6281C150.581 40.6281 150.293 40.5939 150.064 40.5255C149.834 40.4571 149.643 40.3643 149.502 40.2519C149.36 40.1395 149.248 39.9783 149.174 39.7731C149.101 39.5678 149.047 39.3528 149.023 39.1232C148.998 38.8984 148.984 38.615 148.984 38.273C148.984 37.5694 149.121 37.0368 149.399 36.6752C149.678 36.3185 150.186 36.1378 150.928 36.1378C151.314 36.1378 151.627 36.1817 151.876 36.2746C152.125 36.3674 152.311 36.5091 152.433 36.7094C152.555 36.9098 152.643 37.1248 152.687 37.3593C152.731 37.5938 152.756 37.8919 152.756 38.2486V38.6199H149.805V38.8105ZM149.805 37.9212V38.0531H151.954V37.7013C151.954 37.3739 151.876 37.1296 151.72 36.9733C151.564 36.8169 151.3 36.7387 150.928 36.7387C150.538 36.7387 150.254 36.8316 150.073 37.0124C149.893 37.1932 149.805 37.4961 149.805 37.9212Z" fill="white"/>
<path d="M156.039 38.3805C156.039 39.0401 156.113 39.475 156.254 39.6851C156.396 39.8952 156.723 40.0027 157.232 40.0027C157.544 40.0027 157.92 39.9636 158.365 39.8805L158.443 40.5158C158.038 40.5939 157.627 40.6281 157.202 40.6281C156.787 40.6281 156.445 40.5842 156.176 40.4913C155.907 40.3985 155.707 40.2519 155.57 40.0467C155.433 39.8415 155.341 39.6118 155.292 39.3577C155.243 39.1036 155.218 38.7812 155.218 38.3903C155.218 37.5987 155.355 37.0221 155.624 36.6703C155.893 36.3185 156.42 36.1426 157.202 36.1426C157.671 36.1426 158.087 36.1768 158.453 36.2404L158.385 36.8951C157.96 36.812 157.569 36.773 157.202 36.773C156.904 36.773 156.679 36.8072 156.528 36.8756C156.376 36.944 156.259 37.0954 156.171 37.33C156.083 37.5547 156.039 37.9114 156.039 38.3805Z" fill="white"/>
<path d="M161.043 36.2355H161.844V39.5336C161.844 39.8415 162.01 39.9929 162.342 39.9929C162.533 39.9929 162.777 39.9441 163.08 39.8463C163.383 39.7486 163.662 39.6362 163.916 39.5092V36.2404H164.717V40.5353H164.004L163.935 40.1395C163.305 40.4669 162.719 40.633 162.176 40.633C161.419 40.633 161.043 40.291 161.043 39.6118V36.2355Z" fill="white"/>
<path d="M170.009 36.1329V36.8462C169.457 36.9244 168.939 37.115 168.455 37.4179V40.5304H167.654V36.2355H168.377L168.445 36.7534C168.88 36.4456 169.403 36.2355 170.009 36.1329Z" fill="white"/>
<path d="M172.413 35.4195C172.369 35.356 172.344 35.2289 172.344 35.0286C172.344 34.8283 172.369 34.6963 172.413 34.6377C172.457 34.5742 172.579 34.5449 172.774 34.5449C172.97 34.5449 173.092 34.5742 173.136 34.6377C173.18 34.7012 173.204 34.8283 173.204 35.0286C173.204 35.2289 173.18 35.3609 173.136 35.4195C173.092 35.483 172.97 35.5123 172.774 35.5123C172.579 35.5123 172.457 35.483 172.413 35.4195ZM173.165 40.5304H172.374V36.2355H173.165V40.5304Z" fill="white"/>
<path d="M178.55 40.4767C178.174 40.5695 177.802 40.6184 177.446 40.6184C177.011 40.6184 176.717 40.5304 176.571 40.3594C176.424 40.1884 176.351 39.8952 176.351 39.4848V36.8414H175.599V36.2404H176.351V35.1556L177.152 35.0335V36.2404H178.481L178.354 36.8414H177.152V39.4701C177.152 39.6851 177.182 39.8317 177.235 39.905C177.289 39.9783 177.421 40.0174 177.631 40.0174C177.89 40.0174 178.178 39.9685 178.491 39.8757L178.55 40.4767Z" fill="white"/>
<path d="M184.003 36.2355H184.863L182.42 42.2748L181.618 42.2845L182.332 40.4815L180.592 36.2355H181.472L182.732 39.4603L184.003 36.2355Z" fill="white"/>
<path d="M194.889 38.9082C194.889 39.4799 194.723 39.9099 194.396 40.1981C194.068 40.4913 193.487 40.633 192.661 40.633C192.021 40.633 191.4 40.5548 190.795 40.3936L190.882 39.6949C191.469 39.8757 192.065 39.9685 192.671 39.9685C193.164 39.9685 193.521 39.8952 193.731 39.7437C193.941 39.5923 194.049 39.3382 194.049 38.9815C194.049 38.8545 194.039 38.7421 194.019 38.6492C194 38.5564 193.975 38.4733 193.951 38.4049C193.927 38.3365 193.873 38.2681 193.795 38.2095C193.716 38.1509 193.648 38.102 193.594 38.0629C193.541 38.0238 193.443 37.9847 193.301 37.9505C193.159 37.9114 193.042 37.8821 192.949 37.8528C192.856 37.8235 192.705 37.7844 192.5 37.7306C191.879 37.5889 191.444 37.4179 191.185 37.2127C190.926 37.0075 190.799 36.6655 190.799 36.1866C190.799 35.5954 190.956 35.1459 191.268 34.8478C191.581 34.5498 192.148 34.3983 192.969 34.3983C193.55 34.3983 194.127 34.4569 194.708 34.5742L194.64 35.2729C194.078 35.1263 193.526 35.053 192.979 35.053C192.47 35.053 192.119 35.1263 191.928 35.2729C191.738 35.4195 191.64 35.6687 191.64 36.0156C191.64 36.1524 191.65 36.2648 191.664 36.3625C191.679 36.4602 191.723 36.5433 191.791 36.6264C191.86 36.7045 191.918 36.7681 191.967 36.8072C192.016 36.8462 192.119 36.8951 192.275 36.9489C192.431 37.0026 192.554 37.0417 192.646 37.0661C192.739 37.0906 192.91 37.1345 193.164 37.198C193.624 37.3104 193.966 37.4228 194.19 37.5352C194.42 37.6476 194.591 37.8137 194.713 38.0238C194.835 38.2339 194.889 38.5369 194.889 38.9082Z" fill="white"/>
<path d="M201.021 36.685C201.295 37.0515 201.432 37.6183 201.432 38.3854C201.432 39.1525 201.295 39.7242 201.021 40.0858C200.748 40.4522 200.215 40.633 199.428 40.633C198.642 40.633 198.109 40.4522 197.835 40.0858C197.562 39.7193 197.425 39.1525 197.425 38.3854C197.425 37.6183 197.562 37.0466 197.835 36.685C198.109 36.3185 198.642 36.1378 199.428 36.1378C200.215 36.1378 200.748 36.3234 201.021 36.685ZM200.396 39.6851C200.537 39.4701 200.611 39.0352 200.611 38.3903C200.611 37.7453 200.537 37.3104 200.396 37.0954C200.254 36.8805 199.932 36.7681 199.428 36.7681C198.925 36.7681 198.603 36.8756 198.461 37.0954C198.319 37.3104 198.246 37.7453 198.246 38.3903C198.246 39.0352 198.319 39.4701 198.461 39.6851C198.603 39.9001 198.925 40.0125 199.428 40.0125C199.927 40.0125 200.249 39.9001 200.396 39.6851Z" fill="white"/>
<path d="M205.761 39.9392L205.946 40.5011C205.658 40.5841 205.345 40.6232 204.999 40.6232C204.622 40.6232 204.378 40.5402 204.275 40.374C204.173 40.2079 204.119 39.9099 204.119 39.4897V34.3934L204.92 34.2712V39.5972C204.92 39.8854 205.038 40.0271 205.272 40.0271C205.419 40.0271 205.585 39.9978 205.761 39.9392Z" fill="white"/>
<path d="M208.233 36.2355H209.035V39.5336C209.035 39.8415 209.201 39.9929 209.533 39.9929C209.723 39.9929 209.968 39.9441 210.271 39.8463C210.574 39.7486 210.852 39.6362 211.106 39.5092V36.2404H211.908V40.5353H211.194L211.126 40.1395C210.495 40.4669 209.909 40.633 209.367 40.633C208.609 40.633 208.233 40.291 208.233 39.6118V36.2355Z" fill="white"/>
<path d="M217.282 40.4767C216.906 40.5695 216.535 40.6184 216.178 40.6184C215.743 40.6184 215.45 40.5304 215.303 40.3594C215.157 40.1884 215.084 39.8952 215.084 39.4848V36.8414H214.331V36.2404H215.084V35.1556L215.885 35.0335V36.2404H217.214L217.087 36.8414H215.885V39.4701C215.885 39.6851 215.914 39.8317 215.968 39.905C216.022 39.9783 216.154 40.0174 216.364 40.0174C216.623 40.0174 216.911 39.9685 217.224 39.8757L217.282 40.4767Z" fill="white"/>
<path d="M219.892 35.4195C219.848 35.356 219.823 35.2289 219.823 35.0286C219.823 34.8283 219.848 34.6963 219.892 34.6377C219.936 34.5742 220.058 34.5449 220.253 34.5449C220.449 34.5449 220.571 34.5742 220.615 34.6377C220.659 34.7012 220.683 34.8283 220.683 35.0286C220.683 35.2289 220.659 35.3609 220.615 35.4195C220.571 35.483 220.449 35.5123 220.253 35.5123C220.058 35.5123 219.936 35.483 219.892 35.4195ZM220.644 40.5304H219.852V36.2355H220.644V40.5304Z" fill="white"/>
<path d="M226.976 36.685C227.25 37.0515 227.387 37.6183 227.387 38.3854C227.387 39.1525 227.25 39.7242 226.976 40.0858C226.703 40.4522 226.17 40.633 225.384 40.633C224.597 40.633 224.064 40.4522 223.791 40.0858C223.517 39.7193 223.38 39.1525 223.38 38.3854C223.38 37.6183 223.517 37.0466 223.791 36.685C224.064 36.3185 224.597 36.1378 225.384 36.1378C226.17 36.1378 226.703 36.3234 226.976 36.685ZM226.351 39.6851C226.493 39.4701 226.566 39.0352 226.566 38.3903C226.566 37.7453 226.493 37.3104 226.351 37.0954C226.209 36.8805 225.887 36.7681 225.384 36.7681C224.88 36.7681 224.558 36.8756 224.416 37.0954C224.274 37.3104 224.201 37.7453 224.201 38.3903C224.201 39.0352 224.274 39.4701 224.416 39.6851C224.558 39.9001 224.88 40.0125 225.384 40.0125C225.887 40.0125 226.209 39.9001 226.351 39.6851Z" fill="white"/>
<path d="M233.783 40.5304H232.982V37.2323C232.982 36.9244 232.811 36.773 232.473 36.773C232.283 36.773 232.039 36.8218 231.736 36.9195C231.433 37.0173 231.159 37.1296 230.91 37.2567V40.5255H230.108V36.2306H230.822L230.9 36.6264C231.53 36.299 232.117 36.1329 232.649 36.1329C233.407 36.1329 233.783 36.4749 233.783 37.1541V40.5304Z" fill="white"/>
<path d="M239.734 39.3822C239.734 39.8219 239.597 40.1395 239.319 40.335C239.04 40.5304 238.596 40.6281 237.975 40.6281C237.404 40.6281 236.905 40.5646 236.48 40.4425L236.588 39.8366C237.071 39.9587 237.545 40.0222 238.014 40.0222C238.361 40.0222 238.601 39.9832 238.742 39.905C238.884 39.8268 238.952 39.6607 238.952 39.4164C238.952 39.1623 238.908 39.001 238.821 38.9326C238.733 38.8642 238.459 38.7763 238.005 38.6786C237.653 38.6004 237.379 38.5271 237.179 38.4538C236.978 38.3805 236.827 38.2877 236.724 38.1704C236.622 38.058 236.553 37.9407 236.529 37.8235C236.504 37.7062 236.49 37.5401 236.49 37.3202C236.49 36.9195 236.622 36.6264 236.886 36.4358C237.149 36.2452 237.579 36.1475 238.171 36.1475C238.703 36.1475 239.177 36.1866 239.588 36.2697L239.5 36.8853C238.957 36.7925 238.488 36.7436 238.083 36.7436C237.755 36.7436 237.54 36.7827 237.433 36.8609C237.325 36.9391 237.272 37.0759 237.272 37.2713C237.272 37.4961 237.311 37.6427 237.389 37.7209C237.467 37.799 237.682 37.8723 238.034 37.9505C238.371 38.0287 238.645 38.102 238.845 38.1704C239.045 38.2388 239.211 38.3072 239.338 38.3756C239.465 38.444 239.558 38.5271 239.612 38.6346C239.666 38.7421 239.7 38.8447 239.715 38.9424C239.724 39.0352 239.734 39.1867 239.734 39.3822Z" fill="white"/>
<path d="M51.6026 13.8326H57.769C58.4677 13.8326 58.8146 14.1795 58.8146 14.9174C58.8146 15.6552 58.4677 16.0021 57.769 16.0021H51.759C51.2557 16.0021 50.8648 16.1584 50.5961 16.4272C50.3225 16.7008 50.171 17.1259 50.171 17.6292C50.171 18.1324 50.2883 18.5184 50.557 18.7921C50.8306 19.0657 51.2166 19.2172 51.759 19.2172H56.0246C57.1875 19.2172 58.1159 19.5641 58.8537 20.2628C59.5915 20.9615 59.9384 21.929 59.9384 23.0919C59.9384 23.6733 59.8602 24.2157 59.6648 24.719C59.4694 25.2223 59.2006 25.6473 58.8488 25.9991C58.5019 26.3461 58.111 26.6588 57.6077 26.8542C57.1435 27.0497 56.6012 27.1621 56.0588 27.1621H49.311C48.6123 27.1621 48.2654 26.8151 48.2654 26.0773C48.2654 25.3395 48.6123 24.9926 49.311 24.9926H55.9025C56.4448 24.9926 56.8699 24.8362 57.1435 24.4893C57.4514 24.1424 57.6077 23.6733 57.6077 23.131C57.6077 21.9681 57.0263 21.3866 55.9025 21.3866H51.5978C51.0554 21.3866 50.5521 21.3084 50.0879 21.113C49.6238 20.9175 49.2329 20.6879 48.925 20.3361C48.6172 19.9892 48.3436 19.5983 48.1481 19.1341C47.9527 18.6699 47.8745 18.1666 47.8745 17.6243C47.8745 17.0819 47.9527 16.5786 48.1481 16.1145C48.3436 15.6503 48.5732 15.2594 48.925 14.9125C49.2329 14.5655 49.6238 14.331 50.0879 14.1356C50.557 13.9108 51.0603 13.8326 51.6026 13.8326Z" fill="white"/>
<path d="M62.7333 25.8135L67.9664 14.805C68.3133 14.1062 68.8605 13.7593 69.6325 13.7593C70.3704 13.7593 70.9127 14.1062 71.2596 14.805L76.4927 25.8135C76.996 26.82 76.6882 27.3233 75.5985 27.3233H75.5595C74.978 27.3233 74.592 27.0497 74.3575 26.5464L73.1946 24.0642H69.1244C68.6211 24.0642 68.3084 23.947 68.1569 23.6782C68.0055 23.4095 68.0397 23.0577 68.2742 22.6326C68.5087 22.1684 68.8557 21.9339 69.3589 21.9339H72.2662L69.6668 16.4272L64.8979 26.5464C64.6633 27.0497 64.2773 27.3233 63.6959 27.3233C62.5379 27.3282 62.23 26.8249 62.7333 25.8135Z" fill="white"/>
<path d="M80.7241 26.0089V15.0346C80.7241 14.2186 81.1101 13.8326 81.887 13.8326H91.0388C91.7375 13.8326 92.0844 14.1795 92.0844 14.9174C92.0844 15.6552 91.7375 16.0021 91.0388 16.0021H83.0499V25.0366H91.1512C91.8499 25.0366 92.1968 25.3835 92.1968 26.1213C92.1968 26.8591 91.8499 27.206 91.1512 27.206H81.9261C81.1492 27.2109 80.7241 26.8249 80.7241 26.0089ZM85.6054 19.3393H89.7146C90.3743 19.3393 90.7212 19.6862 90.7212 20.385C90.7212 21.0837 90.3743 21.4306 89.7146 21.4306H85.6054C84.9458 21.4306 84.5988 21.0837 84.5988 20.385C84.5988 19.6911 84.9458 19.3393 85.6054 19.3393Z" fill="white"/>
<path d="M98.9055 13.8326H107.627C108.326 13.8326 108.673 14.1795 108.673 14.9174C108.673 15.6552 108.326 16.0021 107.627 16.0021H98.9055V26.1995C98.9055 26.9764 98.5195 27.3624 97.7035 27.3624C96.9657 27.3624 96.5797 26.9764 96.5797 26.1995V16.2366C96.5797 15.4597 96.7751 14.8783 97.2002 14.4532C97.6253 14.0281 98.1286 13.8326 98.9055 13.8326ZM100.415 26.1262C100.415 25.3884 100.762 25.0415 101.461 25.0415H107.354V21.5527H104.446C103.787 21.5527 103.44 21.2058 103.44 20.5071C103.44 19.8084 103.787 19.4615 104.446 19.4615H108.477C109.254 19.4615 109.64 19.8475 109.64 20.6635V24.7727C109.64 25.5496 109.445 26.1311 109.02 26.5562C108.634 26.9813 108.052 27.1767 107.275 27.1767H101.383C100.767 27.2109 100.415 26.8591 100.415 26.1262Z" fill="white"/>
<path d="M125.349 13.8326H131.516C132.214 13.8326 132.561 14.1795 132.561 14.9174C132.561 15.6552 132.214 16.0021 131.516 16.0021H125.506C125.002 16.0021 124.612 16.1584 124.343 16.4272C124.069 16.7008 123.918 17.1259 123.918 17.6292C123.918 18.1324 124.035 18.5184 124.304 18.7921C124.572 19.0657 124.963 19.2172 125.506 19.2172H129.771C130.934 19.2172 131.863 19.5641 132.6 20.2628C133.338 20.9615 133.685 21.929 133.685 23.0919C133.685 23.6733 133.607 24.2157 133.412 24.719C133.216 25.2223 132.947 25.6473 132.596 25.9991C132.249 26.3461 131.858 26.6588 131.354 26.8542C130.89 27.0497 130.348 27.1621 129.806 27.1621H123.058C122.359 27.1621 122.012 26.8151 122.012 26.0773C122.012 25.3395 122.359 24.9926 123.058 24.9926H129.649C130.192 24.9926 130.617 24.8362 130.89 24.4893C131.198 24.1424 131.354 23.6733 131.354 23.131C131.354 21.9681 130.773 21.3866 129.649 21.3866H125.344C124.802 21.3866 124.299 21.3084 123.835 21.113C123.37 20.9175 122.98 20.6879 122.672 20.3361C122.364 19.9892 122.09 19.5983 121.895 19.1341C121.699 18.6699 121.621 18.1666 121.621 17.6243C121.621 17.0819 121.699 16.5786 121.895 16.1145C122.09 15.6503 122.32 15.2594 122.672 14.9125C122.98 14.5655 123.37 14.331 123.835 14.1356C124.299 13.9108 124.802 13.8326 125.349 13.8326Z" fill="white"/>
<path d="M138.18 26.0089V15.0346C138.18 14.2186 138.566 13.8326 139.343 13.8326H148.495C149.194 13.8326 149.541 14.1795 149.541 14.9174C149.541 15.6552 149.194 16.0021 148.495 16.0021H140.506V25.0366H148.607C149.306 25.0366 149.653 25.3835 149.653 26.1213C149.653 26.8591 149.306 27.206 148.607 27.206H139.343C138.566 27.2109 138.18 26.8249 138.18 26.0089ZM143.027 19.3393H147.137C147.796 19.3393 148.143 19.6862 148.143 20.385C148.143 21.0837 147.796 21.4306 147.137 21.4306H143.027C142.368 21.4306 142.021 21.0837 142.021 20.385C142.021 19.6911 142.368 19.3393 143.027 19.3393Z" fill="white"/>
<path d="M156.288 13.8326H164.781C165.479 13.8326 165.826 14.1795 165.826 14.9174C165.826 15.6552 165.479 16.0021 164.781 16.0021H156.288V25.0366H165.088C165.787 25.0366 166.134 25.3835 166.134 26.1213C166.134 26.8591 165.787 27.206 165.088 27.206H156.288C155.551 27.206 154.969 27.0106 154.544 26.5855C154.158 26.1604 153.924 25.5789 153.924 24.802V16.2317C153.924 15.4548 154.119 14.8734 154.544 14.4483C154.969 14.0281 155.551 13.8326 156.288 13.8326Z" fill="white"/>
<path d="M170.903 24.8069V14.8441C170.903 14.0672 171.289 13.6812 172.105 13.6812C172.843 13.6812 173.229 14.0672 173.229 14.8441V25.0415H181.061V14.8441C181.061 14.0672 181.447 13.6812 182.263 13.6812C183.001 13.6812 183.387 14.0672 183.387 14.8441V24.8069C183.387 25.5838 183.192 26.1653 182.767 26.5904C182.381 27.0155 181.799 27.2109 181.022 27.2109H173.19C172.452 27.2109 171.87 27.0155 171.445 26.5904C171.098 26.1653 170.903 25.5838 170.903 24.8069Z" fill="white"/>
<path d="M189.163 15.0346C189.163 14.2186 189.549 13.8326 190.325 13.8326H197.112C198.471 13.8326 199.516 14.1795 200.215 14.9174C200.914 15.6552 201.261 16.6617 201.261 18.0591C201.261 19.0657 201.026 19.9208 200.523 20.6195C200.02 21.3182 199.321 21.7824 198.432 22.0951L201.261 25.9356C201.998 26.9031 201.725 27.4112 200.484 27.4112C199.863 27.4112 199.36 27.1767 199.008 26.6734L195.905 22.3296H194.005C193.345 22.3296 192.998 21.9436 192.998 21.2058C192.998 20.5071 193.345 20.1602 194.005 20.1602H196.873C197.493 20.1602 197.997 19.9647 198.383 19.6178C198.73 19.2318 198.925 18.7237 198.925 18.0689C198.925 17.3311 198.769 16.7888 198.5 16.52C198.192 16.2122 197.684 16.0949 196.873 16.0949H191.483V26.2532C191.483 27.0301 191.097 27.4552 190.321 27.4552C189.544 27.4552 189.158 27.0692 189.158 26.2532V15.0346H189.163Z" fill="white"/>
<path d="M206.455 26.1653V14.8831C206.455 14.1063 206.841 13.7202 207.657 13.7202C208.394 13.7202 208.78 14.1063 208.78 14.8831V26.1653C208.78 26.9422 208.394 27.3282 207.657 27.3282H207.578C206.806 27.3282 206.455 26.9373 206.455 26.1653Z" fill="white"/>
<path d="M211.805 14.9222C211.805 14.1844 212.152 13.8375 212.851 13.8375H223.512C224.211 13.8375 224.558 14.1844 224.558 14.9222C224.558 15.66 224.211 16.007 223.512 16.007H212.851C212.157 16.007 211.805 15.6161 211.805 14.9222ZM217.004 26.1653V18.5673C217.004 17.7904 217.39 17.4044 218.128 17.4044H218.206C218.944 17.4044 219.33 17.7904 219.33 18.5673V26.1653C219.33 26.9422 218.944 27.3673 218.128 27.3673C217.39 27.3282 217.004 26.9373 217.004 26.1653Z" fill="white"/>
<path d="M226.229 13.8326H227.045C227.704 13.8326 228.247 14.1063 228.672 14.6486L230.802 17.3995C231.227 17.9419 231.227 18.4842 230.841 18.9875L230.646 19.2611C230.451 19.5348 230.26 19.6471 230.025 19.6471C229.83 19.6471 229.639 19.5299 229.444 19.3002L225.838 14.6486C225.413 14.1063 225.569 13.8326 226.229 13.8326ZM231.037 26.1653V21.8997C231.037 21.4355 231.193 21.0055 231.462 20.6195L235.884 14.6877C236.27 14.1453 236.812 13.8717 237.472 13.8717H238.21C238.869 13.8717 238.987 14.1453 238.596 14.6877L233.363 21.7824V26.2044C233.363 26.9813 232.977 27.3673 232.2 27.3673C231.423 27.3282 231.037 26.9373 231.037 26.1653Z" fill="white"/>
<path d="M228.237 46.2912H250V44.9426H133.456V46.2912H228.237Z" fill="url(#paint0_linear_49_2473)"/>
<path d="M16.6911 22.8671C17.7543 22.8671 18.6162 22.0052 18.6162 20.942C18.6162 19.8788 17.7543 19.0168 16.6911 19.0168C15.6278 19.0168 14.7659 19.8788 14.7659 20.942C14.7659 22.0052 15.6278 22.8671 16.6911 22.8671Z" fill="#AF2A31"/>
<path d="M15.7969 7.96443V13.0167C15.7969 13.3099 15.9484 13.5835 16.1976 13.7399L32.9033 24.2988C33.1477 24.4552 33.2942 24.719 33.2942 25.0073V31.8137L27.3527 35.4539V26.4732L19.9502 21.7971C19.7791 21.6896 19.6863 21.4893 19.7107 21.289C19.7254 21.1815 19.7303 21.0691 19.7303 20.9567C19.7401 19.4713 18.6456 18.1618 17.1748 17.9419C16.3979 17.8247 15.6748 17.9957 15.0835 18.3671C14.9125 18.4745 14.6927 18.4794 14.5216 18.3719L8.58496 14.6194C8.3602 14.4826 8.22827 14.2382 8.22827 13.9744V5.2575C8.22827 4.98388 8.36997 4.72491 8.60451 4.57344L15.709 0.0244285C15.7383 0.00488392 15.7725 0 15.8018 0C15.8311 0 15.8653 0.00488392 15.8898 0.0244285L32.8691 10.8961C33.133 11.0671 33.2942 11.3554 33.2942 11.6681V19.1684L15.7969 7.96443Z" fill="#878788"/>
<path d="M33.2893 11.6681V19.1684L15.7969 7.96931V0C15.8262 0 15.8604 0.00488392 15.8848 0.0244285L32.8642 10.8961C33.1281 11.0622 33.2893 11.3554 33.2893 11.6681Z" fill="#AF2A31"/>
<path d="M33.2893 30.6997V31.8186L27.3477 35.4588V26.478L32.8984 29.9863C33.1427 30.1426 33.2893 30.4114 33.2893 30.6997Z" fill="#3E3D3C"/>
<path d="M25.0708 27.8267V36.5436C25.0708 36.8172 24.9292 37.0762 24.6946 37.2277L17.5901 41.7767C17.5608 41.7962 17.5266 41.8011 17.4973 41.8011C17.468 41.8011 17.4338 41.7962 17.4094 41.7767L0.429982 30.905C0.16613 30.734 0.0048872 30.4457 0.0048872 30.133V22.6327L17.4973 33.8318V28.7795C17.4973 28.4863 17.3458 28.2127 17.0966 28.0564L0.390894 17.4974C0.146586 17.341 0 17.0772 0 16.7889V9.98247L5.94156 6.34229V15.323L13.4369 20.0577C13.6079 20.1652 13.7008 20.3655 13.6763 20.5708C13.6373 20.8688 13.647 21.1815 13.7057 21.504C13.9451 22.7988 15.0298 23.8152 16.3393 23.9569C17.0722 24.035 17.7514 23.8591 18.3084 23.5025C18.4843 23.3901 18.7042 23.3852 18.8752 23.4976L24.7044 27.1817C24.934 27.3185 25.0708 27.5628 25.0708 27.8267Z" fill="#878788"/>
<path d="M0.00976562 30.1328V22.6326L17.5022 33.8316V41.8009C17.4729 41.8009 17.4387 41.7961 17.4142 41.7765L0.429975 30.9097C0.166123 30.7387 0.00976562 30.4455 0.00976562 30.1328Z" fill="#AF2A31"/>
<path d="M0.00476074 11.1014V9.98247L5.94632 6.34229V15.323L0.395653 11.8148C0.156231 11.6584 0.00476074 11.3897 0.00476074 11.1014Z" fill="#3E3D3C"/>
<defs>
<linearGradient id="paint0_linear_49_2473" x1="133.458" y1="45.6176" x2="250" y2="45.6176" gradientUnits="userSpaceOnUse">
<stop stop-color="#C22019" stop-opacity="0"/>
<stop offset="0.2373" stop-color="#C22019"/>
<stop offset="0.2657" stop-color="#C43119"/>
<stop offset="0.3214" stop-color="#CB5818"/>
<stop offset="0.3994" stop-color="#D68F0A"/>
<stop offset="0.4955" stop-color="#E8D300"/>
<stop offset="0.5192" stop-color="#ECE200"/>
<stop offset="0.5734" stop-color="#D2D700"/>
<stop offset="0.6973" stop-color="#8CBE23"/>
<stop offset="0.7866" stop-color="#50AE32"/>
<stop offset="0.8318" stop-color="#2FA836"/>
<stop offset="0.89" stop-color="#469D3C" stop-opacity="0.6543"/>
<stop offset="0.9585" stop-color="#549240" stop-opacity="0.2469"/>
<stop offset="1" stop-color="#588D41" stop-opacity="0"/>
</linearGradient>
</defs>
</svg>
