<svg width="184" height="128" viewBox="0 0 184 128" fill="none" xmlns="http://www.w3.org/2000/svg">
<path d="M91.9658 31.0417C84.7341 31.0417 77.5023 35.681 61.4015 45.0277C39.5016 57.6491 33.225 60.3781 31.4512 72.3855H54.1015C57.1034 69.3836 62.2202 66.5864 70.9528 61.5379C93.1938 48.7118 90.806 48.7118 113.047 61.5379C121.78 66.5864 126.896 69.3154 129.898 72.3855H152.48C150.707 60.3781 144.43 57.6491 122.598 45.0277C106.429 35.681 99.1976 31.0417 91.9658 31.0417Z" fill="white"/>
<path d="M91.9658 0C84.7341 0 77.5023 4.63923 61.4015 13.9859C29.0633 32.6793 30.8372 29.6774 30.8372 66.9959C30.8372 69.0426 30.8372 70.6118 30.8372 72.3856H49.8716C49.8716 70.68 49.8716 69.0426 49.8716 66.9959C49.8716 41.2755 48.7118 43.3904 70.9528 30.4961C93.1938 17.67 90.806 17.67 113.047 30.4961C135.288 43.3222 134.128 41.2755 134.128 66.9959C134.128 68.9744 134.128 70.7482 134.128 72.3856H153.163C153.163 70.6118 153.163 69.0426 153.163 66.9959C153.163 29.6774 154.868 32.6793 122.598 13.9859C106.429 4.63923 99.1976 0 91.9658 0Z" fill="white"/>
<path d="M4.09344 109.567H0V84.8704H21.4223C22.7868 84.8704 24.0148 85.1433 25.1746 85.6208C26.3344 86.0984 27.3578 86.8489 28.2447 87.6675C29.1316 88.5545 29.8139 89.5778 30.2914 90.7376C30.769 91.8974 31.0419 93.1255 31.0419 94.4217V109.499H26.9485V94.4217C26.9485 93.6713 26.812 92.989 26.5391 92.3068C26.2662 91.6245 25.8569 91.0105 25.3793 90.533C24.9017 90.0554 24.2877 89.646 23.6055 89.3731C22.9232 89.1003 22.241 88.9638 21.4905 88.9638H17.1242V109.499H13.0308V88.9638H4.22988V109.567H4.09344Z" fill="white"/>
<path d="M58.1956 109.567H40.5255C39.5022 109.567 38.6153 109.363 37.7284 109.022C36.8415 108.612 36.091 108.135 35.4088 107.521C34.7947 106.838 34.2489 106.088 33.9078 105.269C33.4985 104.451 33.2938 103.496 33.2938 102.472H33.2256V91.6245C33.2938 90.6694 33.4985 89.7825 33.9078 89.032C34.3172 88.2133 34.863 87.4629 35.477 86.8489C36.1592 86.2348 36.9097 85.7573 37.7284 85.4162C38.5471 85.075 39.5022 84.8704 40.4573 84.8704H58.1273V89.032H40.4573C39.6386 89.032 38.9564 89.3049 38.4106 89.7825C37.8648 90.2601 37.5237 90.8741 37.3873 91.6245V95.2404H55.6713V99.3338H37.3873V102.336C37.3873 103.223 37.6601 103.973 38.2742 104.519C38.8882 105.133 39.6386 105.406 40.5255 105.406H58.1956V109.567Z" fill="white"/>
<path d="M82.6874 88.9639H72.5902C71.4304 88.9639 70.4071 89.1686 69.3837 89.6462C68.4286 90.0555 67.5417 90.6695 66.7912 91.42C66.0407 92.1704 65.4949 93.0573 65.0174 94.0125C64.608 95.0358 64.3351 96.0592 64.3351 97.219C64.3351 98.3788 64.5398 99.4022 65.0174 100.426C65.4267 101.449 66.0407 102.268 66.7912 103.018C67.5417 103.769 68.4286 104.314 69.3837 104.792C70.4071 105.201 71.4304 105.406 72.5902 105.406H82.6874V109.568H72.5902C70.8846 109.568 69.3155 109.226 67.7463 108.612C66.2454 107.93 64.9491 107.043 63.8576 105.952C62.766 104.86 61.8791 103.496 61.1968 101.995C60.5828 100.494 60.2417 98.8564 60.2417 97.1508C60.2417 95.4452 60.5828 93.876 61.1968 92.3751C61.8791 90.8742 62.766 89.5779 63.8576 88.4181C64.9491 87.2583 66.2454 86.3714 67.7463 85.7574C69.2473 85.0752 70.8846 84.8022 72.5902 84.8022H82.6874V88.9639Z" fill="white"/>
<path d="M108.476 88.9639H92.034C91.1471 88.9639 90.3966 89.2368 89.7826 89.8508C89.1686 90.4648 88.8957 91.1471 88.8957 92.034C88.8957 92.9209 89.1686 93.6714 89.7826 94.2854C90.3966 94.8994 91.1471 95.1723 92.034 95.1723H101.312C102.268 95.1723 103.223 95.377 104.11 95.7863C104.997 96.1956 105.747 96.6732 106.429 97.3555C107.111 97.9695 107.589 98.7199 107.93 99.6068C108.34 100.494 108.544 101.449 108.544 102.404C108.544 103.427 108.34 104.314 107.93 105.201C107.589 106.088 107.043 106.839 106.429 107.521C105.815 108.135 105.065 108.681 104.11 109.022C103.223 109.431 102.336 109.636 101.312 109.636H84.8022V105.542H101.312C102.131 105.542 102.882 105.269 103.496 104.655C104.11 104.041 104.383 103.291 104.383 102.404C104.383 101.517 104.11 100.767 103.496 100.221C102.882 99.6068 102.199 99.334 101.312 99.334H92.034C91.0106 99.334 90.0555 99.1293 89.1686 98.7882C88.2817 98.3788 87.5312 97.9013 86.849 97.2872C86.1667 96.605 85.6891 95.8545 85.348 94.9676C85.0069 94.0807 84.8022 93.1256 84.8022 92.1022C84.8022 91.1471 85.0069 90.1919 85.348 89.305C85.6891 88.4181 86.2349 87.6677 86.849 86.9854C87.5312 86.3032 88.2817 85.8256 89.1686 85.4163C90.0555 85.0069 91.0106 84.8022 92.034 84.8022H108.476V88.9639Z" fill="white"/>
<path d="M134.333 88.9639H117.891C117.004 88.9639 116.254 89.2368 115.64 89.8508C115.026 90.4648 114.753 91.1471 114.753 92.034C114.753 92.9209 115.026 93.6714 115.64 94.2854C116.254 94.8994 117.004 95.1723 117.891 95.1723H127.17C128.125 95.1723 129.08 95.377 129.967 95.7863C130.854 96.1956 131.604 96.6732 132.287 97.3555C132.969 97.9695 133.446 98.7199 133.788 99.6068C134.197 100.494 134.402 101.449 134.402 102.404C134.402 103.427 134.197 104.314 133.788 105.201C133.446 106.088 132.901 106.839 132.287 107.521C131.673 108.135 130.922 108.681 129.967 109.022C129.08 109.431 128.193 109.636 127.17 109.636H110.66V105.542H127.17C127.989 105.542 128.739 105.269 129.353 104.655C129.967 104.041 130.24 103.291 130.24 102.404C130.24 101.517 129.967 100.767 129.353 100.221C128.739 99.6068 128.057 99.334 127.17 99.334H117.891C116.868 99.334 115.913 99.1293 115.026 98.7882C114.139 98.3788 113.389 97.9013 112.706 97.2872C112.024 96.605 111.547 95.8545 111.205 94.9676C110.864 94.0807 110.66 93.1256 110.66 92.1022C110.66 91.1471 110.864 90.1919 111.205 89.305C111.547 88.4181 112.092 87.6677 112.706 86.9854C113.389 86.3032 114.139 85.8256 115.026 85.4163C115.913 85.0069 116.868 84.8022 117.891 84.8022H134.333V88.9639Z" fill="white"/>
<path d="M158.279 101.312V93.0573C158.279 92.4433 158.143 91.9658 157.938 91.42C157.734 90.9424 157.461 90.5331 157.051 90.1237C156.71 89.7144 156.233 89.4415 155.755 89.2368C155.278 89.0321 154.732 88.8957 154.118 88.8957H144.566C144.021 88.8957 143.475 89.0321 142.997 89.2368C142.52 89.4415 142.042 89.7144 141.701 90.1237C141.36 90.4648 141.019 90.9424 140.814 91.42C140.609 91.8975 140.473 92.4433 140.473 93.0573V101.312C140.473 101.926 140.609 102.472 140.814 102.95C141.019 103.427 141.292 103.837 141.701 104.246C142.11 104.587 142.52 104.928 142.997 105.133C143.475 105.338 144.021 105.474 144.566 105.474H154.118C154.732 105.474 155.209 105.338 155.755 105.133C156.233 104.86 156.71 104.587 157.051 104.246C157.461 103.905 157.734 103.427 157.938 102.95C158.143 102.404 158.279 101.858 158.279 101.312ZM162.441 93.0573V101.312C162.441 102.472 162.236 103.496 161.759 104.519C161.35 105.542 160.735 106.361 159.985 107.111C159.235 107.862 158.348 108.408 157.393 108.885C156.369 109.295 155.346 109.568 154.186 109.568H144.635C143.475 109.568 142.451 109.363 141.428 108.885C140.473 108.476 139.586 107.862 138.836 107.111C138.085 106.361 137.471 105.474 137.062 104.519C136.652 103.496 136.448 102.472 136.448 101.312V93.0573C136.448 91.8975 136.652 90.8742 137.062 89.8508C137.471 88.8275 138.085 88.0088 138.836 87.2583C139.586 86.5078 140.473 85.8938 141.428 85.4845C142.451 85.0751 143.475 84.8022 144.635 84.8022H154.186C155.346 84.8022 156.369 85.0069 157.393 85.4845C158.416 85.8938 159.303 86.5078 159.985 87.2583C160.735 88.0088 161.35 88.8275 161.759 89.8508C162.236 90.8742 162.441 91.8975 162.441 93.0573Z" fill="white"/>
<path d="M168.581 84.8022V105.406H184V109.568H164.488V84.8022H168.581Z" fill="white"/>
<path d="M0.682381 118.914H0.0683594V125.805H0.682381V118.914Z" fill="white"/>
<path d="M7.09542 125.805L3.20665 120.006V125.805H2.52441V118.914H3.20665L7.16364 124.781V118.982H7.84588V125.805H7.09542Z" fill="white"/>
<path d="M14.6001 121.029C14.6001 120.551 14.3272 120.142 13.7815 119.869C13.3039 119.665 12.8945 119.528 12.417 119.528C12.1441 119.528 11.803 119.596 11.5301 119.733C11.2572 119.869 11.0525 120.006 10.8478 120.142C10.6431 120.279 10.5067 120.483 10.3703 120.688C10.0291 121.165 9.89269 121.779 9.89269 122.462C9.89269 123.485 10.2338 124.236 10.8478 124.781C11.3254 125.191 11.8712 125.395 12.417 125.395C12.9628 125.395 13.5086 125.259 13.9861 124.918C14.5319 124.645 14.7366 124.236 14.7366 123.826V123.076H12.7581V122.393H15.3506V123.826C15.3506 124.236 15.2142 124.577 14.873 124.918C14.5319 125.259 14.1908 125.532 13.7132 125.736C13.2357 125.941 12.8263 126.009 12.417 126.009C11.6665 126.009 10.9843 125.736 10.3703 125.259C9.89269 124.85 9.55157 124.372 9.3469 123.69C9.21045 123.349 9.21045 122.939 9.21045 122.462C9.21045 121.575 9.41512 120.893 9.82446 120.279C10.1656 119.801 10.5749 119.46 11.0525 119.255C11.5301 119.051 12.0076 118.914 12.3487 118.914C12.9628 118.914 13.5086 119.051 14.1226 119.392C14.5319 119.665 14.873 119.937 15.0777 120.347C15.1459 120.551 15.2142 120.824 15.2142 121.029H14.6001Z" fill="white"/>
<path d="M21.6269 122.598H17.6017V125.191H22.0362V125.805H16.9194V118.914H21.8998V119.596H17.6017V121.916H21.6269V122.598Z" fill="white"/>
<path d="M27.9719 125.805L24.0149 120.006V125.805H23.4009V118.914H24.0831L28.0401 124.781V118.982H28.7223V125.805H27.9719Z" fill="white"/>
<path d="M31.1788 118.914H30.4966V125.805H31.1788V118.914Z" fill="white"/>
<path d="M37.6597 122.598H33.6345V125.191H38.0691V125.805H33.0205V118.914H37.9326V119.596H33.6345V121.916H37.6597V122.598Z" fill="white"/>
<path d="M40.1158 119.596V122.189H42.3672C42.8448 122.189 43.2541 122.052 43.527 121.848C43.7999 121.643 43.9364 121.302 43.9364 120.893C43.9364 120.483 43.7999 120.21 43.527 119.937C43.2541 119.665 42.913 119.596 42.4354 119.596H40.1158ZM39.4336 118.914H42.299C42.9812 118.914 43.527 119.119 43.8682 119.46C44.2775 119.801 44.4822 120.279 44.4822 120.893C44.4822 121.302 44.4139 121.711 44.2093 121.984C44.0046 122.257 43.7317 122.53 43.3224 122.666C43.7999 123.007 44.141 123.485 44.3457 124.099C44.4139 124.304 44.4822 124.508 44.6186 124.85C44.7551 125.191 44.8233 125.464 44.9597 125.668L44.4139 126.009C44.2775 125.736 44.141 125.464 44.0046 125.122C43.8681 124.781 43.7999 124.508 43.7317 124.304C43.4588 123.622 42.9812 123.144 42.2308 122.871H40.0476V125.941H39.4336V118.914Z" fill="white"/>
<path d="M47.2113 118.914V125.805H46.5291V118.914H47.2113ZM46.9385 118.709H46.188L46.9385 117.413H47.8936L46.9385 118.709Z" fill="white"/>
<path d="M51.3725 119.869C51.1678 120.415 50.9631 120.961 50.7584 121.507C50.5538 122.052 50.3491 122.53 50.1444 123.076H52.7369L51.3725 119.869ZM51.0313 118.914H51.6454L54.5108 125.805H53.8285L52.9416 123.69H49.8715L49.0528 125.805H48.3706L51.0313 118.914Z" fill="white"/>
<path d="M55.3978 124.849H56.4212V126.555L55.3978 127.51L55.3296 126.964L55.8072 126.35L55.6707 125.804H55.3978V124.849Z" fill="white"/>
<path d="M61.4698 119.596V122.393H63.7212C64.1988 122.393 64.6081 122.257 64.8128 121.984C65.0857 121.711 65.2222 121.37 65.2222 120.961C65.2222 120.551 65.0857 120.21 64.8128 119.937C64.5399 119.665 64.1988 119.528 63.7212 119.528H61.4698V119.596ZM60.7876 118.914H63.653C64.3353 118.914 64.881 119.119 65.2222 119.46C65.6315 119.869 65.8362 120.347 65.8362 120.961C65.8362 121.575 65.6315 122.052 65.2222 122.462C64.8128 122.871 64.3353 123.007 63.653 123.007H61.4016V125.805H60.7876V118.914Z" fill="white"/>
<path d="M67.8833 119.596V122.189H70.1347C70.6122 122.189 71.0216 122.052 71.2945 121.848C71.5674 121.643 71.7038 121.302 71.7038 120.893C71.7038 120.483 71.5674 120.21 71.2945 119.937C71.0216 119.665 70.6805 119.596 70.2029 119.596H67.8833ZM67.201 118.914H70.0664C70.7487 118.914 71.2945 119.119 71.6356 119.46C72.0449 119.801 72.2496 120.279 72.2496 120.893C72.2496 121.302 72.1814 121.711 71.9767 121.984C71.772 122.257 71.4991 122.53 71.0898 122.666C71.5674 123.007 71.9085 123.485 72.1132 124.099C72.1814 124.304 72.2496 124.508 72.386 124.85C72.5225 125.191 72.5907 125.464 72.7272 125.668L72.1814 126.009C72.0449 125.736 71.9085 125.464 71.772 125.122C71.6356 124.781 71.5674 124.508 71.4991 124.304C71.2262 123.622 70.7487 123.144 69.9982 122.871H67.8151V125.941H67.1328V118.914H67.201Z" fill="white"/>
<path d="M74.7734 119.869C75.0463 119.528 75.3874 119.255 75.7968 119.118C76.2061 118.914 76.6155 118.845 77.0248 118.845C77.4342 118.845 77.8435 118.914 78.1164 118.982C78.3893 119.05 78.7304 119.255 79.0715 119.459C79.4127 119.664 79.6855 120.073 79.9584 120.619C80.2313 121.165 80.2996 121.711 80.2996 122.257C80.2996 122.802 80.2313 123.348 80.0949 123.758C79.9584 124.167 79.7538 124.576 79.4809 124.917C79.208 125.259 78.8668 125.463 78.4575 125.668C78.0482 125.873 77.7071 125.941 77.2977 125.941C76.8884 125.941 76.5472 125.873 76.2744 125.804C76.0015 125.736 75.6603 125.531 75.3192 125.259C74.9781 124.986 74.637 124.576 74.4323 124.03C74.1594 123.485 74.0229 122.939 74.0229 122.393C74.0229 121.847 74.0912 121.37 74.2276 120.96C74.2959 120.551 74.5005 120.21 74.7734 119.869ZM77.0248 119.459C76.6837 119.459 76.3426 119.528 76.0015 119.664C75.6603 119.801 75.3874 120.005 75.1828 120.278C74.7052 120.824 74.5005 121.506 74.5005 122.257C74.5005 123.075 74.7052 123.689 75.1828 124.303C75.6603 124.917 76.2061 125.259 76.7519 125.259C77.3659 125.259 77.7753 125.19 78.0482 125.054C78.3211 124.917 78.594 124.713 78.7986 124.44C79.2762 123.894 79.4809 123.212 79.4809 122.393C79.4809 121.574 79.2762 120.892 78.8669 120.346C78.5257 119.732 77.9117 119.459 77.0248 119.459Z" fill="white"/>
<path d="M81.7323 118.777L84.0519 122.257L86.3033 118.846L86.8491 119.187L84.3248 122.939V125.804H83.7108V122.939L81.1865 119.187L81.7323 118.777Z" fill="white"/>
<path d="M92.7164 122.598H88.6912V125.191H93.1257V125.805H88.0771V118.914H92.9893V119.596H88.6912V121.916H92.7164V122.598Z" fill="white"/>
<path d="M99.334 121.097C99.2657 120.688 98.9928 120.279 98.6517 119.937C98.2424 119.596 97.833 119.46 97.2872 119.46C96.7414 119.46 96.2639 119.665 95.7863 120.074C95.1723 120.551 94.8994 121.37 94.8994 122.393C94.8994 123.417 95.1723 124.167 95.7863 124.713C96.2639 125.122 96.7414 125.327 97.3555 125.327C97.9013 125.327 98.3788 125.191 98.7199 124.85C99.0611 124.508 99.2657 124.099 99.334 123.69L99.948 123.758C99.8797 124.372 99.5386 124.918 99.0611 125.327C98.5835 125.736 97.9695 126.009 97.219 126.009C96.4685 126.009 95.8545 125.736 95.2405 125.259C94.7629 124.85 94.4901 124.372 94.2854 123.69C94.2172 123.349 94.1489 122.939 94.1489 122.462C94.1489 121.643 94.3536 120.961 94.6265 120.415C94.9676 119.869 95.377 119.528 95.8545 119.255C96.3321 119.051 96.8097 118.914 97.219 118.914C97.9012 118.914 98.5153 119.119 98.9928 119.596C99.4704 120.006 99.8115 120.551 99.8798 121.097H99.334Z" fill="white"/>
<path d="M100.835 118.914H106.293V119.596H103.837V125.805H103.223V119.596H100.835V118.914Z" fill="white"/>
<path d="M107.93 119.869C108.203 119.528 108.544 119.255 108.954 119.118C109.363 118.914 109.772 118.845 110.182 118.845C110.591 118.845 111 118.914 111.273 118.982C111.546 119.05 111.887 119.255 112.228 119.459C112.569 119.664 112.842 120.073 113.115 120.619C113.388 121.165 113.456 121.711 113.456 122.257C113.456 122.802 113.388 123.348 113.252 123.758C113.115 124.167 112.91 124.576 112.638 124.917C112.365 125.259 112.024 125.463 111.614 125.668C111.205 125.873 110.864 125.941 110.454 125.941C110.045 125.941 109.704 125.873 109.431 125.804C109.158 125.736 108.817 125.531 108.476 125.259C108.135 124.986 107.794 124.576 107.589 124.03C107.316 123.485 107.18 122.939 107.18 122.393C107.18 121.847 107.248 121.37 107.384 120.96C107.384 120.551 107.657 120.21 107.93 119.869ZM110.182 119.459C109.84 119.459 109.499 119.528 109.158 119.664C108.817 119.801 108.544 120.005 108.34 120.278C107.862 120.824 107.657 121.506 107.657 122.257C107.657 123.075 107.862 123.689 108.34 124.303C108.817 124.917 109.363 125.259 109.909 125.259C110.523 125.259 110.932 125.19 111.205 125.054C111.478 124.917 111.751 124.713 111.955 124.44C112.433 123.894 112.638 123.212 112.638 122.393C112.638 121.574 112.433 120.892 112.024 120.346C111.682 119.732 111 119.459 110.182 119.459Z" fill="white"/>
<path d="M118.983 120.892C118.983 120.483 118.778 120.073 118.437 119.869C118.096 119.596 117.618 119.459 117.141 119.459C116.595 119.459 116.186 119.596 115.844 119.801C115.503 120.005 115.367 120.346 115.367 120.687C115.367 121.165 115.776 121.506 116.595 121.711C116.8 121.779 117.072 121.847 117.277 121.916C117.482 121.984 117.687 122.052 117.891 122.052C118.096 122.12 118.369 122.188 118.642 122.325C118.915 122.461 119.187 122.598 119.46 122.871C119.665 123.144 119.801 123.485 119.801 123.894C119.801 124.303 119.665 124.713 119.392 125.054C119.051 125.463 118.505 125.736 117.823 125.873C117.618 125.873 117.482 125.941 117.277 125.941C117.072 125.941 116.868 125.941 116.595 125.873C116.39 125.804 116.117 125.736 115.776 125.531C115.435 125.395 115.162 125.122 114.889 124.781C114.616 124.44 114.48 124.03 114.48 123.621H115.094C115.094 124.099 115.299 124.508 115.708 124.849C116.117 125.19 116.595 125.327 117.072 125.327C117.55 125.327 118.028 125.19 118.369 124.986C118.778 124.713 119.051 124.372 119.051 123.894C119.051 123.348 118.642 123.007 117.755 122.734C117.55 122.666 117.277 122.598 117.072 122.53C116.868 122.461 116.663 122.393 116.458 122.393C116.254 122.325 116.049 122.257 115.708 122.188C115.435 122.052 115.162 121.916 114.958 121.643C114.753 121.438 114.616 121.097 114.616 120.687C114.616 120.142 114.821 119.732 115.299 119.391C115.776 119.05 116.322 118.845 117.004 118.845C117.686 118.845 118.301 119.05 118.778 119.391C119.256 119.801 119.529 120.278 119.529 120.892H118.983Z" fill="white"/>
<path d="M123.963 118.777L126.283 122.257L128.534 118.846L129.08 119.187L126.556 122.939V125.804H125.942V122.939L123.417 119.187L123.963 118.777Z" fill="white"/>
<path d="M136.175 124.85L138.154 118.914H139.245V125.805H138.631V119.528L136.516 125.805H135.834L133.651 119.528V125.805H132.969V118.914H134.129L136.175 124.85Z" fill="white"/>
<path d="M141.565 119.869C141.838 119.528 142.179 119.255 142.588 119.118C142.998 118.914 143.407 118.845 143.816 118.845C144.226 118.845 144.635 118.914 144.908 118.982C145.181 119.05 145.522 119.255 145.863 119.459C146.204 119.664 146.477 120.073 146.75 120.619C147.023 121.165 147.091 121.711 147.091 122.257C147.091 122.802 147.023 123.348 146.886 123.758C146.75 124.167 146.545 124.576 146.272 124.917C145.999 125.259 145.658 125.463 145.249 125.668C144.84 125.873 144.499 125.941 144.089 125.941C143.68 125.941 143.339 125.873 143.066 125.804C142.793 125.736 142.452 125.531 142.111 125.259C141.77 124.986 141.428 124.576 141.224 124.03C140.951 123.485 140.814 122.939 140.814 122.393C140.814 121.847 140.883 121.37 141.019 120.96C141.087 120.551 141.292 120.21 141.565 119.869ZM143.816 119.459C143.475 119.459 143.134 119.528 142.793 119.664C142.452 119.801 142.179 120.005 141.974 120.278C141.497 120.824 141.292 121.506 141.292 122.257C141.292 123.075 141.497 123.689 141.974 124.303C142.452 124.917 142.998 125.259 143.543 125.259C144.157 125.259 144.567 125.19 144.84 125.054C145.113 124.917 145.385 124.713 145.59 124.44C146.068 123.894 146.272 123.212 146.272 122.393C146.272 121.574 146.068 120.892 145.59 120.346C145.317 119.732 144.703 119.459 143.816 119.459Z" fill="white"/>
<path d="M153.027 125.805L149.138 120.006V125.805H148.456V118.914H149.138L153.095 124.781V118.982H153.777V125.805H153.027Z" fill="white"/>
<path d="M154.8 118.914H160.258V119.596H157.87V125.805H157.188V119.596H154.8V118.914Z" fill="white"/>
<path d="M163.601 119.869C163.397 120.415 163.192 120.961 162.987 121.507C162.783 122.052 162.578 122.53 162.373 123.076H164.966L163.601 119.869ZM163.26 118.914H163.874L166.74 125.805H166.058L165.171 123.69H162.101L161.282 125.805H160.6L163.26 118.914Z" fill="white"/>
<path d="M167.899 123.894C167.899 124.508 168.104 124.918 168.445 125.191C168.581 125.259 168.786 125.327 169.127 125.327C169.468 125.327 169.673 125.191 169.946 124.849C170.151 124.577 170.219 124.304 170.219 124.031V118.982H170.833V124.031C170.833 124.508 170.696 124.918 170.423 125.327C170.082 125.805 169.605 126.009 168.991 126.009C168.172 126.009 167.626 125.668 167.422 124.918C167.353 124.645 167.285 124.304 167.285 123.963H167.899V123.894Z" fill="white"/>
<path d="M177.178 122.598H173.152V125.191H177.587V125.805H172.47V118.914H177.451V119.596H173.152V121.916H177.178V122.598Z" fill="white"/>
<path d="M183.113 120.892C183.113 120.483 182.908 120.073 182.567 119.869C182.226 119.596 181.749 119.459 181.271 119.459C180.725 119.459 180.316 119.596 179.975 119.801C179.634 120.005 179.497 120.346 179.497 120.687C179.497 121.165 179.907 121.506 180.725 121.711C180.93 121.779 181.203 121.847 181.408 121.916C181.612 121.984 181.817 122.052 182.022 122.052C182.226 122.12 182.499 122.188 182.772 122.325C183.045 122.461 183.318 122.598 183.591 122.871C183.795 123.144 183.932 123.485 183.932 123.894C183.932 124.303 183.795 124.713 183.522 125.054C183.181 125.463 182.636 125.736 181.953 125.873C181.749 125.873 181.612 125.941 181.408 125.941C181.203 125.941 180.998 125.941 180.725 125.873C180.521 125.804 180.248 125.736 179.907 125.531C179.565 125.395 179.293 125.122 179.02 124.781C178.747 124.44 178.61 124.03 178.61 123.621H179.224C179.224 124.099 179.429 124.508 179.907 124.849C180.316 125.19 180.794 125.327 181.271 125.327C181.749 125.327 182.226 125.19 182.567 124.986C182.977 124.713 183.25 124.372 183.25 123.894C183.25 123.348 182.84 123.007 181.953 122.734C181.749 122.666 181.476 122.598 181.271 122.53C181.066 122.461 180.862 122.393 180.657 122.393C180.452 122.325 180.248 122.257 179.907 122.188C179.634 122.052 179.361 121.916 179.156 121.643C178.951 121.438 178.815 121.097 178.815 120.687C178.815 120.142 179.02 119.732 179.497 119.391C179.975 119.05 180.521 118.845 181.203 118.845C181.885 118.845 182.499 119.05 182.977 119.391C183.454 119.801 183.727 120.278 183.727 120.892H183.113Z" fill="white"/>
</svg>
